<?xml version="1.0" encoding="UTF-8" standalone="no"?>
<svg
   version="1.1"
   viewBox="0 0 439.4996 492.14355"
   id="svg142"
   sodipodi:docname="ltwc.svg"
   width="439.4996"
   height="492.14355"
   inkscape:version="1.2.1 (9c6d41e410, 2022-07-14)"
   xmlns:inkscape="http://www.inkscape.org/namespaces/inkscape"
   xmlns:sodipodi="http://sodipodi.sourceforge.net/DTD/sodipodi-0.dtd"
   xmlns="http://www.w3.org/2000/svg"
   xmlns:svg="http://www.w3.org/2000/svg">
  <defs
     id="defs146" />
  <sodipodi:namedview
     id="namedview144"
     pagecolor="#ffffff"
     bordercolor="#000000"
     borderopacity="0.25"
     inkscape:showpageshadow="2"
     inkscape:pageopacity="0.0"
     inkscape:pagecheckerboard="0"
     inkscape:deskcolor="#d1d1d1"
     showgrid="false"
     inkscape:zoom="1.5855856"
     inkscape:cx="234.61364"
     inkscape:cy="272.45455"
     inkscape:window-width="1920"
     inkscape:window-height="1057"
     inkscape:window-x="1912"
     inkscape:window-y="530"
     inkscape:window-maximized="1"
     inkscape:current-layer="svg142" />
  <path
     fill="#db0304"
     fill-opacity="1"
     d="m 198.08,3.35 c 21.37333,2.8666667 42.3,7.686667 62.78,14.46 27.67333,9.146667 53.82333,22.273333 78.45,39.38 22.29333,15.48 41.28333,33.826667 56.97,55.04 19.67333,26.61333 32.62333,56.21 38.85,88.79 6.8,35.58 5.66333,70.70333 -3.41,105.37 -1.7,6.5 -3.71333,12.84333 -6.04,19.03 -13.14667,34.94 -33.89333,65.03 -62.24,90.27 -11.29333,10.05333 -22.86333,18.82333 -34.71,26.31 -25.96,16.42 -53.75333,28.73333 -83.38,36.94 -24.74667,6.85333 -49.19667,10.95667 -73.35,12.31 -11.27333,0.63333 -25.10667,0.93 -41.5,0.89 C 87.166667,492.04667 43.96,492 0.88,492 0.39398942,492 0,491.60601 0,491.12 V 0.87 C 0,0.38951227 0.38951227,0 0.87,0 h 145.38 c 17.92,0 35.19667,1.1166667 51.83,3.35 z m 46.8,291.6 c -9.99333,12.60667 -21.80667,22.43667 -35.44,29.49 -7.7,3.98 -15.93,6.35333 -24.69,7.12 -1.44,0.12667 -8.10333,0.19 -19.99,0.19 H 92.75 c -0.276142,0 -0.5,-0.22386 -0.5,-0.5 V 88.93 c 0,-0.375554 0.304446,-0.68 0.68,-0.68 21.29333,0 42.56667,0.08 63.82,0.24 4.41333,0.03333 8.82667,0.16 13.24,0.38 26.93333,1.36 52.48333,7.956667 76.65,19.79 22.32,10.92667 41.33667,25.64333 57.05,44.15 18.5,21.79333 29.94,46.79667 34.32,75.01 1.04667,6.72667 1.59,13.37 1.63,19.93 0.13333,20.16667 -3.77667,39.61667 -11.73,58.35 -6.27333,14.76 -14.14,27.66333 -23.6,38.71 -20.54667,23.98667 -46.08,41.59667 -76.6,52.83 -21.56,7.92667 -42.71333,11.96333 -63.46,12.11 -40.66667,0.28667 -81.66,0.37 -122.98,0.25 -0.423581,-0.006 -0.769959,0.34081 -0.77,0.77 v 40.21 c 0,0.28719 0.232812,0.52 0.52,0.52 37.34,0.0933 74.60333,0.03 111.79,-0.19 38.59333,-0.22667 76.15667,-7.77667 112.69,-22.65 14.71333,-5.99333 28.77,-13.24333 42.17,-21.75 19.82,-12.57333 37.04333,-27.92333 51.67,-46.05 4.30667,-5.33333 8.19333,-10.74667 11.66,-16.24 17.30667,-27.4 26.55333,-57.60667 27.74,-90.62 1.91333,-53.04667 -15.22,-98.49333 -51.4,-136.34 C 336.4,106.22 324.34333,96.113333 311.17,87.34 293.85,75.82 275.45,66.533333 255.97,59.48 249.89667,57.28 243.56667,55.183333 236.98,53.19 219.29333,47.85 201.22,44.26 182.76,42.42 169.90667,41.14 155.32,40.5 139,40.5 H 41.06 c -0.309279,0 -0.56,0.250721 -0.56,0.56 v 324.69 c 0,1.40667 -0.05333,2.49 -0.16,3.25 -0.03637,0.26313 0.156351,0.49816 0.41,0.5 37.666667,0.11333 75.33333,0.0533 113,-0.18 8.96,-0.06 15.62333,-0.29 19.99,-0.69 19.16,-1.77333 37.39333,-6.83667 54.7,-15.19 21.10667,-10.19333 38.39667,-24.98667 51.87,-44.38 14.41333,-20.74 20.49,-43.79 18.23,-69.15 -0.6,-6.72 -1.81667,-13.26 -3.65,-19.62 -5.78,-20.08667 -16.64,-37.45333 -32.58,-52.1 -18.45333,-16.96 -39.62667,-28.41 -63.52,-34.35 -8.96667,-2.23333 -18.06333,-3.66 -27.29,-4.28 -12.68,-0.86 -25.37,-1.07333 -38.07,-0.64 -0.27383,0.0108 -0.49021,0.23596 -0.49,0.51 l -0.19,164.02 c 0,0.5799 0.47458,1.05 1.06,1.05 l 110.87,0.06 c 0.34,0 0.40667,0.13 0.2,0.39 z"
     id="path140"
     sodipodi:nodetypes="ccccscccccccsssssccccsssssccccccccccccsccccccccccccssssccccccccccccccccc" />
</svg>
