<?xml version="1.0" encoding="UTF-8" standalone="no"?>
<!DOCTYPE svg PUBLIC "-//W3C//DTD SVG 1.1//EN" "http://www.w3.org/Graphics/SVG/1.1/DTD/svg11.dtd">
<svg xmlns="http://www.w3.org/2000/svg" version="1.1" viewBox="0 0 611 399">
<path fill="rgb(0,0,0)" fill-opacity="1.000" d="M 0.00 0.00 Q 305.50 0.00 611.00 0.00 Q 611.00 199.50 611.00 399.00 Q 305.50 399.00 0.00 399.00 Q 0.00 199.50 0.00 0.00 Z M 94.07 164.68 Q 78.15 154.42 58.25 154.19 Q 41.50 154.00 24.86 154.00 A 0.61 0.61 89.8 0 0 24.25 154.61 L 23.99 257.97 A 1.03 1.02 90.0 0 0 25.01 259.00 Q 40.00 259.00 54.25 258.99 Q 64.78 258.99 74.99 256.45 Q 87.89 253.24 98.11 245.46 Q 106.62 238.98 111.47 230.77 Q 116.89 221.59 117.75 210.75 Q 119.23 192.10 108.77 178.09 Q 103.12 170.52 94.07 164.68 Z M 201.96 227.56 Q 202.08 231.00 200.69 233.19 Q 197.48 238.24 191.89 239.81 Q 187.00 241.17 182.13 239.74 Q 176.94 238.21 173.81 233.69 Q 166.22 222.69 170.23 211.03 Q 172.90 203.27 178.35 199.50 Q 185.01 194.90 193.94 198.31 Q 198.64 200.11 202.23 205.34 A 0.40 0.39 50.0 0 0 202.85 205.40 L 212.31 195.22 A 1.14 1.11 44.8 0 0 212.29 193.69 Q 205.36 186.31 196.43 183.88 Q 189.75 182.06 182.47 182.65 Q 175.00 183.26 168.81 187.06 Q 160.00 192.48 155.62 201.58 Q 151.57 209.99 151.78 220.03 Q 152.09 234.03 161.64 244.36 Q 166.55 249.66 172.38 252.33 Q 178.69 255.24 185.75 255.25 Q 198.98 255.27 209.31 246.56 Q 213.74 242.83 216.30 236.65 Q 218.19 232.08 218.47 226.08 Q 218.71 220.82 218.17 215.18 A 0.48 0.47 -2.6 0 0 217.69 214.75 L 186.71 214.69 A 0.71 0.70 -0.0 0 0 186.00 215.39 L 186.00 226.15 A 0.86 0.85 0.3 0 0 186.85 227.00 L 201.44 227.05 A 0.53 0.53 89.4 0 1 201.96 227.56 Z M 144.50 184.20 A 0.44 0.44 0 0 0 144.06 183.76 L 129.18 183.76 A 0.44 0.44 0 0 0 128.74 184.20 L 128.74 253.54 A 0.44 0.44 0 0 0 129.18 253.98 L 144.06 253.98 A 0.44 0.44 0 0 0 144.50 253.54 L 144.50 184.20 Z M 241.26 184.19 A 0.43 0.43 0 0 0 240.83 183.76 L 225.93 183.76 A 0.43 0.43 0 0 0 225.50 184.19 L 225.50 253.55 A 0.43 0.43 0 0 0 225.93 253.98 L 240.83 253.98 A 0.43 0.43 0 0 0 241.26 253.55 L 241.26 184.19 Z M 267.56 211.65 Q 267.56 209.94 268.48 211.38 L 295.54 253.52 A 0.93 0.89 72.5 0 0 296.32 253.95 L 311.07 253.84 A 0.53 0.51 -90.0 0 0 311.57 253.32 L 311.74 184.65 A 0.90 0.89 0.3 0 0 310.84 183.75 L 296.53 183.75 A 0.78 0.78 -89.9 0 0 295.75 184.53 L 295.75 226.77 Q 295.75 227.62 295.29 226.90 L 268.04 184.41 A 1.43 1.40 73.5 0 0 266.85 183.75 L 252.49 183.75 A 0.99 0.99 -45.0 0 0 251.50 184.74 L 251.50 252.99 A 0.95 0.94 -90.0 0 0 252.44 253.94 L 266.84 254.00 A 0.67 0.66 90.0 0 0 267.50 253.33 L 267.56 211.65 Z M 342.47 184.62 L 314.64 253.44 A 0.40 0.39 -78.5 0 0 315.00 253.99 L 331.07 253.83 A 0.75 0.72 -79.5 0 0 331.75 253.34 L 336.38 240.87 A 1.31 1.24 -79.0 0 1 337.58 240.01 L 363.06 240.18 A 0.73 0.73 79.5 0 1 363.74 240.65 L 368.57 253.29 A 0.78 0.72 78.9 0 0 369.24 253.78 L 384.82 253.97 A 0.77 0.75 79.0 0 0 385.51 252.91 L 357.75 184.41 A 0.81 0.73 78.3 0 0 357.07 183.91 L 343.68 183.78 A 1.34 1.27 -78.2 0 0 342.47 184.62 Z M 388.46 233.68 Q 388.31 243.56 388.55 253.06 A 0.97 0.97 89.1 0 0 389.52 254.00 L 403.90 254.00 A 0.69 0.67 90.0 0 0 404.57 253.31 L 404.68 226.43 A 0.52 0.51 0.0 0 1 405.20 225.92 L 426.71 225.77 A 0.75 0.75 -7.8 0 0 427.45 225.01 L 427.19 212.31 A 0.52 0.51 0.0 0 0 426.68 211.81 L 405.18 211.57 A 0.53 0.51 0.0 0 1 404.65 211.06 L 404.65 198.44 A 0.54 0.52 -0.6 0 1 405.18 197.92 L 428.33 197.76 A 0.93 0.91 -0.3 0 0 429.25 196.85 L 429.25 184.41 A 0.66 0.66 -0.1 0 0 428.59 183.75 L 389.38 183.75 A 0.71 0.70 -90.0 0 0 388.68 184.46 Q 388.84 209.37 388.46 233.68 Z M 453.07 239.20 L 453.07 184.44 A 0.53 0.52 -89.4 0 0 452.56 183.91 L 437.79 183.81 A 0.62 0.60 -89.5 0 0 437.18 184.43 L 437.19 253.40 A 0.60 0.59 90.0 0 0 437.78 254.00 L 476.40 254.00 A 0.85 0.85 0.2 0 0 477.25 253.15 L 477.25 240.55 A 0.57 0.56 0.0 0 0 476.68 239.99 L 453.56 239.71 A 0.51 0.49 90.0 0 1 453.07 239.20 Z M 485.18 253.36 A 0.64 0.64 45.0 0 0 485.82 254.00 L 500.22 254.00 A 0.78 0.78 -89.9 0 0 501.00 253.22 L 501.25 184.70 A 0.95 0.94 -90.0 0 0 500.31 183.75 L 485.99 183.75 A 0.92 0.92 89.7 0 0 485.07 184.68 L 485.18 253.36 Z M 538.96 201.88 L 526.98 184.22 A 0.99 0.93 -16.3 0 0 526.18 183.81 L 509.27 183.75 Q 507.72 183.75 508.60 185.03 L 529.60 215.67 A 0.94 0.93 -44.7 0 1 529.59 216.73 L 503.75 253.35 Q 503.29 254.00 504.09 254.00 L 522.26 254.00 A 1.81 1.81 17.3 0 0 523.75 253.22 L 539.10 230.94 A 0.83 0.82 44.9 0 1 540.45 230.94 L 556.15 253.41 A 0.97 0.95 72.3 0 0 556.94 253.83 L 576.17 253.94 Q 577.13 253.95 576.55 253.15 L 549.98 216.52 A 0.73 0.71 -46.0 0 1 549.98 215.68 L 572.16 184.22 Q 572.45 183.80 571.93 183.80 L 553.31 183.81 A 0.95 0.94 17.0 0 0 552.53 184.22 L 540.51 201.89 A 0.94 0.93 45.1 0 1 538.96 201.88 Z"/>
<path fill="rgb(245,0,0)" fill-opacity="1.000" d="M 108.77 178.09 Q 119.23 192.10 117.75 210.75 Q 116.89 221.59 111.47 230.77 Q 106.62 238.98 98.11 245.46 Q 87.89 253.24 74.99 256.45 Q 64.78 258.99 54.25 258.99 Q 40.00 259.00 25.01 259.00 A 1.03 1.02 -90.0 0 1 23.99 257.97 L 24.25 154.61 A 0.61 0.61 89.3 0 1 24.86 154.00 Q 41.50 154.00 58.25 154.19 Q 78.15 154.42 94.07 164.68 Q 103.12 170.52 108.77 178.09 Z M 74.86 217.05 Q 76.36 217.06 75.28 218.11 Q 71.78 221.51 67.83 223.30 Q 65.19 224.50 60.96 224.49 Q 53.11 224.47 44.68 224.57 A 0.67 0.67 -0.4 0 1 44.00 223.90 L 44.00 173.83 A 1.09 1.09 -0.5 0 1 45.07 172.74 Q 52.75 172.62 60.74 173.12 Q 76.83 174.11 87.77 185.71 Q 95.25 193.64 96.25 203.50 Q 97.90 219.70 85.52 230.76 Q 78.06 237.43 68.78 239.90 Q 63.94 241.19 52.10 241.24 Q 43.06 241.28 33.60 241.52 A 0.62 0.62 -1.0 0 0 33.00 242.14 L 33.00 249.73 A 0.51 0.51 0.6 0 0 33.50 250.24 Q 45.68 250.46 57.56 250.07 Q 66.94 249.76 72.78 248.18 Q 80.26 246.14 87.14 242.35 Q 98.49 236.09 103.94 226.69 Q 112.20 212.43 108.15 196.59 Q 106.23 189.08 101.81 183.14 Q 97.29 177.04 90.78 172.74 Q 81.35 166.51 70.57 164.09 Q 64.74 162.78 52.32 162.51 Q 43.42 162.31 33.94 162.24 A 0.95 0.93 -89.7 0 0 33.00 163.19 L 32.75 231.87 A 1.12 1.11 -89.7 0 0 33.86 233.00 Q 44.31 233.06 54.95 232.79 Q 65.05 232.54 69.95 230.79 Q 78.52 227.73 83.69 220.44 Q 88.75 213.30 87.68 204.51 Q 86.56 195.27 79.41 189.37 Q 68.04 180.00 53.19 181.39 A 0.55 0.54 -2.3 0 0 52.68 181.93 L 52.51 216.24 A 0.77 0.76 -0.0 0 0 53.28 217.00 L 74.86 217.05 Z"/>
<path fill="rgb(0,0,0)" fill-opacity="1.000" d="M 74.86 217.05 L 53.28 217.00 A 0.77 0.76 0.0 0 1 52.51 216.24 L 52.68 181.93 A 0.55 0.54 -2.3 0 1 53.19 181.39 Q 68.04 180.00 79.41 189.37 Q 86.56 195.27 87.68 204.51 Q 88.75 213.30 83.69 220.44 Q 78.52 227.73 69.95 230.79 Q 65.05 232.54 54.95 232.79 Q 44.31 233.06 33.86 233.00 A 1.12 1.11 -89.7 0 1 32.75 231.87 L 33.00 163.19 A 0.95 0.93 -89.7 0 1 33.94 162.24 Q 43.42 162.31 52.32 162.51 Q 64.74 162.78 70.57 164.09 Q 81.35 166.51 90.78 172.74 Q 97.29 177.04 101.81 183.14 Q 106.23 189.08 108.15 196.59 Q 112.20 212.43 103.94 226.69 Q 98.49 236.09 87.14 242.35 Q 80.26 246.14 72.78 248.18 Q 66.94 249.76 57.56 250.07 Q 45.68 250.46 33.50 250.24 A 0.51 0.51 0.6 0 1 33.00 249.73 L 33.00 242.14 A 0.62 0.62 -1.0 0 1 33.60 241.52 Q 43.06 241.28 52.10 241.24 Q 63.94 241.19 68.78 239.90 Q 78.06 237.43 85.52 230.76 Q 97.90 219.70 96.25 203.50 Q 95.25 193.64 87.77 185.71 Q 76.83 174.11 60.74 173.12 Q 52.75 172.62 45.07 172.74 A 1.09 1.09 -0.5 0 0 44.00 173.83 L 44.00 223.90 A 0.67 0.67 -0.4 0 0 44.68 224.57 Q 53.11 224.47 60.96 224.49 Q 65.19 224.50 67.83 223.30 Q 71.78 221.51 75.28 218.11 Q 76.36 217.06 74.86 217.05 Z"/>
<path fill="rgb(255,0,0)" fill-opacity="1.000" d="M 201.44 227.05 L 186.85 227.00 A 0.86 0.85 0.3 0 1 186.00 226.15 L 186.00 215.39 A 0.71 0.70 0.0 0 1 186.71 214.69 L 217.69 214.75 A 0.48 0.47 -2.6 0 1 218.17 215.18 Q 218.71 220.82 218.47 226.08 Q 218.19 232.08 216.30 236.65 Q 213.74 242.83 209.31 246.56 Q 198.98 255.27 185.75 255.25 Q 178.69 255.24 172.38 252.33 Q 166.55 249.66 161.64 244.36 Q 152.09 234.03 151.78 220.03 Q 151.57 209.99 155.62 201.58 Q 160.00 192.48 168.81 187.06 Q 175.00 183.26 182.47 182.65 Q 189.75 182.06 196.43 183.88 Q 205.36 186.31 212.29 193.69 A 1.14 1.11 44.8 0 1 212.31 195.22 L 202.85 205.40 A 0.40 0.39 50.0 0 1 202.23 205.34 Q 198.64 200.11 193.94 198.31 Q 185.01 194.90 178.35 199.50 Q 172.90 203.27 170.23 211.03 Q 166.22 222.69 173.81 233.69 Q 176.94 238.21 182.13 239.74 Q 187.00 241.17 191.89 239.81 Q 197.48 238.24 200.69 233.19 Q 202.08 231.00 201.96 227.56 A 0.53 0.53 89.4 0 0 201.44 227.05 Z"/>
<rect fill="rgb(255,0,0)" fill-opacity="1.000" x="-7.88" y="-35.11" width="15.76" height="70.22" rx="0.44" transform="translate(136.62,218.87) rotate(0.0)"/>
<rect fill="rgb(255,0,0)" fill-opacity="1.000" x="-7.88" y="-35.11" width="15.76" height="70.22" rx="0.43" transform="translate(233.38,218.87) rotate(0.0)"/>
<path fill="rgb(255,0,0)" fill-opacity="1.000" d="M 267.56 211.65 L 267.50 253.33 A 0.67 0.66 -90.0 0 1 266.84 254.00 L 252.44 253.94 A 0.95 0.94 -90.0 0 1 251.50 252.99 L 251.50 184.74 A 0.99 0.99 -45.0 0 1 252.49 183.75 L 266.85 183.75 A 1.43 1.40 73.5 0 1 268.04 184.41 L 295.29 226.90 Q 295.75 227.62 295.75 226.77 L 295.75 184.53 A 0.78 0.78 -89.9 0 1 296.53 183.75 L 310.84 183.75 A 0.90 0.89 0.3 0 1 311.74 184.65 L 311.57 253.32 A 0.53 0.51 -90.0 0 1 311.07 253.84 L 296.32 253.95 A 0.93 0.89 72.5 0 1 295.54 253.52 L 268.48 211.38 Q 267.56 209.94 267.56 211.65 Z"/>
<path fill="rgb(255,0,0)" fill-opacity="1.000" d="M 342.47 184.62 A 1.34 1.27 -78.2 0 1 343.68 183.78 L 357.07 183.91 A 0.81 0.73 78.3 0 1 357.75 184.41 L 385.51 252.91 A 0.77 0.75 79.0 0 1 384.82 253.97 L 369.24 253.78 A 0.78 0.72 78.9 0 1 368.57 253.29 L 363.74 240.65 A 0.73 0.73 79.5 0 0 363.06 240.18 L 337.58 240.01 A 1.31 1.24 -79.0 0 0 336.38 240.87 L 331.75 253.34 A 0.75 0.72 -79.5 0 1 331.07 253.83 L 315.00 253.99 A 0.40 0.39 -78.5 0 1 314.64 253.44 L 342.47 184.62 Z M 349.72 206.36 L 342.49 225.22 A 0.39 0.38 13.1 0 0 342.82 225.74 Q 350.13 226.42 357.45 225.73 A 0.39 0.37 77.0 0 0 357.76 225.21 L 350.63 206.37 Q 350.18 205.16 349.72 206.36 Z"/>
<path fill="rgb(255,0,0)" fill-opacity="1.000" d="M 388.46 233.68 Q 388.84 209.37 388.68 184.46 A 0.71 0.70 90.0 0 1 389.38 183.75 L 428.59 183.75 A 0.66 0.66 0.2 0 1 429.25 184.41 L 429.25 196.85 A 0.93 0.91 -0.3 0 1 428.33 197.76 L 405.18 197.92 A 0.54 0.52 -0.6 0 0 404.65 198.44 L 404.65 211.06 A 0.53 0.51 0.0 0 0 405.18 211.57 L 426.68 211.81 A 0.52 0.51 0.0 0 1 427.19 212.31 L 427.45 225.01 A 0.75 0.75 -7.1 0 1 426.71 225.77 L 405.20 225.92 A 0.52 0.51 0.0 0 0 404.68 226.43 L 404.57 253.31 A 0.69 0.67 -90.0 0 1 403.90 254.00 L 389.52 254.00 A 0.97 0.97 89.1 0 1 388.55 253.06 Q 388.31 243.56 388.46 233.68 Z"/>
<path fill="rgb(255,0,0)" fill-opacity="1.000" d="M 453.56 239.71 L 476.68 239.99 A 0.57 0.56 0.0 0 1 477.25 240.55 L 477.25 253.15 A 0.85 0.85 0.0 0 1 476.40 254.00 L 437.78 254.00 A 0.60 0.59 90.0 0 1 437.19 253.40 L 437.18 184.43 A 0.62 0.60 -89.5 0 1 437.79 183.81 L 452.56 183.91 A 0.53 0.52 -89.4 0 1 453.07 184.44 L 453.07 239.20 A 0.51 0.49 -90.0 0 0 453.56 239.71 Z"/>
<path fill="rgb(255,0,0)" fill-opacity="1.000" d="M 485.18 253.36 L 485.07 184.68 A 0.92 0.92 89.7 0 1 485.99 183.75 L 500.31 183.75 A 0.95 0.94 -90.0 0 1 501.25 184.70 L 501.00 253.22 A 0.78 0.78 -89.9 0 1 500.22 254.00 L 485.82 254.00 A 0.64 0.64 -45.0 0 1 485.18 253.36 Z"/>
<path fill="rgb(255,0,0)" fill-opacity="1.000" d="M 538.96 201.88 A 0.94 0.93 45.1 0 0 540.51 201.89 L 552.53 184.22 A 0.95 0.94 17.0 0 1 553.31 183.81 L 571.93 183.80 Q 572.45 183.80 572.16 184.22 L 549.98 215.68 A 0.73 0.71 -46.0 0 0 549.98 216.52 L 576.55 253.15 Q 577.13 253.95 576.17 253.94 L 556.94 253.83 A 0.97 0.95 72.3 0 1 556.15 253.41 L 540.45 230.94 A 0.83 0.82 44.9 0 0 539.10 230.94 L 523.75 253.22 A 1.81 1.81 17.3 0 1 522.26 254.00 L 504.09 254.00 Q 503.29 254.00 503.75 253.35 L 529.59 216.73 A 0.94 0.93 -44.7 0 0 529.60 215.67 L 508.60 185.03 Q 507.72 183.75 509.27 183.75 L 526.18 183.81 A 0.99 0.93 -16.3 0 1 526.98 184.22 L 538.96 201.88 Z"/>
<path fill="rgb(0,0,0)" fill-opacity="1.000" d="M 349.72 206.36 Q 350.18 205.16 350.63 206.37 L 357.76 225.21 A 0.39 0.37 77.0 0 1 357.45 225.73 Q 350.13 226.42 342.82 225.74 A 0.39 0.38 13.1 0 1 342.49 225.22 L 349.72 206.36 Z"/>
</svg>