<?xml version="1.0" encoding="UTF-8" standalone="no"?>
<!DOCTYPE svg PUBLIC "-//W3C//DTD SVG 1.1//EN" "http://www.w3.org/Graphics/SVG/1.1/DTD/svg11.dtd">
<svg xmlns="http://www.w3.org/2000/svg" version="1.1" viewBox="0 0 749 708">
<path fill="rgb(0,0,0)" fill-opacity="1.000" d="M 0.00 0.00 Q 374.50 0.00 749.00 0.00 Q 749.00 354.00 749.00 708.00 Q 374.50 708.00 0.00 708.00 Q 0.00 354.00 0.00 0.00 Z M 62.22 692.81 Q 158.22 693.14 254.00 692.91 Q 288.72 692.82 315.25 690.25 Q 366.04 685.33 417.70 668.35 Q 463.10 653.44 504.01 628.76 Q 536.51 609.15 564.32 583.32 Q 615.36 535.93 641.60 471.81 Q 645.36 462.63 648.37 453.00 Q 673.54 372.52 656.38 289.07 Q 646.20 239.53 620.69 197.06 Q 596.46 156.74 561.19 124.68 Q 554.12 118.25 545.94 111.75 Q 494.23 70.60 431.94 47.67 Q 387.89 31.46 341.48 24.36 Q 301.48 18.24 261.00 18.24 Q 162.00 18.25 62.52 18.25 Q 60.56 18.25 60.56 20.21 L 60.50 691.08 A 1.73 1.73 0.2 0 0 62.22 692.81 Z"/>
<path fill="rgb(219,3,4)" fill-opacity="1.000" d="M 62.22 692.81 A 1.73 1.73 0.2 0 1 60.50 691.08 L 60.56 20.21 Q 60.56 18.25 62.52 18.25 Q 162.00 18.25 261.00 18.24 Q 301.48 18.24 341.48 24.36 Q 387.89 31.46 431.94 47.67 Q 494.23 70.60 545.94 111.75 Q 554.12 118.25 561.19 124.68 Q 596.46 156.74 620.69 197.06 Q 646.20 239.53 656.38 289.07 Q 673.54 372.52 648.37 453.00 Q 645.36 462.63 641.60 471.81 Q 615.36 535.93 564.32 583.32 Q 536.51 609.15 504.01 628.76 Q 463.10 653.44 417.70 668.35 Q 366.04 685.33 315.25 690.25 Q 288.72 692.82 254.00 692.91 Q 158.22 693.14 62.22 692.81 Z M 396.21 422.91 Q 380.54 442.54 358.81 456.56 Q 335.45 471.64 309.24 472.98 Q 308.89 473.00 289.24 473.00 Q 239.26 473.00 188.15 473.00 A 0.84 0.84 -0.3 0 1 187.31 472.16 L 187.25 140.26 A 0.96 0.95 -0.3 0 1 188.20 139.31 Q 216.09 139.09 244.25 139.38 Q 249.49 139.43 264.24 139.38 Q 291.40 139.29 312.75 141.75 Q 369.33 148.28 419.99 179.06 Q 445.76 194.71 468.06 217.94 Q 502.49 253.79 517.16 300.16 Q 527.57 333.06 526.25 367.00 Q 524.84 403.40 510.67 436.96 Q 506.66 446.44 502.16 455.04 Q 489.39 479.39 469.44 500.19 Q 431.58 539.64 382.01 559.78 Q 349.40 573.02 318.25 577.50 Q 299.39 580.21 276.33 580.11 Q 260.77 580.04 260.67 580.05 Q 194.59 580.41 128.50 580.12 Q 122.49 580.10 117.26 580.45 A 1.32 1.31 -2.1 0 0 116.02 581.77 L 116.25 636.77 A 0.43 0.42 0.0 0 0 116.68 637.19 Q 184.67 637.11 252.76 637.01 Q 270.16 636.99 272.76 636.95 Q 356.66 635.53 433.74 601.97 Q 469.41 586.43 498.31 565.31 Q 528.78 543.05 551.19 515.69 Q 606.44 448.23 607.55 360.50 Q 607.68 350.22 607.22 340.51 Q 604.71 287.65 580.88 240.64 Q 576.48 231.97 570.98 223.28 Q 537.24 170.02 483.85 135.59 Q 448.36 112.71 406.50 98.00 Q 352.62 79.07 297.49 75.40 Q 272.82 73.75 243.75 73.75 Q 180.75 73.75 116.91 73.75 A 0.85 0.85 0.0 0 0 116.06 74.60 L 115.94 524.24 A 0.51 0.51 0.2 0 0 116.45 524.75 Q 197.97 525.01 279.00 524.34 Q 291.50 524.23 298.98 523.51 Q 329.30 520.60 358.25 509.50 Q 405.97 491.21 437.76 451.74 Q 475.20 405.28 469.93 346.43 Q 469.03 336.42 466.66 326.72 Q 455.70 281.99 421.75 250.25 Q 371.36 203.14 301.98 196.68 Q 273.92 194.07 244.21 195.05 A 1.25 1.25 -0.9 0 0 243.00 196.30 L 242.75 420.49 A 1.51 1.51 -45.0 0 0 244.26 422.00 Q 298.90 422.00 353.75 422.00 Q 354.70 422.00 373.75 422.25 Q 384.63 422.39 395.75 421.98 Q 396.99 421.94 396.21 422.91 Z"/>
<path fill="rgb(0,0,0)" fill-opacity="1.000" d="M 396.21 422.91 Q 396.99 421.94 395.75 421.98 Q 384.63 422.39 373.75 422.25 Q 354.70 422.00 353.75 422.00 Q 298.90 422.00 244.26 422.00 A 1.51 1.51 -45.0 0 1 242.75 420.49 L 243.00 196.30 A 1.25 1.25 -0.9 0 1 244.21 195.05 Q 273.92 194.07 301.98 196.68 Q 371.36 203.14 421.75 250.25 Q 455.70 281.99 466.66 326.72 Q 469.03 336.42 469.93 346.43 Q 475.20 405.28 437.76 451.74 Q 405.97 491.21 358.25 509.50 Q 329.30 520.60 298.98 523.51 Q 291.50 524.23 279.00 524.34 Q 197.97 525.01 116.45 524.75 A 0.51 0.51 -0.4 0 1 115.94 524.24 L 116.06 74.60 A 0.85 0.85 45.0 0 1 116.91 73.75 Q 180.75 73.75 243.75 73.75 Q 272.82 73.75 297.49 75.40 Q 352.62 79.07 406.50 98.00 Q 448.36 112.71 483.85 135.59 Q 537.24 170.02 570.98 223.28 Q 576.48 231.97 580.88 240.64 Q 604.71 287.65 607.22 340.51 Q 607.68 350.22 607.55 360.50 Q 606.44 448.23 551.19 515.69 Q 528.78 543.05 498.31 565.31 Q 469.41 586.43 433.74 601.97 Q 356.66 635.53 272.76 636.95 Q 270.16 636.99 252.76 637.01 Q 184.67 637.11 116.68 637.19 A 0.43 0.42 -0.0 0 1 116.25 636.77 L 116.02 581.77 A 1.32 1.31 -2.1 0 1 117.26 580.45 Q 122.49 580.10 128.50 580.12 Q 194.59 580.41 260.67 580.05 Q 260.77 580.04 276.33 580.11 Q 299.39 580.21 318.25 577.50 Q 349.40 573.02 382.01 559.78 Q 431.58 539.64 469.44 500.19 Q 489.39 479.39 502.16 455.04 Q 506.66 446.44 510.67 436.96 Q 524.84 403.40 526.25 367.00 Q 527.57 333.06 517.16 300.16 Q 502.49 253.79 468.06 217.94 Q 445.76 194.71 419.99 179.06 Q 369.33 148.28 312.75 141.75 Q 291.40 139.29 264.24 139.38 Q 249.49 139.43 244.25 139.38 Q 216.09 139.09 188.20 139.31 A 0.96 0.95 -0.3 0 0 187.25 140.26 L 187.31 472.16 A 0.84 0.84 0.1 0 0 188.15 473.00 Q 239.26 473.00 289.24 473.00 Q 308.89 473.00 309.24 472.98 Q 335.45 471.64 358.81 456.56 Q 380.54 442.54 396.21 422.91 Z"/>
</svg>