<?xml version="1.0" encoding="UTF-8" standalone="no"?>
<!DOCTYPE svg PUBLIC "-//W3C//DTD SVG 1.1//EN" "http://www.w3.org/Graphics/SVG/1.1/DTD/svg11.dtd">
<svg xmlns="http://www.w3.org/2000/svg" version="1.1" viewBox="0 0 566 555">
<path fill="rgb(255,255,255)" fill-opacity="1.000" d="M 0.00 0.00 Q 283.00 0.00 566.00 0.00 Q 566.00 277.50 566.00 555.00 Q 283.00 555.00 0.00 555.00 Q 0.00 277.50 0.00 0.00 Z M 485.9208 6.3586 A 0.27 0.27 0 0 0 485.6527 6.0867 L 469.4131 5.9733 A 0.27 0.27 0 0 0 469.1412 6.2414 L 469.1392 6.5214 A 0.27 0.27 0 0 0 469.4073 6.7933 L 485.6469 6.9067 A 0.27 0.27 0 0 0 485.9188 6.6386 L 485.9208 6.3586 Z M 564.96 6.37 A 0.25 0.25 0 0 0 564.71 6.12 L 540.37 6.12 A 0.25 0.25 0 0 0 540.12 6.37 L 540.12 6.39 A 0.25 0.25 0 0 0 540.37 6.64 L 564.71 6.64 A 0.25 0.25 0 0 0 564.96 6.39 L 564.96 6.37 Z M 255.33 25.10 Q 230.38 21.75 203.50 21.75 Q 131.12 21.75 58.12 21.75 A 0.87 0.87 -88.6 0 0 57.25 22.62 L 57.25 512.87 A 0.88 0.88 -0.7 0 0 58.13 513.75 Q 122.75 513.75 187.75 513.89 Q 212.34 513.95 229.25 513.00 Q 265.48 510.97 302.60 500.69 Q 347.04 488.38 385.98 463.75 Q 403.75 452.52 420.69 437.44 Q 463.21 399.58 482.93 347.17 Q 486.42 337.89 488.97 328.14 Q 502.58 276.14 492.38 222.77 Q 483.04 173.90 453.53 133.98 Q 430.00 102.16 396.56 78.94 Q 359.62 53.28 318.11 39.56 Q 287.39 29.40 255.33 25.10 Z"/>
<rect fill="rgb(255,255,255)" fill-opacity="1.000" x="-8.39" y="-0.41" width="16.78" height="0.82" rx="0.27" transform="translate(477.53,6.44) rotate(0.4)"/>
<rect fill="rgb(255,255,255)" fill-opacity="1.000" x="-12.42" y="-0.26" width="24.84" height="0.52" rx="0.25" transform="translate(552.54,6.38) rotate(0.0)"/>
<path fill="rgb(219,3,4)" fill-opacity="1.000" d="M 255.33 25.10 Q 287.39 29.40 318.11 39.56 Q 359.62 53.28 396.56 78.94 Q 430.00 102.16 453.53 133.98 Q 483.04 173.90 492.38 222.77 Q 502.58 276.14 488.97 328.14 Q 486.42 337.89 482.93 347.17 Q 463.21 399.58 420.69 437.44 Q 403.75 452.52 385.98 463.75 Q 347.04 488.38 302.60 500.69 Q 265.48 510.97 229.25 513.00 Q 212.34 513.95 187.75 513.89 Q 122.75 513.75 58.13 513.75 A 0.88 0.88 -2.0 0 1 57.25 512.87 L 57.25 22.62 A 0.87 0.87 -88.6 0 1 58.12 21.75 Q 131.12 21.75 203.50 21.75 Q 230.38 21.75 255.33 25.10 Z M 302.13 316.70 Q 287.14 335.61 266.69 346.19 Q 255.14 352.16 242.00 353.31 Q 239.84 353.50 222.01 353.50 Q 186.00 353.50 150.00 353.50 A 0.50 0.50 45.0 0 1 149.50 353.00 L 149.50 110.68 A 0.68 0.68 -45.0 0 1 150.18 110.00 Q 182.12 110.00 214.00 110.24 Q 220.62 110.29 227.24 110.62 Q 267.64 112.66 303.89 130.41 Q 337.37 146.80 360.94 174.56 Q 388.69 207.25 395.26 249.57 Q 396.83 259.66 396.89 269.50 Q 397.09 299.75 385.16 327.85 Q 375.75 349.99 361.56 366.56 Q 330.74 402.54 284.96 419.39 Q 252.62 431.28 221.50 431.50 Q 160.50 431.93 98.52 431.75 A 0.77 0.76 -89.6 0 0 97.75 432.52 L 97.75 472.73 A 0.52 0.52 0.0 0 0 98.27 473.25 Q 154.28 473.39 210.06 473.06 Q 267.95 472.72 322.75 450.41 Q 344.82 441.42 364.92 428.66 Q 394.65 409.80 416.59 382.61 Q 423.05 374.61 428.25 366.37 Q 454.21 325.27 455.99 275.75 Q 458.86 196.18 404.59 139.41 Q 388.18 122.25 368.42 109.09 Q 342.44 91.81 313.22 81.23 Q 304.11 77.93 294.23 74.94 Q 267.70 66.93 240.01 64.17 Q 220.73 62.25 196.25 62.25 Q 147.38 62.25 98.31 62.25 A 0.56 0.56 0.0 0 0 97.75 62.81 Q 97.75 225.50 97.75 387.50 Q 97.75 389.61 97.59 390.75 A 0.44 0.42 -85.8 0 0 98.00 391.25 Q 154.50 391.42 211.00 391.07 Q 224.44 390.98 230.99 390.38 Q 259.73 387.72 285.69 375.19 Q 317.35 359.90 337.56 330.81 Q 359.18 299.70 355.79 261.66 Q 354.89 251.58 352.14 242.04 Q 343.47 211.91 319.56 189.94 Q 291.88 164.50 256.04 155.59 Q 242.59 152.24 228.75 151.31 Q 209.73 150.02 190.68 150.67 A 0.51 0.51 -1.2 0 0 190.19 151.18 L 190.00 315.20 A 1.06 1.05 -0.0 0 0 191.06 316.25 L 301.93 316.31 Q 302.44 316.31 302.13 316.70 Z"/>
<path fill="rgb(255,255,255)" fill-opacity="1.000" d="M 301.93 316.31 L 191.06 316.25 A 1.06 1.05 -0.0 0 1 190.00 315.20 L 190.19 151.18 A 0.51 0.51 -1.2 0 1 190.68 150.67 Q 209.73 150.02 228.75 151.31 Q 242.59 152.24 256.04 155.59 Q 291.88 164.50 319.56 189.94 Q 343.47 211.91 352.14 242.04 Q 354.89 251.58 355.79 261.66 Q 359.18 299.70 337.56 330.81 Q 317.35 359.90 285.69 375.19 Q 259.73 387.72 230.99 390.38 Q 224.44 390.98 211.00 391.07 Q 154.50 391.42 98.00 391.25 A 0.44 0.42 -85.8 0 1 97.59 390.75 Q 97.75 389.61 97.75 387.50 Q 97.75 225.50 97.75 62.81 A 0.56 0.56 0.0 0 1 98.31 62.25 Q 147.38 62.25 196.25 62.25 Q 220.73 62.25 240.01 64.17 Q 267.70 66.93 294.23 74.94 Q 304.11 77.93 313.22 81.23 Q 342.44 91.81 368.42 109.09 Q 388.18 122.25 404.59 139.41 Q 458.86 196.18 455.99 275.75 Q 454.21 325.27 428.25 366.37 Q 423.05 374.61 416.59 382.61 Q 394.65 409.80 364.92 428.66 Q 344.82 441.42 322.75 450.41 Q 267.95 472.72 210.06 473.06 Q 154.28 473.39 98.27 473.25 A 0.52 0.52 0.0 0 1 97.75 472.73 L 97.75 432.52 A 0.77 0.76 -89.6 0 1 98.52 431.75 Q 160.50 431.93 221.50 431.50 Q 252.62 431.28 284.96 419.39 Q 330.74 402.54 361.56 366.56 Q 375.75 349.99 385.16 327.85 Q 397.09 299.75 396.89 269.50 Q 396.83 259.66 395.26 249.57 Q 388.69 207.25 360.94 174.56 Q 337.37 146.80 303.89 130.41 Q 267.64 112.66 227.24 110.62 Q 220.62 110.29 214.00 110.24 Q 182.12 110.00 150.18 110.00 A 0.68 0.68 0.0 0 0 149.50 110.68 L 149.50 353.00 A 0.50 0.50 -45.0 0 0 150.00 353.50 Q 186.00 353.50 222.01 353.50 Q 239.84 353.50 242.00 353.31 Q 255.14 352.16 266.69 346.19 Q 287.14 335.61 302.13 316.70 Q 302.44 316.31 301.93 316.31 Z"/>
</svg>