<?xml version="1.0" encoding="UTF-8" standalone="no"?>
<!DOCTYPE svg PUBLIC "-//W3C//DTD SVG 1.1//EN" "http://www.w3.org/Graphics/SVG/1.1/DTD/svg11.dtd">
<svg xmlns="http://www.w3.org/2000/svg" version="1.1" viewBox="0 0 1467 757">
<path fill="#f40000" d="M 208.81,419.56 Q 190.97,430.39 172.20,435.51 Q 171.69,435.65 170.12,436.51 Q 169.40,436.91 168.56,436.99 Q 167.43,437.10 166.97,437.24 Q 162.38,438.65 157.62,439.26 Q 156.19,439.45 153.53,440.34 Q 151.48,441.03 149.25,441.03 Q 146.60,441.03 144.03,441.58 Q 140.73,442.27 138.88,442.36 Q 130.98,442.72 123.10,443.44 Q 114.25,444.25 107.35,444.25 Q 80.17,444.25 53.00,444.22 Q 49.36,444.21 45.24,443.69 A 1.17,1.15 82.1 0 1 44.34,443.00 Q 43.65,441.39 43.29,439.71 Q 43.00,438.38 43.02,436.27 Q 43.17,423.26 43.26,410.25 Q 44.00,302.13 44.00,192.41 Q 44.00,190.18 46.22,189.94 Q 48.36,189.70 51.69,189.71 Q 84.22,189.85 116.75,189.75 Q 125.46,189.72 144.28,191.25 Q 146.66,191.45 150.11,192.33 Q 153.43,193.18 156.00,193.25 Q 158.00,193.30 159.60,193.81 Q 161.71,194.47 163.05,194.65 Q 165.72,194.99 168.16,196.12 Q 170.22,197.06 172.50,197.02 A 1.64,1.64 -29.1 0 1 173.42,197.28 Q 174.92,198.22 176.62,198.64 Q 179.16,199.26 180.35,199.76 Q 181.80,200.37 184.06,201.19 Q 197.60,206.11 211.38,214.54 Q 243.92,234.46 260.25,267.75 Q 263.55,274.47 265.99,284.03 Q 266.02,284.15 267.16,287.48 Q 267.63,288.85 267.73,290.32 Q 267.84,291.80 268.28,293.08 Q 269.45,296.43 269.25,300.75 Q 269.12,303.51 269.79,306.96 Q 270.52,310.70 270.47,313.12 Q 270.33,319.19 269.70,325.23 Q 269.68,325.41 269.31,332.79 Q 269.16,335.77 268.39,338.67 Q 267.29,342.80 267.27,342.88 Q 260.90,370.01 244.31,389.56 Q 229.50,407.01 208.81,419.56 ZM 217.19,243.29 Q 200.68,229.12 178.25,220.25 Q 171.49,217.58 168.28,216.54 Q 168.05,216.46 165.15,215.40 Q 163.58,214.82 161.91,214.61 Q 160.35,214.42 158.76,213.77 Q 157.12,213.09 155.50,213.00 Q 153.03,212.86 150.91,212.27 Q 148.19,211.50 146.45,211.44 Q 140.03,211.22 133.67,210.42 Q 126.21,209.48 121.26,209.42 Q 95.90,209.10 70.55,209.24 Q 70.46,209.24 68.46,209.13 Q 64.01,208.88 64.01,213.75 Q 64.00,295.37 64.00,378.15 Q 64.00,379.94 65.72,380.46 Q 67.96,381.14 71.25,381.13 Q 101.24,381.06 131.21,380.32 Q 133.32,380.27 136.66,379.41 Q 139.57,378.67 142.25,378.75 Q 144.58,378.82 146.56,378.26 Q 150.23,377.20 150.55,377.12 Q 152.92,376.52 156.56,375.06 Q 179.78,365.76 191.14,345.70 Q 196.21,336.76 197.71,326.95 Q 199.92,312.54 195.07,298.88 Q 191.83,289.74 184.95,281.81 Q 173.72,268.87 157.53,261.86 Q 154.67,260.62 151.77,259.49 Q 150.84,259.13 149.14,258.92 Q 147.76,258.75 146.49,258.23 Q 144.23,257.33 142.67,257.14 Q 140.38,256.87 138.17,256.23 Q 135.58,255.48 133.71,255.41 Q 126.03,255.12 118.34,255.23 Q 118.24,255.23 116.16,255.15 Q 112.41,254.99 111.79,257.98 Q 111.75,258.19 111.75,263.03 Q 111.75,300.22 111.75,337.40 Q 111.75,339.65 112.26,340.50 Q 113.17,342.04 115.50,342.00 Q 131.33,341.75 152.58,342.40 Q 153.76,342.44 158.89,342.12 Q 162.08,341.93 165.25,342.50 Q 167.68,342.94 166.19,344.69 Q 163.77,347.51 160.65,349.50 Q 157.20,351.70 157.07,351.78 Q 153.85,353.96 150.41,355.75 Q 147.24,357.40 143.16,358.28 Q 136.68,359.68 134.25,359.75 Q 113.87,360.35 93.94,359.76 Q 92.00,359.71 92.00,357.77 L 92.00,237.98 Q 92.00,235.37 94.62,235.31 Q 111.65,234.96 128.70,235.81 Q 131.41,235.94 135.76,236.59 Q 139.29,237.12 142.85,237.37 Q 144.75,237.50 147.49,238.36 Q 149.80,239.09 152.26,239.23 A 1.92,1.68 60.3 0 1 153.15,239.54 Q 154.63,240.53 156.33,240.85 Q 159.28,241.41 160.04,241.71 Q 162.66,242.78 165.26,243.89 Q 178.84,249.75 189.71,259.41 Q 197.75,266.55 203.47,273.89 Q 211.92,284.75 215.84,298.29 Q 216.08,299.09 216.25,301.27 Q 216.37,302.81 217.00,304.25 Q 218.20,307.01 218.08,310.00 Q 218.00,311.90 218.00,312.01 Q 218.00,318.75 218.00,325.50 Q 218.00,327.16 216.88,330.80 Q 216.47,332.14 216.31,334.41 Q 216.18,336.30 215.50,338.06 Q 214.34,341.08 214.32,341.12 Q 209.89,354.80 200.45,365.70 Q 184.30,384.35 161.56,393.58 Q 159.44,394.45 156.49,395.33 Q 153.92,396.11 151.35,396.89 Q 148.19,397.86 143.61,398.40 Q 140.51,398.76 137.46,399.44 Q 134.04,400.20 131.31,400.24 Q 109.08,400.61 86.84,400.52 Q 85.58,400.52 77.17,400.72 Q 72.33,400.84 67.50,400.53 A 1.56,1.36 26.1 0 0 66.57,400.78 Q 65.52,401.51 64.79,402.54 Q 64.06,403.57 64.02,405.28 Q 63.85,412.40 64.28,419.50 Q 64.50,423.00 68.25,423.00 Q 107.88,422.99 131.94,422.58 Q 135.20,422.52 140.48,421.61 Q 144.90,420.85 149.41,420.76 Q 151.29,420.72 153.44,419.97 Q 155.44,419.27 157.53,418.97 Q 160.76,418.51 162.81,417.77 Q 165.80,416.70 170.50,415.25 Q 190.54,409.07 208.72,396.48 Q 233.11,379.59 243.97,352.18 Q 244.92,349.79 245.97,346.37 Q 246.86,343.44 247.74,340.49 Q 249.22,335.58 249.72,331.50 Q 251.56,316.79 249.56,301.44 Q 249.18,298.47 248.41,296.07 Q 248.06,294.97 247.74,292.71 Q 247.55,291.29 246.94,289.31 Q 238.32,261.41 217.19,243.29 Z"/>
<path fill="#fe0000" d="M 364.44,389.31 Q 359.44,380.41 357.35,371.93 Q 357.32,371.80 356.49,369.57 Q 356.02,368.30 356.00,366.50 Q 355.98,364.80 355.18,361.96 Q 354.49,359.48 354.41,357.44 Q 354.09,348.47 354.10,339.50 Q 354.10,335.12 355.00,331.75 Q 355.70,329.12 355.94,326.81 Q 356.25,323.80 356.88,321.94 Q 357.89,318.98 358.83,316.00 Q 359.98,312.34 360.92,310.10 Q 374.66,277.67 407.30,264.04 Q 408.10,263.71 411.34,263.00 Q 413.21,262.59 414.84,261.53 A 1.92,1.62 -58.6 0 1 415.74,261.23 Q 418.83,261.12 421.84,260.52 Q 426.15,259.67 427.86,259.54 Q 442.16,258.45 456.26,261.06 Q 457.58,261.31 460.60,262.39 Q 462.04,262.91 463.56,263.20 Q 465.44,263.57 466.49,263.97 Q 483.57,270.44 496.69,283.09 Q 498.70,285.02 498.92,286.52 Q 499.23,288.69 497.31,290.81 Q 488.40,300.64 479.06,310.06 Q 479.00,310.13 478.38,310.87 Q 477.02,312.51 474.83,310.78 Q 474.20,310.28 473.68,309.66 Q 470.03,305.27 465.88,301.96 Q 461.78,298.69 456.51,296.46 Q 446.24,292.13 436.00,292.50 Q 431.61,292.66 426.36,294.49 Q 421.75,296.09 417.70,298.95 Q 408.40,305.49 402.44,315.44 Q 400.94,317.94 397.19,327.78 Q 396.43,329.75 395.84,332.86 Q 395.50,334.60 395.02,336.31 Q 394.40,338.48 394.24,339.75 Q 393.10,348.38 395.21,356.77 Q 395.25,356.96 395.96,360.78 Q 396.25,362.38 396.96,363.85 Q 397.82,365.63 398.15,366.81 Q 399.24,370.74 401.16,374.32 Q 402.88,377.52 405.24,381.26 Q 409.63,388.22 416.51,393.02 Q 420.74,395.98 425.76,397.20 Q 426.76,397.45 427.66,397.95 Q 428.69,398.53 429.50,398.63 Q 435.77,399.43 442.08,399.11 Q 442.20,399.10 445.43,399.07 Q 447.78,399.05 449.82,398.32 Q 450.69,398.01 451.54,397.67 Q 463.71,392.89 470.69,383.85 Q 473.35,380.39 474.50,376.72 Q 475.89,372.31 475.25,368.50 Q 474.67,365.05 471.01,365.36 Q 469.06,365.52 468.98,365.52 Q 454.35,365.80 439.75,365.03 A 1.77,1.47 -20.3 0 1 438.84,364.71 Q 436.80,363.14 436.89,360.53 Q 436.96,358.55 436.95,358.45 Q 436.57,349.20 437.50,339.99 Q 437.75,337.56 440.19,337.46 Q 448.32,337.14 456.89,337.27 Q 467.14,337.42 473.60,337.33 Q 489.18,337.09 504.75,337.51 Q 507.14,337.58 509.51,337.39 Q 513.51,337.08 513.62,340.48 Q 513.71,343.40 513.72,343.52 Q 515.38,355.55 513.74,367.55 Q 513.72,367.70 513.21,373.98 Q 513.01,376.50 512.25,378.92 Q 511.06,382.69 511.04,382.76 Q 506.30,399.64 493.98,411.18 Q 486.91,417.80 477.96,423.09 Q 469.26,428.24 459.35,430.77 Q 452.67,432.48 450.69,432.87 Q 447.75,433.45 444.73,433.53 Q 439.37,433.69 438.78,433.72 Q 426.55,434.40 414.96,431.25 Q 405.66,428.72 396.71,423.24 Q 376.58,410.93 364.44,389.31 Z"/>
<path fill="#fe0000" d="M 299.18,430.62 Q 297.23,429.41 297.25,427.12 Q 297.60,374.93 297.52,323.25 Q 297.51,317.48 297.35,303.25 Q 297.12,283.25 297.50,263.23 A 1.47,1.47 -0.4 0 1 298.92,261.79 Q 308.90,261.39 319.50,261.50 Q 327.19,261.58 329.51,261.33 Q 334.44,260.82 335.19,264.52 Q 335.26,264.84 335.24,269.99 Q 335.06,347.78 335.25,425.57 Q 335.25,425.65 335.36,427.44 Q 335.63,431.45 331.25,431.46 Q 317.38,431.50 303.50,431.64 Q 300.87,431.66 299.18,430.62 ZM 298.01,298.67 A 0.12 0.12 0.0 0 0 297.89,298.55 L 297.87,298.55 A 0.12 0.12 0.0 0 0 297.75,298.67 L 297.75,407.09 A 0.12 0.12 0.0 0 0 297.87,407.21 L 297.89,407.21 A 0.12 0.12 0.0 0 0 298.01,407.09 L 298.01,298.67 Z"/>
<path fill="#fe0000" d="M 546.81,261.79 Q 555.79,261.93 564.76,261.58 Q 567.51,261.48 568.61,262.17 Q 570.27,263.23 570.11,265.64 Q 569.99,267.31 569.99,267.35 Q 569.44,346.51 569.99,425.66 Q 569.99,425.72 570.10,427.34 Q 570.35,431.01 566.31,431.16 Q 550.27,431.74 534.78,430.78 Q 532.60,430.65 532.56,428.46 Q 532.46,421.34 532.46,414.25 Q 532.44,343.62 532.27,273.00 Q 532.26,268.19 532.94,263.42 A 2.03,2.02 4.1 0 1 534.95,261.69 Q 540.50,261.69 546.81,261.79 Z"/>
<path fill="#fe0000" d="M 1166.44,430.84 A 2.11,2.11 -3.0 0 1 1164.47,429.07 Q 1163.43,422.78 1163.42,417.75 Q 1163.28,345.50 1162.76,273.25 Q 1162.73,268.12 1164.45,262.60 A 1.21,1.21 -81.0 0 1 1165.62,261.75 Q 1181.46,261.79 1196.07,261.81 Q 1198.68,261.81 1199.67,262.45 Q 1201.24,263.45 1201.09,265.72 Q 1201.00,267.18 1201.00,267.28 Q 1201.00,299.02 1200.92,330.75 Q 1200.79,379.72 1200.94,427.99 Q 1200.95,431.17 1197.77,431.25 Q 1181.83,431.67 1166.44,430.84 Z"/>
<path fill="#fe0000" d="M 1259.00,319.94 Q 1249.71,306.34 1225.44,270.81 Q 1223.23,267.58 1222.30,266.13 Q 1220.78,263.79 1222.38,262.34 Q 1223.40,261.42 1225.36,261.59 Q 1226.67,261.71 1227.97,261.96 Q 1229.43,262.25 1230.57,262.25 Q 1246.42,262.30 1262.26,262.98 A 1.37,1.32 -21.8 0 1 1263.12,263.33 Q 1266.59,266.51 1269.75,271.75 Q 1273.05,277.21 1291.71,304.24 Q 1293.11,306.28 1294.27,306.77 Q 1295.67,307.36 1297.10,306.71 Q 1298.07,306.27 1298.98,304.86 Q 1310.96,286.32 1323.70,268.29 Q 1326.64,264.13 1326.67,264.10 Q 1328.43,262.41 1331.21,262.45 Q 1332.69,262.48 1332.79,262.48 Q 1339.77,262.27 1346.75,262.47 Q 1358.14,262.78 1369.50,262.00 Q 1373.65,261.71 1371.50,264.75 Q 1347.49,298.59 1323.55,332.47 Q 1323.49,332.56 1321.69,334.79 Q 1318.76,338.44 1320.43,342.29 Q 1320.78,343.10 1324.37,347.98 Q 1351.74,385.26 1378.95,423.18 Q 1380.08,424.76 1381.47,426.11 Q 1383.25,427.83 1382.49,429.56 A 1.30,1.06 -2.3 0 1 1381.79,430.18 Q 1378.64,431.40 1375.25,431.32 Q 1359.38,430.96 1343.50,431.07 Q 1338.20,431.10 1334.87,427.91 Q 1334.49,427.54 1329.82,420.89 Q 1314.06,398.42 1298.31,375.94 Q 1296.83,373.82 1294.56,374.65 Q 1293.26,375.12 1291.99,376.96 Q 1274.80,401.74 1256.97,427.79 Q 1255.83,429.46 1253.92,430.11 Q 1249.85,431.52 1245.00,431.44 Q 1233.50,431.25 1222.00,431.38 Q 1217.10,431.43 1212.63,430.80 Q 1210.31,430.48 1211.29,428.35 Q 1212.66,425.40 1214.59,422.83 Q 1216.85,419.82 1216.93,419.71 Q 1243.43,381.84 1270.06,344.06 Q 1272.89,340.06 1269.62,335.35 Q 1264.29,327.66 1259.00,319.94 Z"/>
<path fill="#fe0000" d="M 699.18,423.90 Q 683.98,400.74 669.09,377.37 Q 653.64,353.13 637.92,329.05 Q 634.55,323.89 633.46,329.99 Q 633.07,332.21 633.23,334.43 Q 633.52,338.52 633.53,338.59 Q 633.76,359.85 633.50,426.25 Q 633.48,431.20 629.00,431.22 Q 616.75,431.25 604.50,431.31 Q 600.75,431.33 597.98,430.21 Q 596.25,429.51 596.25,427.64 L 596.25,265.48 Q 596.25,262.85 598.88,262.70 Q 613.99,261.82 630.00,262.50 Q 633.25,262.64 635.17,264.46 Q 635.62,264.89 638.09,268.76 Q 666.86,313.80 695.63,358.85 Q 697.90,362.40 700.76,365.51 Q 702.38,367.27 703.25,365.04 Q 704.06,362.94 703.76,360.50 Q 703.21,356.01 703.42,351.51 Q 703.83,342.50 703.73,333.49 Q 703.59,320.65 703.65,315.49 Q 703.93,295.00 703.49,274.50 Q 703.38,269.23 704.00,263.98 A 1.70,1.70 -87.1 0 1 705.65,262.49 Q 721.00,262.25 736.75,262.50 Q 741.10,262.57 740.85,266.41 Q 740.75,268.04 740.74,268.10 Q 740.26,348.26 740.69,427.91 Q 740.70,430.66 737.95,430.69 Q 724.97,430.80 712.00,430.75 Q 709.13,430.74 707.14,430.55 Q 704.46,430.28 702.80,428.98 Q 701.41,427.89 700.52,426.30 Q 699.22,423.97 699.18,423.90 Z"/>
<path fill="#fe0000" d="M 967.31,328.69 Q 967.97,329.02 969.25,329.05 Q 993.88,329.56 1017.87,330.48 Q 1020.65,330.58 1020.79,333.36 Q 1021.30,344.21 1021.26,354.56 Q 1021.26,354.66 1021.48,357.42 Q 1021.64,359.37 1020.89,361.23 A 0.88,0.85 7.4 0 1 1020.19,361.75 Q 1017.55,362.05 1014.88,362.06 Q 1010.25,362.06 1010.10,362.07 Q 989.59,362.62 969.21,362.32 Q 966.74,362.28 966.50,364.74 Q 965.77,372.36 965.87,380.00 Q 966.19,405.00 965.76,429.60 A 1.41,1.41 -0.4 0 1 964.40,430.98 Q 949.37,431.59 932.58,430.91 Q 930.53,430.83 929.88,428.88 Q 928.39,424.37 928.57,418.78 Q 928.74,413.26 928.74,413.23 Q 928.65,381.98 929.50,350.75 Q 929.71,342.84 929.75,315.76 Q 929.75,312.00 929.52,295.74 Q 929.29,279.84 929.98,264.19 A 1.77,1.77 -88.6 0 1 931.75,262.50 Q 970.35,262.48 1008.04,262.27 Q 1008.16,262.27 1014.95,262.45 Q 1018.43,262.54 1022.50,262.25 Q 1026.62,261.96 1026.54,266.19 Q 1026.33,277.66 1026.42,289.14 Q 1026.44,291.81 1025.38,292.92 Q 1024.11,294.25 1021.94,294.12 Q 1020.13,294.01 1020.05,294.01 Q 995.52,294.25 971.00,294.00 Q 966.69,293.96 966.04,297.41 Q 966.01,297.54 965.98,302.61 Q 965.88,314.81 966.25,327.02 A 1.95,1.94 -77.6 0 0 967.31,328.69 Z"/>
<path fill="#fe0000" d="M 836.98,262.67 Q 843.97,262.68 850.94,263.04 A 1.13,1.11 71.3 0 1 851.76,263.45 Q 854.29,266.60 855.62,270.40 Q 857.04,274.46 857.07,274.54 Q 871.60,310.57 886.27,346.53 Q 897.83,374.86 909.17,403.28 Q 914.00,415.37 919.19,427.32 Q 920.66,430.71 916.97,430.76 Q 904.75,430.93 891.75,430.50 Q 884.81,430.27 881.74,429.61 A 1.50,1.47 -14.3 0 1 880.91,429.13 Q 879.29,427.31 878.67,425.03 Q 877.94,422.36 877.28,421.09 Q 876.00,418.60 875.16,415.94 Q 874.09,412.55 872.87,409.65 Q 871.62,406.68 870.75,403.25 Q 869.73,399.23 866.42,397.86 Q 864.81,397.20 860.12,397.17 Q 833.27,397.00 806.42,396.83 Q 803.49,396.81 802.00,397.96 Q 800.10,399.42 799.25,402.00 Q 795.23,414.23 789.43,428.79 A 1.35,1.29 88.7 0 1 788.80,429.48 Q 786.49,430.58 783.94,430.57 Q 781.61,430.55 781.57,430.56 Q 766.46,431.23 752.71,430.57 Q 749.24,430.40 750.77,427.28 Q 753.37,421.96 755.45,416.83 Q 784.05,346.27 812.30,275.56 Q 814.45,270.17 817.05,264.69 Q 817.81,263.11 819.56,262.95 Q 824.63,262.48 829.64,262.56 Q 836.91,262.67 836.98,262.67 ZM 817.19,363.81 Q 828.32,364.99 839.49,364.32 Q 846.54,363.89 849.00,364.25 Q 853.94,364.97 853.25,360.25 Q 852.77,356.93 851.46,353.58 Q 849.01,347.28 848.97,347.17 Q 846.67,340.44 843.90,333.88 Q 843.65,333.27 840.48,324.98 Q 838.78,320.52 836.35,316.36 Q 834.38,312.99 832.56,316.31 Q 831.04,319.10 829.33,324.24 Q 827.75,329.02 826.41,332.26 Q 820.62,346.23 815.81,360.56 Q 814.81,363.56 817.19,363.81 Z"/>
<path fill="#fe0000" d="M 1113.32,398.49 Q 1125.47,398.67 1137.61,398.98 Q 1137.66,398.98 1139.38,398.90 Q 1142.69,398.75 1142.70,402.50 Q 1142.75,414.00 1142.75,425.51 Q 1142.75,425.62 1142.83,426.98 Q 1143.04,430.55 1139.25,431.02 Q 1136.14,431.41 1133.00,431.38 Q 1097.00,430.95 1061.00,431.06 Q 1054.72,431.08 1049.30,430.36 Q 1047.25,430.08 1047.25,428.02 Q 1047.25,347.50 1047.25,267.00 Q 1047.25,263.61 1049.52,262.91 Q 1049.99,262.76 1053.51,262.73 Q 1067.94,262.63 1081.83,263.04 Q 1083.71,263.10 1083.75,264.99 Q 1083.89,272.37 1083.83,279.75 Q 1083.40,333.87 1083.83,388.00 Q 1083.87,393.12 1084.50,395.25 Q 1085.00,396.95 1086.74,397.76 Q 1087.78,398.25 1089.84,398.26 Q 1101.58,398.32 1113.32,398.49 Z"/>
<rect fill="#f40000" x="297.75" y="298.55" width="0.26" height="108.66" rx="0.12"/>
</svg>
