<?xml version="1.0" standalone="no"?>
<!DOCTYPE svg PUBLIC "-//W3C//DTD SVG 20010904//EN"
 "http://www.w3.org/TR/2001/REC-SVG-20010904/DTD/svg10.dtd">
<svg version="1.0" xmlns="http://www.w3.org/2000/svg"
 width="120.000000pt" height="120.000000pt" viewBox="0 0 120.000000 120.000000"
 preserveAspectRatio="xMidYMid meet">
<g transform="translate(0.000000,120.000000) scale(0.100000,-0.100000)"
fill="#000000" stroke="none">
<path d="M652 1108 c-16 -16 -16 -200 0 -216 7 -7 33 -12 58 -12 34 0 48 -5
58 -20 10 -16 23 -20 72 -20 49 0 62 4 72 20 10 15 24 20 58 20 25 0 51 5 58
12 16 16 16 200 0 216 -17 17 -359 17 -376 0z"/>
<path d="M251 1026 c-87 -48 -50 -186 49 -186 51 0 100 49 100 99 0 75 -83
124 -149 87z"/>
<path d="M91 826 c-8 -9 -11 -110 -9 -351 3 -309 4 -339 21 -349 25 -16 51 4
55 43 l3 31 439 0 439 0 3 -31 c4 -39 30 -59 56 -43 14 9 17 30 20 129 2 78
-1 122 -9 131 -9 12 -92 14 -480 14 l-469 0 0 208 c0 214 -3 232 -41 232 -9 0
-22 -6 -28 -14z"/>
<path d="M269 731 c-33 -33 -35 -55 -14 -126 9 -27 20 -67 26 -87 l10 -38 89
0 c59 0 90 4 90 11 0 6 -14 59 -31 118 -21 75 -37 112 -55 129 -35 31 -79 29
-115 -7z"/>
<path d="M522 608 c11 -40 24 -84 28 -98 l6 -25 263 -3 263 -2 -4 65 c-3 58
-8 69 -36 98 l-32 32 -255 3 -254 3 21 -73z"/>
</g>
</svg>
