<?xml version="1.0" encoding="UTF-8" standalone="no"?>
<!DOCTYPE svg PUBLIC "-//W3C//DTD SVG 1.1//EN" "http://www.w3.org/Graphics/SVG/1.1/DTD/svg11.dtd">
<svg xmlns="http://www.w3.org/2000/svg" version="1.1" viewBox="0 0 921 881">
<path fill="rgb(255,195,13)" fill-opacity="1.000" d="M 0.00 0.00 Q 32.16 0.00 64.31 0.00 Q 53.50 15.04 47.94 33.19 Q 44.34 44.93 47.54 56.50 Q 47.18 56.80 46.44 58.44 Q 39.86 72.93 36.74 86.35 Q 35.56 91.39 35.30 95.73 Q 35.01 100.71 35.50 105.25 Q 36.60 115.40 42.80 123.14 Q 46.06 127.21 50.97 130.51 Q 55.59 133.61 60.83 135.66 Q 78.86 142.69 98.25 143.03 Q 112.05 143.27 124.92 138.37 Q 131.83 135.74 137.30 131.28 Q 138.35 130.42 138.00 131.74 Q 130.95 158.57 133.20 186.23 Q 134.10 197.25 138.25 208.25 Q 142.94 220.67 152.41 228.84 Q 159.47 234.93 169.25 238.21 Q 178.25 241.23 188.50 241.75 Q 207.80 242.73 224.65 235.97 Q 233.28 232.51 241.97 226.08 Q 255.40 216.15 266.19 202.44 Q 280.56 184.17 291.31 167.06 Q 295.41 160.55 315.67 130.89 Q 327.94 112.91 342.35 96.60 Q 364.79 71.21 393.56 53.31 Q 409.55 43.37 431.29 32.07 Q 433.19 31.08 438.52 28.18 Q 444.06 25.15 446.00 24.75 Q 449.70 23.99 453.08 22.40 Q 458.59 19.80 458.68 19.76 Q 476.36 12.59 494.62 7.08 Q 494.76 7.04 501.85 4.81 Q 509.66 2.35 516.25 1.50 Q 517.82 1.30 518.64 0.69 A 0.27 0.23 42.0 0 0 518.59 0.28 Q 518.41 0.16 518.31 0.00 Q 696.81 0.00 875.31 0.00 Q 875.47 0.36 875.50 0.75 A 1.09 0.83 -81.4 0 0 875.92 1.52 Q 883.74 6.38 891.61 1.74 Q 892.06 1.47 892.30 1.15 Q 893.03 0.16 891.50 0.21 Q 891.53 0.10 891.56 0.00 Q 906.28 0.00 921.00 0.00 Q 921.00 440.50 921.00 881.00 Q 460.50 881.00 0.00 881.00 Q 0.00 440.50 0.00 0.00 Z M 10.00 385.79 Q 9.29 385.76 9.55 386.15 Q 9.65 386.30 9.88 386.39 Q 13.80 387.99 17.75 389.54 Q 18.44 390.50 19.21 391.39 Q 19.94 392.22 21.09 392.69 Q 25.55 394.53 29.87 396.71 A 1.17 1.16 5.7 0 1 30.46 397.42 Q 31.78 401.68 32.36 406.08 Q 33.17 412.24 33.71 414.81 Q 35.24 421.98 35.81 427.19 Q 36.10 429.78 36.83 431.81 Q 38.11 435.36 38.31 436.23 Q 41.65 451.14 47.73 465.15 Q 48.78 467.56 50.06 470.94 Q 51.31 474.22 52.56 476.69 Q 61.69 494.70 74.38 511.82 Q 77.68 516.27 84.19 523.06 Q 100.13 539.70 118.56 549.69 Q 127.15 554.34 133.60 556.86 Q 133.72 556.90 139.70 559.57 Q 142.74 560.93 146.56 561.69 Q 154.04 563.18 165.23 566.27 Q 168.46 567.16 172.39 567.32 Q 178.65 567.57 184.79 568.79 Q 188.17 569.47 191.28 569.28 Q 200.39 568.74 209.52 568.95 Q 210.54 568.97 213.37 568.40 Q 215.32 568.00 218.00 568.25 Q 222.28 568.64 230.55 566.77 Q 232.26 566.38 235.00 566.21 Q 237.28 566.06 239.48 565.49 Q 245.10 564.03 245.26 564.00 Q 256.42 561.68 270.31 556.31 Q 285.64 550.40 296.35 542.31 A 1.13 0.84 -24.5 0 0 296.79 541.51 Q 296.77 540.98 296.50 540.54 Q 315.10 528.13 328.94 512.44 Q 351.62 486.72 365.72 454.79 Q 369.74 445.68 373.25 436.28 Q 380.21 417.60 383.80 398.40 A 1.40 1.40 -84.7 0 1 385.16 397.27 L 523.00 396.04 L 532.14 397.34 Q 533.34 397.51 534.17 397.41 Q 540.09 396.72 547.56 397.36 Q 549.40 397.52 549.74 399.34 Q 553.48 419.47 561.09 438.65 Q 561.31 439.19 564.58 448.39 Q 566.02 452.47 568.50 458.00 Q 581.57 487.20 599.81 509.20 Q 611.58 523.38 628.25 536.50 Q 633.67 540.77 638.42 543.79 Q 642.99 546.70 649.11 550.25 Q 657.12 554.89 665.44 557.56 Q 666.53 557.91 667.27 558.35 Q 668.47 559.07 669.03 559.07 Q 670.27 559.08 671.25 558.21 L 683.75 562.04 L 683.88 562.50 A 0.96 0.20 77.1 0 0 684.19 563.18 Q 687.76 565.39 691.87 566.05 Q 693.43 566.30 695.04 566.80 Q 696.61 567.28 698.25 567.48 Q 716.31 569.72 734.50 570.25 Q 748.76 570.66 765.97 566.98 Q 766.09 566.96 772.57 565.76 Q 776.02 565.12 779.33 563.97 Q 786.67 561.39 786.77 561.36 Q 808.86 554.30 826.52 539.25 Q 826.62 539.17 830.15 536.50 Q 833.39 534.05 835.21 530.25 Q 850.24 516.06 861.06 500.06 Q 881.06 470.51 892.37 435.54 Q 898.07 417.91 902.03 398.39 A 2.44 2.35 81.7 0 1 903.19 396.77 L 917.27 389.00 Q 919.07 388.01 917.02 388.00 L 909.00 387.96 Q 909.49 386.78 908.61 386.60 Q 907.84 386.43 907.78 386.41 Q 895.02 381.71 884.25 379.25 Q 855.80 372.75 823.23 368.67 Q 767.91 361.73 712.25 358.52 Q 629.50 353.74 546.61 352.84 Q 527.69 352.64 527.37 352.63 Q 393.78 351.11 260.26 355.91 Q 210.82 357.68 161.50 361.54 Q 130.93 363.94 100.49 367.69 Q 71.82 371.23 46.75 377.75 Q 39.53 379.63 30.69 383.23 Q 28.17 384.26 25.59 384.26 Q 19.67 384.25 13.79 384.00 A 1.65 1.64 26.7 0 0 12.72 384.35 Q 10.73 385.91 10.00 385.79 Z M 432.54 580.00 Q 426.05 596.13 421.33 612.83 Q 417.11 627.72 416.14 632.15 Q 413.14 645.78 414.00 659.50 Q 414.38 665.56 416.71 672.25 Q 423.44 694.88 446.50 697.75 Q 458.98 699.30 466.03 688.98 A 0.42 0.40 -50.0 0 1 466.66 688.91 Q 468.43 690.72 469.75 693.75 Q 473.91 703.29 482.36 710.65 Q 491.92 718.99 504.75 718.92 Q 518.81 718.85 526.19 707.19 Q 529.34 702.21 530.46 699.00 Q 533.81 691.07 534.75 683.50 Q 538.11 656.39 530.50 629.50 Q 521.66 598.29 506.21 573.50 Q 506.60 572.82 508.94 570.69 Q 523.19 557.68 529.89 539.13 A 1.45 1.43 -79.5 0 1 531.27 538.17 Q 544.63 538.34 556.44 538.19 Q 557.15 538.18 557.29 537.25 Q 558.84 536.15 558.44 534.81 Q 555.37 524.70 548.18 515.77 Q 545.96 513.01 542.97 508.71 Q 539.07 503.09 533.72 498.84 Q 530.60 496.37 527.73 493.63 Q 521.86 488.03 514.34 484.64 Q 508.82 482.16 503.56 479.19 Q 501.74 478.16 498.82 477.75 A 1.99 1.51 61.2 0 1 497.94 477.36 Q 497.00 476.63 495.87 476.49 Q 493.73 476.24 493.67 476.23 Q 488.26 474.88 482.75 473.96 Q 468.15 471.15 453.39 472.21 Q 448.51 472.56 442.22 473.98 Q 433.35 475.98 431.25 476.75 Q 411.92 483.84 397.33 498.14 Q 397.25 498.23 393.01 502.19 Q 390.00 505.00 387.65 508.40 Q 386.25 510.42 385.34 511.64 Q 384.13 513.24 383.02 514.91 Q 382.18 516.19 379.53 519.74 Q 377.43 522.54 376.08 525.77 Q 374.43 529.71 374.22 530.15 Q 373.28 532.17 372.26 534.50 Q 370.71 538.05 374.47 538.06 L 395.14 538.07 A 1.00 0.94 -9.7 0 1 396.06 538.68 Q 398.53 545.10 402.22 550.81 Q 405.75 556.28 410.20 561.77 Q 418.58 572.09 430.38 578.70 A 1.73 1.11 -22.7 0 0 431.30 578.86 Q 432.59 578.74 432.54 580.00 Z"/>
<path fill="rgb(177,0,9)" fill-opacity="1.000" d="M 64.31 0.00 Q 270.94 0.00 477.56 0.00 Q 480.32 0.70 477.28 1.20 Q 458.62 4.29 440.25 8.79 Q 438.85 9.10 437.76 8.64 Q 435.62 7.75 435.59 7.74 Q 432.90 7.21 430.19 7.28 Q 425.99 7.39 424.81 7.33 Q 418.79 6.98 412.75 7.01 Q 384.62 7.18 356.50 6.83 Q 317.88 6.35 279.25 6.28 Q 272.62 6.27 245.25 6.00 Q 192.04 5.48 138.84 5.26 Q 138.32 5.26 135.17 5.07 Q 133.64 4.98 131.50 5.00 Q 113.46 5.21 78.75 4.84 Q 74.86 4.79 71.21 5.53 A 2.65 2.62 12.7 0 0 69.67 6.49 Q 60.32 18.58 53.80 31.45 Q 49.31 40.31 48.48 43.59 Q 46.74 50.46 49.53 57.28 Q 50.15 58.79 53.06 63.33 Q 54.96 66.30 56.46 69.50 Q 50.31 64.18 47.54 56.50 Q 44.34 44.93 47.94 33.19 Q 53.50 15.04 64.31 0.00 Z"/>
<path fill="rgb(190,154,40)" fill-opacity="1.000" d="M 477.56 0.00 Q 497.94 0.00 518.31 0.00 Q 518.41 0.16 518.59 0.28 A 0.27 0.23 42.0 0 1 518.64 0.69 Q 517.82 1.30 516.25 1.50 Q 509.66 2.35 501.85 4.81 Q 494.76 7.04 494.62 7.08 Q 476.36 12.59 458.68 19.76 Q 458.59 19.80 453.08 22.40 Q 449.70 23.99 446.00 24.75 Q 444.06 25.15 438.52 28.18 Q 433.19 31.08 431.29 32.07 Q 409.55 43.37 393.56 53.31 Q 364.79 71.21 342.35 96.60 Q 327.94 112.91 315.67 130.89 Q 295.41 160.55 291.31 167.06 Q 280.56 184.17 266.19 202.44 Q 255.40 216.15 241.97 226.08 Q 233.28 232.51 224.65 235.97 Q 207.80 242.73 188.50 241.75 Q 178.25 241.23 169.25 238.21 Q 159.47 234.93 152.41 228.84 Q 142.94 220.67 138.25 208.25 Q 134.10 197.25 133.20 186.23 Q 130.95 158.57 138.00 131.74 Q 138.35 130.42 137.30 131.28 Q 131.83 135.74 124.92 138.37 Q 112.05 143.27 98.25 143.03 Q 78.86 142.69 60.83 135.66 Q 55.59 133.61 50.97 130.51 Q 46.06 127.21 42.80 123.14 Q 36.60 115.40 35.50 105.25 Q 35.01 100.71 35.30 95.73 Q 35.56 91.39 36.74 86.35 Q 39.86 72.93 46.44 58.44 Q 47.18 56.80 47.54 56.50 Q 50.31 64.18 56.46 69.50 Q 76.91 86.03 103.28 81.44 Q 114.57 79.48 124.19 75.19 Q 149.91 63.71 170.19 44.90 Q 172.32 42.93 171.07 45.55 Q 157.30 74.27 154.48 106.02 Q 153.63 115.54 155.25 124.95 Q 157.92 140.56 169.57 149.85 Q 174.34 153.65 180.67 155.92 Q 186.10 157.87 193.00 159.25 Q 218.20 164.27 240.39 155.44 Q 248.76 152.10 257.85 145.78 Q 270.51 136.96 280.96 125.45 Q 290.41 115.03 296.81 106.81 Q 307.42 93.20 318.11 79.66 Q 326.34 69.23 330.99 64.37 Q 341.39 53.49 353.31 45.31 Q 368.60 34.82 386.38 27.34 Q 392.92 24.58 405.00 20.07 Q 422.35 13.60 440.25 8.79 Q 458.62 4.29 477.28 1.20 Q 480.32 0.70 477.56 0.00 Z"/>
<path fill="rgb(111,87,15)" fill-opacity="1.000" d="M 875.31 0.00 Q 876.06 0.00 876.81 0.00 Q 884.03 4.38 891.50 0.21 Q 893.03 0.16 892.30 1.15 Q 892.06 1.47 891.61 1.74 Q 883.74 6.38 875.92 1.52 A 1.09 0.83 -81.4 0 1 875.50 0.75 Q 875.47 0.36 875.31 0.00 Z"/>
<path fill="rgb(255,255,255)" fill-opacity="1.000" d="M 876.81 0.00 Q 884.19 0.00 891.56 0.00 Q 891.53 0.10 891.50 0.21 Q 884.03 4.38 876.81 0.00 Z"/>
<path fill="rgb(206,0,13)" fill-opacity="1.000" d="M 440.25 8.79 Q 422.35 13.60 405.00 20.07 Q 392.92 24.58 386.38 27.34 Q 368.60 34.82 353.31 45.31 Q 341.39 53.49 330.99 64.37 Q 326.34 69.23 318.11 79.66 Q 307.42 93.20 296.81 106.81 Q 290.41 115.03 280.96 125.45 Q 270.51 136.96 257.85 145.78 Q 248.76 152.10 240.39 155.44 Q 218.20 164.27 193.00 159.25 Q 186.10 157.87 180.67 155.92 Q 174.34 153.65 169.57 149.85 Q 157.92 140.56 155.25 124.95 Q 153.63 115.54 154.48 106.02 Q 157.30 74.27 171.07 45.55 Q 172.32 42.93 170.19 44.90 Q 149.91 63.71 124.19 75.19 Q 114.57 79.48 103.28 81.44 Q 76.91 86.03 56.46 69.50 Q 54.96 66.30 53.06 63.33 Q 50.15 58.79 49.53 57.28 Q 46.74 50.46 48.48 43.59 Q 49.31 40.31 53.80 31.45 Q 60.32 18.58 69.67 6.49 A 2.65 2.62 12.7 0 1 71.21 5.53 Q 74.86 4.79 78.75 4.84 Q 113.46 5.21 131.50 5.00 Q 133.64 4.98 135.17 5.07 Q 138.32 5.26 138.84 5.26 Q 192.04 5.48 245.25 6.00 Q 272.62 6.27 279.25 6.28 Q 317.88 6.35 356.50 6.83 Q 384.62 7.18 412.75 7.01 Q 418.79 6.98 424.81 7.33 Q 425.99 7.39 430.19 7.28 Q 432.90 7.21 435.59 7.74 Q 435.62 7.75 437.76 8.64 Q 438.85 9.10 440.25 8.79 Z"/>
<path fill="rgb(190,154,40)" fill-opacity="1.000" d="M 909.00 387.96 Q 904.26 388.32 899.50 388.33 Q 797.75 388.50 696.00 388.68 Q 674.62 388.72 653.25 388.83 Q 545.00 389.38 436.76 389.26 Q 426.96 389.25 416.75 389.16 Q 230.07 387.49 138.75 387.00 Q 137.73 386.99 137.06 386.92 Q 135.65 386.75 135.42 386.75 Q 72.71 386.69 10.00 385.79 Q 10.73 385.91 12.72 384.35 A 1.65 1.64 26.7 0 1 13.79 384.00 Q 19.67 384.25 25.59 384.26 Q 28.17 384.26 30.69 383.23 Q 39.53 379.63 46.75 377.75 Q 71.82 371.23 100.49 367.69 Q 130.93 363.94 161.50 361.54 Q 210.82 357.68 260.26 355.91 Q 393.78 351.11 527.37 352.63 Q 527.69 352.64 546.61 352.84 Q 629.50 353.74 712.25 358.52 Q 767.91 361.73 823.23 368.67 Q 855.80 372.75 884.25 379.25 Q 895.02 381.71 907.78 386.41 Q 907.84 386.43 908.61 386.60 Q 909.49 386.78 909.00 387.96 Z"/>
<path fill="rgb(111,87,15)" fill-opacity="1.000" d="M 10.00 385.79 Q 72.71 386.69 135.42 386.75 Q 135.65 386.75 137.06 386.92 Q 137.73 386.99 138.75 387.00 Q 230.07 387.49 416.75 389.16 Q 426.96 389.25 436.76 389.26 Q 545.00 389.38 653.25 388.83 Q 674.62 388.72 696.00 388.68 Q 797.75 388.50 899.50 388.33 Q 904.26 388.32 909.00 387.96 L 917.02 388.00 Q 919.07 388.01 917.27 389.00 L 903.19 396.77 A 2.44 2.35 81.7 0 0 902.03 398.39 Q 898.07 417.91 892.37 435.54 Q 881.06 470.51 861.06 500.06 Q 850.24 516.06 835.21 530.25 Q 794.74 567.42 739.25 568.76 Q 710.99 569.45 683.75 562.04 L 671.25 558.21 Q 626.76 541.41 597.54 503.95 Q 582.18 484.25 571.61 461.60 Q 557.06 430.40 550.97 396.36 A 0.72 0.70 85.1 0 0 550.28 395.76 L 523.00 396.04 L 385.16 397.27 A 1.40 1.40 -84.7 0 0 383.80 398.40 Q 380.21 417.60 373.25 436.28 Q 369.74 445.68 365.72 454.79 Q 351.62 486.72 328.94 512.44 Q 315.10 528.13 296.50 540.54 Q 272.65 556.30 246.50 562.50 Q 203.99 572.58 160.74 563.53 Q 150.51 561.39 141.50 558.12 Q 91.70 540.07 63.84 493.87 Q 47.91 467.46 40.05 437.60 Q 34.82 417.71 32.63 396.09 A 1.65 1.63 7.6 0 0 31.57 394.72 L 17.75 389.54 Q 13.80 387.99 9.88 386.39 Q 9.65 386.30 9.55 386.15 Q 9.29 385.76 10.00 385.79 Z M 164.86 433.15 Q 160.43 428.62 157.39 423.09 Q 149.86 409.37 148.24 393.81 A 0.53 0.53 86.0 0 0 147.69 393.33 Q 144.97 393.41 142.25 393.36 Q 117.50 392.92 92.75 393.50 Q 80.31 393.79 45.80 393.32 A 0.50 0.49 -88.8 0 0 45.30 393.81 Q 44.83 411.73 49.44 431.06 Q 58.06 467.28 80.84 495.17 Q 103.15 522.48 134.31 537.69 Q 172.93 556.54 216.51 553.09 Q 243.46 550.96 267.44 540.19 Q 305.83 522.93 330.76 489.44 Q 336.79 481.34 341.63 472.68 Q 360.72 438.46 362.03 397.78 A 1.01 1.01 -88.6 0 0 361.04 396.74 L 248.31 395.32 A 0.50 0.50 -31.7 0 0 247.80 395.81 Q 247.20 414.23 238.25 428.00 Q 227.76 444.13 207.26 446.58 Q 198.51 447.62 189.82 446.16 Q 175.19 443.71 164.86 433.15 Z M 628.77 518.35 Q 668.79 550.91 720.75 553.25 Q 771.27 555.53 813.44 528.34 Q 821.86 522.91 829.53 516.48 Q 861.48 489.64 876.25 450.75 Q 886.22 424.49 886.50 394.75 A 0.50 0.49 90.0 0 0 886.01 394.25 L 773.09 394.51 A 0.81 0.81 -89.3 0 0 772.28 395.30 Q 771.80 410.73 765.20 423.48 Q 761.33 430.97 755.88 435.91 Q 749.81 441.40 742.25 444.00 Q 730.80 447.93 717.26 446.37 Q 700.48 444.44 689.53 433.25 Q 683.17 426.75 678.68 416.58 Q 674.20 406.40 672.66 394.83 A 0.88 0.87 -4.1 0 0 671.78 394.07 L 570.47 395.52 A 1.02 1.02 88.6 0 0 569.46 396.58 Q 571.81 460.61 614.08 504.78 Q 621.03 512.05 628.77 518.35 Z"/>
<path fill="rgb(248,203,42)" fill-opacity="1.000" d="M 17.75 389.54 L 31.57 394.72 A 1.65 1.63 7.6 0 1 32.63 396.09 Q 34.82 417.71 40.05 437.60 Q 47.91 467.46 63.84 493.87 Q 91.70 540.07 141.50 558.12 Q 150.51 561.39 160.74 563.53 Q 203.99 572.58 246.50 562.50 Q 272.65 556.30 296.50 540.54 Q 296.77 540.98 296.79 541.51 A 1.13 0.84 -24.5 0 1 296.35 542.31 Q 285.64 550.40 270.31 556.31 Q 256.42 561.68 245.26 564.00 Q 245.10 564.03 239.48 565.49 Q 237.28 566.06 235.00 566.21 Q 232.26 566.38 230.55 566.77 Q 222.28 568.64 218.00 568.25 Q 215.32 568.00 213.37 568.40 Q 210.54 568.97 209.52 568.95 Q 200.39 568.74 191.28 569.28 Q 188.17 569.47 184.79 568.79 Q 178.65 567.57 172.39 567.32 Q 168.46 567.16 165.23 566.27 Q 154.04 563.18 146.56 561.69 Q 142.74 560.93 139.70 559.57 Q 133.72 556.90 133.60 556.86 Q 127.15 554.34 118.56 549.69 Q 100.13 539.70 84.19 523.06 Q 77.68 516.27 74.38 511.82 Q 61.69 494.70 52.56 476.69 Q 51.31 474.22 50.06 470.94 Q 48.78 467.56 47.73 465.15 Q 41.65 451.14 38.31 436.23 Q 38.11 435.36 36.83 431.81 Q 36.10 429.78 35.81 427.19 Q 35.24 421.98 33.71 414.81 Q 33.17 412.24 32.36 406.08 Q 31.78 401.68 30.46 397.42 A 1.17 1.16 5.7 0 0 29.87 396.71 Q 25.55 394.53 21.09 392.69 Q 19.94 392.22 19.21 391.39 Q 18.44 390.50 17.75 389.54 Z"/>
<path fill="rgb(255,255,255)" fill-opacity="1.000" d="M 164.86 433.15 Q 175.19 443.71 189.82 446.16 Q 198.51 447.62 207.26 446.58 Q 227.76 444.13 238.25 428.00 Q 247.20 414.23 247.80 395.81 A 0.50 0.50 -25.6 0 1 248.31 395.32 L 361.04 396.74 A 1.01 1.01 -88.6 0 1 362.03 397.78 Q 360.72 438.46 341.63 472.68 Q 336.79 481.34 330.76 489.44 Q 305.83 522.93 267.44 540.19 Q 243.46 550.96 216.51 553.09 Q 172.93 556.54 134.31 537.69 Q 103.15 522.48 80.84 495.17 Q 58.06 467.28 49.44 431.06 Q 44.83 411.73 45.30 393.81 A 0.50 0.49 -88.8 0 1 45.80 393.32 Q 80.31 393.79 92.75 393.50 Q 117.50 392.92 142.25 393.36 Q 144.97 393.41 147.69 393.33 A 0.53 0.53 86.0 0 1 148.24 393.81 Q 149.86 409.37 157.39 423.09 Q 160.43 428.62 164.86 433.15 Z"/>
<path fill="rgb(255,255,255)" fill-opacity="1.000" d="M 614.08 504.78 Q 571.81 460.61 569.46 396.58 A 1.02 1.02 88.6 0 1 570.47 395.52 L 671.78 394.07 A 0.88 0.87 -4.1 0 1 672.66 394.83 Q 674.20 406.40 678.68 416.58 Q 683.17 426.75 689.53 433.25 Q 700.48 444.44 717.26 446.37 Q 730.80 447.93 742.25 444.00 Q 749.81 441.40 755.88 435.91 Q 761.33 430.97 765.20 423.48 Q 771.80 410.73 772.28 395.30 A 0.81 0.81 -89.3 0 1 773.09 394.51 L 886.01 394.25 A 0.50 0.49 90.0 0 1 886.50 394.75 Q 886.22 424.49 876.25 450.75 Q 861.48 489.64 829.53 516.48 Q 821.86 522.91 813.44 528.34 Q 771.27 555.53 720.75 553.25 Q 668.79 550.91 628.77 518.35 Q 621.03 512.05 614.08 504.78 Z"/>
<path fill="rgb(248,203,42)" fill-opacity="1.000" d="M 671.25 558.21 Q 670.27 559.08 669.03 559.07 Q 668.47 559.07 667.27 558.35 Q 666.53 557.91 665.44 557.56 Q 657.12 554.89 649.11 550.25 Q 642.99 546.70 638.42 543.79 Q 633.67 540.77 628.25 536.50 Q 611.58 523.38 599.81 509.20 Q 581.57 487.20 568.50 458.00 Q 566.02 452.47 564.58 448.39 Q 561.31 439.19 561.09 438.65 Q 553.48 419.47 549.74 399.34 Q 549.40 397.52 547.56 397.36 Q 540.09 396.72 534.17 397.41 Q 533.34 397.51 532.14 397.34 L 523.00 396.04 L 550.28 395.76 A 0.72 0.70 85.1 0 1 550.97 396.36 Q 557.06 430.40 571.61 461.60 Q 582.18 484.25 597.54 503.95 Q 626.76 541.41 671.25 558.21 Z"/>
<path fill="rgb(237,203,78)" fill-opacity="1.000" d="M 482.75 473.96 Q 480.84 473.80 479.25 474.79 Q 437.13 468.10 405.06 493.56 Q 385.19 509.35 374.21 534.25 Q 372.16 536.80 375.50 536.21 L 395.75 536.47 A 1.67 1.60 -10.1 0 1 397.25 537.47 Q 404.49 555.34 418.93 568.32 Q 425.28 574.02 432.91 577.87 Q 433.28 578.06 433.29 578.50 L 433.29 578.75 Q 433.07 579.50 432.54 580.00 Q 432.59 578.74 431.30 578.86 A 1.73 1.11 -22.7 0 1 430.38 578.70 Q 418.58 572.09 410.20 561.77 Q 405.75 556.28 402.22 550.81 Q 398.53 545.10 396.06 538.68 A 1.00 0.94 -9.7 0 0 395.14 538.07 L 374.47 538.06 Q 370.71 538.05 372.26 534.50 Q 373.28 532.17 374.22 530.15 Q 374.43 529.71 376.08 525.77 Q 377.43 522.54 379.53 519.74 Q 382.18 516.19 383.02 514.91 Q 384.13 513.24 385.34 511.64 Q 386.25 510.42 387.65 508.40 Q 390.00 505.00 393.01 502.19 Q 397.25 498.23 397.33 498.14 Q 411.92 483.84 431.25 476.75 Q 433.35 475.98 442.22 473.98 Q 448.51 472.56 453.39 472.21 Q 468.15 471.15 482.75 473.96 Z"/>
<path fill="rgb(54,71,119)" fill-opacity="1.000" d="M 479.25 474.79 Q 488.49 476.40 497.25 479.71 Q 496.71 480.60 495.75 480.25 Q 486.74 477.00 478.01 475.94 Q 461.99 474.00 445.99 476.16 Q 439.56 477.03 431.56 480.31 Q 420.49 484.86 413.45 489.20 Q 406.71 493.34 401.33 499.01 Q 394.28 506.43 393.93 506.78 Q 388.84 511.89 387.06 515.06 Q 381.41 525.15 374.96 534.75 Q 374.18 534.93 374.21 534.25 Q 385.19 509.35 405.06 493.56 Q 437.13 468.10 479.25 474.79 Z"/>
<path fill="rgb(248,203,42)" fill-opacity="1.000" d="M 482.75 473.96 Q 488.26 474.88 493.67 476.23 Q 493.73 476.24 495.87 476.49 Q 497.00 476.63 497.94 477.36 A 1.99 1.51 61.2 0 0 498.82 477.75 Q 501.74 478.16 503.56 479.19 Q 508.82 482.16 514.34 484.64 Q 521.86 488.03 527.73 493.63 Q 530.60 496.37 533.72 498.84 Q 539.07 503.09 542.97 508.71 Q 545.96 513.01 548.18 515.77 Q 555.37 524.70 558.44 534.81 Q 558.84 536.15 557.29 537.25 L 556.71 535.75 Q 540.62 500.42 505.94 483.06 Q 503.33 481.75 497.25 479.71 Q 488.49 476.40 479.25 474.79 Q 480.84 473.80 482.75 473.96 Z"/>
<path fill="rgb(44,82,171)" fill-opacity="1.000" d="M 497.25 479.71 Q 503.33 481.75 505.94 483.06 Q 540.62 500.42 556.71 535.75 Q 555.96 536.60 554.75 536.21 Q 553.64 535.98 552.56 535.63 Q 551.41 535.25 550.37 535.27 Q 543.68 535.38 537.00 535.04 L 549.60 535.00 Q 551.82 534.99 550.67 533.11 Q 546.64 526.53 542.00 520.50 Q 537.15 514.18 531.85 509.08 Q 505.76 484.01 469.49 481.13 Q 459.21 480.31 449.55 481.65 Q 415.36 486.42 392.06 513.56 Q 383.53 523.51 378.23 533.56 A 1.01 0.69 -53.3 0 0 378.19 534.46 Q 378.57 535.03 379.50 534.79 L 375.04 535.25 L 374.96 534.75 Q 381.41 525.15 387.06 515.06 Q 388.84 511.89 393.93 506.78 Q 394.28 506.43 401.33 499.01 Q 406.71 493.34 413.45 489.20 Q 420.49 484.86 431.56 480.31 Q 439.56 477.03 445.99 476.16 Q 461.99 474.00 478.01 475.94 Q 486.74 477.00 495.75 480.25 Q 496.71 480.60 497.25 479.71 Z"/>
<path fill="rgb(52,96,208)" fill-opacity="1.000" d="M 537.00 535.04 L 528.62 534.97 A 0.98 0.95 11.6 0 0 527.71 535.55 Q 526.47 538.55 525.03 541.59 Q 524.98 541.71 522.73 547.01 Q 521.02 551.04 518.22 554.46 Q 516.28 556.82 514.63 559.40 Q 512.13 563.34 508.43 566.06 Q 505.57 568.16 504.84 568.77 Q 503.06 570.27 501.34 571.60 A 1.62 1.61 69.8 0 0 500.71 572.98 Q 500.80 574.62 501.46 574.00 Q 501.55 574.62 502.00 575.04 Q 494.94 578.89 488.25 581.25 Q 465.06 589.41 441.56 581.44 Q 438.92 580.54 436.25 579.71 L 434.21 578.00 Q 434.24 577.39 433.68 577.07 Q 409.15 562.99 398.55 536.88 Q 397.80 535.02 395.75 534.99 L 379.50 534.79 Q 378.57 535.03 378.19 534.46 A 1.01 0.69 -53.3 0 1 378.23 533.56 Q 383.53 523.51 392.06 513.56 Q 415.36 486.42 449.55 481.65 Q 459.21 480.31 469.49 481.13 Q 505.76 484.01 531.85 509.08 Q 537.15 514.18 542.00 520.50 Q 546.64 526.53 550.67 533.11 Q 551.82 534.99 549.60 535.00 L 537.00 535.04 Z M 407.78 535.95 A 3.04 3.03 62.8 0 0 409.49 536.50 Q 420.13 536.53 429.75 537.00 Q 446.86 537.83 463.99 538.13 Q 473.16 538.28 483.99 537.82 Q 499.63 537.15 515.26 536.52 Q 515.66 536.50 516.23 536.53 Q 518.21 536.62 517.11 535.95 Q 516.79 535.75 516.34 535.72 Q 511.05 535.40 505.75 535.45 Q 457.12 535.89 408.50 535.34 Q 406.90 535.33 407.78 535.95 Z"/>
<path fill="rgb(248,203,42)" fill-opacity="1.000" d="M 835.21 530.25 Q 833.39 534.05 830.15 536.50 Q 826.62 539.17 826.52 539.25 Q 808.86 554.30 786.77 561.36 Q 786.67 561.39 779.33 563.97 Q 776.02 565.12 772.57 565.76 Q 766.09 566.96 765.97 566.98 Q 748.76 570.66 734.50 570.25 Q 716.31 569.72 698.25 567.48 Q 696.61 567.28 695.04 566.80 Q 693.43 566.30 691.87 566.05 Q 687.76 565.39 684.19 563.18 A 0.96 0.20 77.1 0 1 683.88 562.50 L 683.75 562.04 Q 710.99 569.45 739.25 568.76 Q 794.74 567.42 835.21 530.25 Z"/>
<path fill="rgb(111,87,15)" fill-opacity="1.000" d="M 374.21 534.25 Q 374.18 534.93 374.96 534.75 L 375.04 535.25 Q 375.00 535.89 375.50 536.21 Q 372.16 536.80 374.21 534.25 Z"/>
<path fill="rgb(69,92,147)" fill-opacity="1.000" d="M 379.50 534.79 L 395.75 534.99 Q 397.80 535.02 398.55 536.88 Q 409.15 562.99 433.68 577.07 Q 434.24 577.39 434.21 578.00 L 433.29 578.50 Q 433.28 578.06 432.91 577.87 Q 425.28 574.02 418.93 568.32 Q 404.49 555.34 397.25 537.47 A 1.67 1.60 -10.1 0 0 395.75 536.47 L 375.50 536.21 Q 375.00 535.89 375.04 535.25 L 379.50 534.79 Z"/>
<path fill="rgb(69,92,147)" fill-opacity="1.000" d="M 537.00 535.04 Q 543.68 535.38 550.37 535.27 Q 551.41 535.25 552.56 535.63 Q 553.64 535.98 554.75 536.21 L 529.69 536.43 A 0.71 0.69 -80.7 0 0 529.03 536.92 Q 522.09 557.94 505.00 571.96 L 501.46 574.00 Q 500.80 574.62 500.71 572.98 A 1.62 1.61 69.8 0 1 501.34 571.60 Q 503.06 570.27 504.84 568.77 Q 505.57 568.16 508.43 566.06 Q 512.13 563.34 514.63 559.40 Q 516.28 556.82 518.22 554.46 Q 521.02 551.04 522.73 547.01 Q 524.98 541.71 525.03 541.59 Q 526.47 538.55 527.71 535.55 A 0.98 0.95 11.6 0 1 528.62 534.97 L 537.00 535.04 Z"/>
<path fill="rgb(47,87,184)" fill-opacity="1.000" d="M 407.78 535.95 Q 406.90 535.33 408.50 535.34 Q 457.12 535.89 505.75 535.45 Q 511.05 535.40 516.34 535.72 Q 516.79 535.75 517.11 535.95 Q 518.21 536.62 516.23 536.53 Q 515.66 536.50 515.26 536.52 Q 499.63 537.15 483.99 537.82 Q 473.16 538.28 463.99 538.13 Q 446.86 537.83 429.75 537.00 Q 420.13 536.53 409.49 536.50 A 3.04 3.03 62.8 0 1 407.78 535.95 Z"/>
<path fill="rgb(237,203,78)" fill-opacity="1.000" d="M 556.71 535.75 L 557.29 537.25 Q 557.15 538.18 556.44 538.19 Q 544.63 538.34 531.27 538.17 A 1.45 1.43 -79.5 0 0 529.89 539.13 Q 523.19 557.68 508.94 570.69 Q 506.60 572.82 506.21 573.50 Q 505.80 573.08 505.25 572.96 Q 505.42 572.31 505.00 571.96 Q 522.09 557.94 529.03 536.92 A 0.71 0.69 -80.7 0 1 529.69 536.43 L 554.75 536.21 Q 555.96 536.60 556.71 535.75 Z"/>
<path fill="rgb(237,203,78)" fill-opacity="1.000" d="M 505.00 571.96 Q 505.42 572.31 505.25 572.96 L 502.00 575.04 Q 501.55 574.62 501.46 574.00 L 505.00 571.96 Z"/>
<path fill="rgb(174,1,10)" fill-opacity="1.000" d="M 505.25 572.96 Q 505.80 573.08 506.21 573.50 Q 521.66 598.29 530.50 629.50 Q 538.11 656.39 534.75 683.50 Q 533.81 691.07 530.46 699.00 Q 529.95 696.66 531.19 693.19 Q 533.04 687.99 533.15 680.25 Q 533.25 673.75 533.25 667.25 Q 533.25 663.53 532.79 660.61 Q 531.98 655.44 531.97 655.34 Q 530.88 646.52 527.31 634.94 Q 520.98 614.37 512.62 598.51 Q 509.55 592.69 509.07 591.84 Q 507.19 588.53 504.89 585.54 A 0.70 0.69 -33.9 0 0 503.99 585.37 Q 472.09 603.81 437.53 592.02 Q 437.43 591.98 436.37 591.55 Q 434.10 590.63 432.75 592.04 Q 432.51 592.30 430.76 595.03 Q 429.31 597.29 428.67 599.91 Q 427.62 604.23 427.36 604.96 Q 423.48 615.86 420.42 627.01 Q 416.49 641.37 415.76 646.44 Q 414.22 657.12 416.50 667.50 Q 417.14 670.40 416.71 672.25 Q 414.38 665.56 414.00 659.50 Q 413.14 645.78 416.14 632.15 Q 417.11 627.72 421.33 612.83 Q 426.05 596.13 432.54 580.00 Q 433.07 579.50 433.29 578.75 L 436.25 579.71 Q 438.92 580.54 441.56 581.44 Q 465.06 589.41 488.25 581.25 Q 494.94 578.89 502.00 575.04 L 505.25 572.96 Z"/>
<path fill="rgb(177,0,9)" fill-opacity="1.000" d="M 434.21 578.00 L 436.25 579.71 L 433.29 578.75 L 433.29 578.50 L 434.21 578.00 Z"/>
<path fill="rgb(206,0,13)" fill-opacity="1.000" d="M 530.46 699.00 Q 529.34 702.21 526.19 707.19 Q 518.81 718.85 504.75 718.92 Q 491.92 718.99 482.36 710.65 Q 473.91 703.29 469.75 693.75 Q 468.43 690.72 466.66 688.91 A 0.42 0.40 -50.0 0 0 466.03 688.98 Q 458.98 699.30 446.50 697.75 Q 423.44 694.88 416.71 672.25 Q 417.14 670.40 416.50 667.50 Q 414.22 657.12 415.76 646.44 Q 416.49 641.37 420.42 627.01 Q 423.48 615.86 427.36 604.96 Q 427.62 604.23 428.67 599.91 Q 429.31 597.29 430.76 595.03 Q 432.51 592.30 432.75 592.04 Q 434.10 590.63 436.37 591.55 Q 437.43 591.98 437.53 592.02 Q 472.09 603.81 503.99 585.37 A 0.70 0.69 -33.9 0 1 504.89 585.54 Q 507.19 588.53 509.07 591.84 Q 509.55 592.69 512.62 598.51 Q 520.98 614.37 527.31 634.94 Q 530.88 646.52 531.97 655.34 Q 531.98 655.44 532.79 660.61 Q 533.25 663.53 533.25 667.25 Q 533.25 673.75 533.15 680.25 Q 533.04 687.99 531.19 693.19 Q 529.95 696.66 530.46 699.00 Z"/>
</svg>