<?xml version="1.0" encoding="UTF-8" standalone="no"?>
<!DOCTYPE svg PUBLIC "-//W3C//DTD SVG 1.1//EN" "http://www.w3.org/Graphics/SVG/1.1/DTD/svg11.dtd">
<svg xmlns="http://www.w3.org/2000/svg" version="1.1" viewBox="0 0 925 918">
<path fill="rgb(255,195,13)" fill-opacity="1.000" d="M 0.00 0.00 Q 32.91 0.00 65.81 0.00 Q 58.49 10.55 53.19 25.19 Q 48.12 39.20 51.54 52.50 Q 44.39 66.23 41.03 81.17 Q 38.44 92.70 39.45 100.98 Q 41.97 121.74 62.98 130.71 Q 85.37 140.27 109.75 138.75 Q 126.99 137.68 141.43 127.33 Q 142.27 126.74 142.01 127.73 Q 135.94 150.90 136.62 174.70 Q 136.86 183.16 138.08 189.72 Q 139.52 197.40 142.19 204.31 Q 149.32 222.79 165.99 231.28 Q 173.98 235.34 185.03 237.02 Q 208.41 240.57 229.97 231.36 Q 238.62 227.67 247.13 221.21 Q 258.25 212.78 267.28 202.09 Q 270.80 197.91 276.79 190.01 Q 281.43 183.87 285.71 177.47 Q 300.21 155.82 314.63 134.11 Q 322.49 122.27 335.19 105.94 Q 361.84 71.67 397.65 49.46 Q 420.13 35.52 440.25 25.75 Q 441.61 25.09 442.49 24.52 Q 443.85 23.64 444.70 23.34 Q 450.11 21.46 455.32 19.09 Q 480.36 7.68 507.04 0.89 Q 508.56 0.50 507.00 0.47 Q 505.95 0.45 505.06 0.00 Q 715.03 0.00 925.00 0.00 Q 925.00 459.00 925.00 918.00 Q 462.50 918.00 0.00 918.00 Q 0.00 459.00 0.00 0.00 Z M 895.0996 0.7144 A 7.22 0.57 -0.6 0 0 887.8740 0.2200 A 7.22 0.57 -0.6 0 0 880.6604 0.8656 A 7.22 0.57 -0.6 0 0 887.8860 1.3600 A 7.22 0.57 -0.6 0 0 895.0996 0.7144 Z M 14.46 381.75 Q 12.68 382.15 14.50 382.74 Q 16.45 383.37 18.29 384.25 Q 18.29 386.87 21.25 387.50 Q 24.36 388.16 33.99 392.61 A 1.10 1.05 -86.8 0 1 34.58 393.30 Q 35.46 396.34 35.80 399.49 Q 36.40 405.16 37.62 410.72 Q 39.02 417.18 39.97 423.71 Q 40.31 426.01 41.22 428.52 Q 42.16 431.09 42.69 433.31 Q 47.95 455.61 58.12 475.41 Q 67.09 492.88 78.89 508.57 Q 83.05 514.10 90.94 521.81 Q 106.06 536.58 121.94 545.56 Q 130.56 550.44 137.99 553.13 Q 139.82 553.80 141.72 554.85 Q 144.11 556.17 145.50 556.50 Q 155.94 559.01 166.31 561.80 Q 166.36 561.81 169.62 562.92 Q 171.82 563.68 174.10 563.58 Q 177.68 563.43 178.91 563.59 Q 189.06 564.91 203.25 565.00 Q 209.09 565.04 212.94 564.79 Q 220.13 564.34 220.21 564.33 Q 227.27 564.02 234.24 562.91 Q 240.69 561.88 241.78 561.67 Q 244.69 561.10 249.25 560.00 Q 265.65 556.03 276.33 551.35 Q 279.01 550.17 281.72 549.05 Q 283.81 548.18 286.91 546.36 Q 289.20 545.01 292.44 543.44 Q 295.56 541.92 300.81 538.31 Q 302.29 537.30 301.25 536.04 Q 329.20 516.92 347.94 489.44 Q 377.53 446.04 388.09 393.92 A 0.62 0.62 -84.7 0 1 388.68 393.43 L 523.50 391.96 L 528.51 392.00 A 1.04 0.80 69.2 0 1 529.24 392.45 Q 529.98 393.55 531.75 393.50 Q 541.13 393.21 551.58 392.98 A 1.97 1.96 -6.2 0 1 553.56 394.56 Q 556.57 409.58 561.17 423.57 Q 564.52 433.75 567.78 442.44 Q 572.63 455.36 579.56 468.69 Q 587.01 483.01 595.91 494.98 Q 601.54 502.57 604.95 506.65 Q 609.30 511.86 615.06 517.44 Q 626.79 528.80 635.94 535.81 Q 639.00 538.16 644.63 541.34 Q 644.77 541.42 652.57 546.09 Q 658.35 549.55 664.81 551.69 Q 667.70 552.64 674.00 555.75 Q 677.68 557.57 685.63 558.70 A 0.88 0.87 -14.2 0 1 686.22 559.05 L 686.45 559.34 A 1.46 1.41 78.7 0 0 687.23 559.88 Q 707.35 565.32 732.75 566.00 Q 754.46 566.58 771.90 562.68 Q 771.97 562.66 775.64 562.15 Q 777.53 561.89 780.25 561.00 Q 789.29 558.05 798.17 554.64 Q 814.98 548.19 828.82 536.78 Q 829.37 536.33 832.62 534.35 Q 835.78 532.44 836.75 528.54 Q 857.93 509.20 872.42 484.42 Q 896.56 443.12 905.94 394.11 A 1.71 1.63 -10.4 0 1 906.77 392.97 L 922.50 384.04 Q 922.71 382.80 921.96 382.07 Q 921.42 381.55 920.25 381.55 Q 916.83 381.58 913.24 382.39 A 3.03 3.02 -41.5 0 1 911.57 382.29 Q 897.88 377.52 885.19 374.56 Q 875.33 372.26 859.86 369.48 Q 850.28 367.75 840.10 366.34 Q 792.98 359.78 745.50 356.47 Q 696.66 353.06 647.74 351.13 Q 638.33 350.76 627.75 350.47 Q 491.27 346.73 354.75 349.23 Q 307.23 350.10 259.75 351.94 Q 204.04 354.10 148.49 358.93 Q 113.91 361.94 82.25 367.00 Q 63.59 369.98 44.00 375.75 Q 41.23 376.56 34.22 379.48 Q 31.89 380.45 29.47 380.37 Q 25.84 380.25 22.22 380.03 Q 22.10 380.02 19.45 379.59 Q 16.29 379.07 14.46 381.75 Z M 436.54 576.00 Q 429.06 594.81 423.75 614.31 Q 420.08 627.76 419.06 633.76 Q 417.23 644.60 418.00 655.50 Q 418.42 661.35 420.46 667.50 Q 424.91 684.18 439.84 690.96 Q 443.87 692.78 447.85 693.36 Q 452.04 693.97 456.30 693.50 Q 465.56 692.47 468.94 686.73 Q 471.01 683.21 472.56 686.99 Q 477.50 699.09 487.28 707.20 Q 496.90 715.18 509.50 714.91 Q 519.78 714.69 526.69 707.69 Q 531.64 702.67 534.21 695.50 Q 538.36 685.83 539.25 674.50 Q 541.16 650.33 535.24 627.64 Q 527.16 596.65 510.21 569.50 Q 511.49 567.96 512.93 566.68 Q 526.77 554.37 534.00 534.98 A 1.40 1.39 11.1 0 1 535.35 534.08 Q 545.88 534.49 556.90 534.04 Q 556.95 534.03 558.59 534.13 Q 560.20 534.21 561.29 533.00 Q 562.42 532.10 562.00 530.50 Q 561.01 526.74 559.86 523.78 Q 558.79 521.04 556.37 517.72 Q 550.61 509.81 544.74 501.99 Q 541.26 497.35 536.50 494.02 Q 533.14 491.67 530.33 488.66 Q 528.37 486.56 525.93 485.08 Q 514.30 477.99 501.65 472.96 Q 499.19 471.99 496.50 472.02 Q 494.05 472.05 491.94 470.81 Q 490.99 470.26 488.00 470.08 Q 486.36 469.98 484.12 469.34 Q 481.27 468.53 478.25 468.79 Q 476.94 468.05 475.52 468.08 Q 473.73 468.12 473.60 468.11 Q 455.03 466.72 437.31 472.32 Q 418.96 478.13 404.90 490.87 Q 399.75 495.55 397.86 497.35 Q 394.36 500.69 391.44 504.52 Q 387.70 509.41 383.38 516.32 Q 378.95 523.39 376.06 531.31 Q 375.24 533.56 377.50 533.75 Q 388.37 534.66 398.57 534.04 A 1.07 1.07 -15.5 0 1 399.58 534.61 Q 403.70 542.31 406.94 548.60 Q 407.53 549.75 408.94 551.15 Q 409.99 552.19 411.06 553.69 Q 420.99 567.57 436.54 576.00 Z M 784.00 893.54 Q 784.86 894.54 785.60 893.79 Q 786.00 893.39 786.01 892.58 Q 786.08 888.41 786.29 884.25 Q 789.79 888.20 792.04 893.00 Q 793.12 895.06 794.82 893.76 A 1.24 1.02 76.7 0 0 795.23 892.93 Q 795.68 887.01 795.29 881.07 Q 795.28 880.95 795.36 879.94 Q 795.43 879.02 794.50 878.96 Q 792.40 877.42 792.50 879.75 Q 792.67 883.69 792.00 885.79 Q 790.19 885.63 789.46 883.75 Q 788.26 880.89 786.00 878.79 Q 784.73 877.51 783.61 878.40 A 1.23 0.96 76.3 0 0 783.23 879.25 Q 782.98 885.10 783.44 892.81 Q 783.48 893.56 784.00 893.54 Z M 815.46 883.25 Q 814.92 883.33 814.54 883.75 Q 810.50 881.76 807.71 885.25 L 806.00 884.54 Q 801.93 881.27 798.71 883.84 Q 796.90 885.28 796.78 887.59 Q 796.66 889.94 798.04 892.00 Q 802.45 896.04 807.25 892.21 Q 807.80 893.25 808.75 893.54 Q 810.28 894.83 811.06 893.56 Q 811.97 892.08 811.71 890.35 Q 810.80 884.41 815.21 885.75 Q 815.95 888.60 815.75 890.25 Q 815.51 892.27 816.50 893.29 Q 817.60 894.21 820.31 894.06 Q 825.60 893.77 826.21 889.25 Q 826.32 891.24 828.04 892.25 Q 828.01 892.86 828.59 893.14 Q 831.76 894.63 835.13 893.73 Q 837.09 893.21 835.79 891.75 L 835.75 890.29 Q 836.48 890.28 836.96 889.75 L 838.71 893.50 Q 840.21 894.78 840.95 893.57 Q 841.86 892.09 841.50 890.39 Q 840.38 885.23 844.25 885.21 Q 845.27 885.38 846.21 885.00 Q 846.05 888.63 847.29 892.00 Q 848.74 894.83 851.59 893.76 A 1.01 0.97 -3.2 0 0 852.21 893.09 Q 852.56 891.71 851.47 892.72 Q 850.45 893.68 849.21 893.00 Q 848.96 892.02 849.29 891.00 Q 850.30 891.04 849.94 890.31 Q 849.71 889.85 849.67 889.64 Q 849.44 888.46 849.50 887.25 A 2.41 1.37 -17.7 0 1 850.94 885.69 Q 855.02 883.79 851.25 884.71 Q 851.29 883.00 849.75 882.46 Q 849.76 881.16 848.54 880.75 Q 847.25 879.58 845.92 882.54 A 1.63 1.63 22.6 0 1 843.85 883.39 Q 839.44 881.71 838.04 885.25 Q 837.19 885.38 836.96 886.00 Q 836.38 884.83 835.21 884.50 Q 829.55 880.43 826.04 886.25 Q 825.83 884.43 824.21 884.25 Q 821.85 882.71 819.00 882.71 Q 819.67 880.23 817.79 879.00 Q 817.38 877.53 816.43 878.23 A 1.32 0.59 89.7 0 0 816.06 879.07 L 815.46 883.25 Z M 861.75 885.79 Q 861.50 886.82 862.44 887.03 Q 864.77 887.54 867.15 887.57 Q 868.18 887.58 868.54 888.05 Q 869.04 888.68 868.79 889.75 Q 868.61 890.57 867.74 890.70 Q 865.13 891.11 862.48 891.03 Q 861.48 891.00 861.04 891.17 Q 859.78 891.64 861.00 893.04 Q 861.10 893.75 861.82 893.89 Q 863.75 894.25 865.68 894.17 Q 868.64 894.05 869.33 893.90 Q 871.27 893.49 872.50 891.71 Q 874.38 891.47 874.25 893.54 Q 876.93 894.68 877.25 891.46 Q 878.17 891.38 878.79 892.00 Q 878.98 892.73 879.69 893.05 Q 886.72 896.28 888.96 889.25 L 891.04 892.00 Q 891.80 894.41 894.75 893.75 Q 895.28 893.63 897.75 893.96 Q 898.78 894.27 899.32 893.76 Q 899.70 893.41 899.65 892.48 Q 899.50 889.34 899.66 886.19 A 0.73 0.66 85.3 0 1 900.16 885.54 Q 902.58 884.88 903.21 887.25 Q 903.69 889.09 903.44 890.99 Q 903.22 892.71 904.75 893.29 Q 904.43 894.03 905.64 893.92 A 1.13 1.12 89.1 0 0 906.65 892.87 Q 906.92 888.43 906.39 885.67 Q 906.19 884.67 905.25 884.29 Q 902.99 882.52 900.00 882.46 Q 899.33 881.30 899.50 880.75 Q 899.92 879.37 898.79 879.00 Q 897.23 877.24 896.92 879.52 Q 896.63 881.63 896.46 883.75 Q 895.84 883.66 895.50 884.21 Q 895.70 882.42 893.75 882.46 Q 893.19 881.32 892.00 880.79 Q 890.94 879.51 889.92 882.04 A 1.80 1.77 1.6 0 1 888.81 883.07 Q 887.45 883.50 887.71 884.25 L 886.79 884.25 Q 883.34 882.10 879.50 883.54 Q 877.91 883.88 877.04 885.25 Q 876.80 882.50 876.73 879.75 Q 876.71 878.99 876.00 878.79 Q 873.94 877.44 872.50 879.21 L 871.29 879.50 Q 871.37 878.62 870.50 878.50 Q 867.71 878.13 865.22 878.28 Q 862.28 878.46 861.00 880.17 Q 859.19 882.59 861.75 885.79 Z M 854.25 887.46 Q 853.46 887.55 854.06 887.94 Q 856.91 889.78 858.81 888.06 Q 860.30 886.72 858.54 886.50 Q 855.61 883.87 854.25 887.46 Z"/>
<path fill="rgb(173,1,10)" fill-opacity="1.000" d="M 65.81 0.00 Q 72.19 0.00 78.56 0.00 Q 76.58 1.91 74.02 2.89 Q 73.55 3.08 73.24 3.44 Q 64.34 13.86 58.50 26.21 Q 58.44 26.35 55.08 33.02 Q 52.14 38.84 51.81 44.06 Q 51.47 49.41 53.00 53.00 Q 53.90 55.12 53.46 56.50 L 51.54 52.50 Q 48.12 39.20 53.19 25.19 Q 58.49 10.55 65.81 0.00 Z"/>
<path fill="rgb(206,0,13)" fill-opacity="1.000" d="M 78.56 0.00 Q 81.31 0.00 84.06 0.00 Q 85.04 0.47 85.75 1.29 A 1.14 0.96 66.6 0 0 86.55 1.69 Q 158.65 1.48 230.76 1.71 Q 238.38 1.74 250.73 2.39 Q 266.50 3.22 280.25 2.75 Q 282.24 2.68 283.56 3.27 Q 284.06 3.50 284.51 3.49 Q 312.99 3.08 326.50 3.25 Q 361.31 3.68 373.75 3.50 Q 389.08 3.28 399.24 3.73 Q 399.71 3.75 400.17 4.02 Q 402.92 5.70 405.77 3.96 A 1.95 1.45 -53.5 0 1 406.69 3.68 L 430.50 3.75 Q 432.07 3.75 430.94 4.94 Q 429.92 6.00 429.46 7.34 A 1.10 1.02 -89.2 0 1 428.84 7.99 Q 427.31 8.57 425.81 9.19 Q 424.35 9.79 422.73 10.19 Q 417.25 11.57 412.04 13.76 Q 410.28 14.50 406.29 15.75 Q 403.36 16.67 400.68 18.24 Q 400.10 18.58 400.73 18.66 L 401.75 18.79 Q 401.07 19.30 400.69 19.44 Q 381.16 26.28 362.94 37.69 Q 343.30 49.98 328.87 67.36 Q 321.42 76.33 314.36 85.60 Q 302.78 100.82 290.39 115.38 Q 277.56 130.44 261.45 141.91 Q 236.46 159.69 206.42 156.69 Q 199.32 155.98 193.49 154.68 Q 186.86 153.19 181.00 150.50 Q 173.80 147.19 168.68 141.32 Q 164.09 136.05 161.33 128.26 Q 158.68 120.81 158.23 112.88 Q 157.89 107.03 158.62 98.62 Q 159.22 91.77 160.75 84.50 Q 165.55 61.62 175.08 41.36 A 0.74 0.46 -58.9 0 0 175.07 40.65 Q 174.85 40.42 174.49 40.74 Q 155.95 57.58 133.53 68.75 Q 119.64 75.67 104.24 77.71 Q 81.64 80.70 63.23 67.76 Q 56.94 63.33 53.46 56.50 Q 53.90 55.12 53.00 53.00 Q 51.47 49.41 51.81 44.06 Q 52.14 38.84 55.08 33.02 Q 58.44 26.35 58.50 26.21 Q 64.34 13.86 73.24 3.44 Q 73.55 3.08 74.02 2.89 Q 76.58 1.91 78.56 0.00 Z"/>
<path fill="rgb(184,0,9)" fill-opacity="1.000" d="M 84.06 0.00 Q 272.31 0.00 460.56 0.00 Q 461.47 0.45 462.51 0.31 Q 464.42 0.05 463.84 0.63 A 1.52 0.89 10.7 0 1 462.94 0.95 Q 460.70 1.08 456.50 2.00 Q 431.90 7.40 411.56 15.31 Q 409.07 16.28 401.75 18.79 L 400.73 18.66 Q 400.10 18.58 400.68 18.24 Q 403.36 16.67 406.29 15.75 Q 410.28 14.50 412.04 13.76 Q 417.25 11.57 422.73 10.19 Q 424.35 9.79 425.81 9.19 Q 427.31 8.57 428.84 7.99 A 1.10 1.02 -89.2 0 0 429.46 7.34 Q 429.92 6.00 430.94 4.94 Q 432.07 3.75 430.50 3.75 L 406.69 3.68 A 1.95 1.45 -53.5 0 0 405.77 3.96 Q 402.92 5.70 400.17 4.02 Q 399.71 3.75 399.24 3.73 Q 389.08 3.28 373.75 3.50 Q 361.31 3.68 326.50 3.25 Q 312.99 3.08 284.51 3.49 Q 284.06 3.50 283.56 3.27 Q 282.24 2.68 280.25 2.75 Q 266.50 3.22 250.73 2.39 Q 238.38 1.74 230.76 1.71 Q 158.65 1.48 86.55 1.69 A 1.14 0.96 66.6 0 1 85.75 1.29 Q 85.04 0.47 84.06 0.00 Z"/>
<path fill="rgb(190,154,40)" fill-opacity="1.000" d="M 460.56 0.00 Q 482.81 0.00 505.06 0.00 Q 505.95 0.45 507.00 0.47 Q 508.56 0.50 507.04 0.89 Q 480.36 7.68 455.32 19.09 Q 450.11 21.46 444.70 23.34 Q 443.85 23.64 442.49 24.52 Q 441.61 25.09 440.25 25.75 Q 420.13 35.52 397.65 49.46 Q 361.84 71.67 335.19 105.94 Q 322.49 122.27 314.63 134.11 Q 300.21 155.82 285.71 177.47 Q 281.43 183.87 276.79 190.01 Q 270.80 197.91 267.28 202.09 Q 258.25 212.78 247.13 221.21 Q 238.62 227.67 229.97 231.36 Q 208.41 240.57 185.03 237.02 Q 173.98 235.34 165.99 231.28 Q 149.32 222.79 142.19 204.31 Q 139.52 197.40 138.08 189.72 Q 136.86 183.16 136.62 174.70 Q 135.94 150.90 142.01 127.73 Q 142.27 126.74 141.43 127.33 Q 126.99 137.68 109.75 138.75 Q 85.37 140.27 62.98 130.71 Q 41.97 121.74 39.45 100.98 Q 38.44 92.70 41.03 81.17 Q 44.39 66.23 51.54 52.50 L 53.46 56.50 Q 56.94 63.33 63.23 67.76 Q 81.64 80.70 104.24 77.71 Q 119.64 75.67 133.53 68.75 Q 155.95 57.58 174.49 40.74 Q 174.85 40.42 175.07 40.65 A 0.74 0.46 -58.9 0 1 175.08 41.36 Q 165.55 61.62 160.75 84.50 Q 159.22 91.77 158.62 98.62 Q 157.89 107.03 158.23 112.88 Q 158.68 120.81 161.33 128.26 Q 164.09 136.05 168.68 141.32 Q 173.80 147.19 181.00 150.50 Q 186.86 153.19 193.49 154.68 Q 199.32 155.98 206.42 156.69 Q 236.46 159.69 261.45 141.91 Q 277.56 130.44 290.39 115.38 Q 302.78 100.82 314.36 85.60 Q 321.42 76.33 328.87 67.36 Q 343.30 49.98 362.94 37.69 Q 381.16 26.28 400.69 19.44 Q 401.07 19.30 401.75 18.79 Q 409.07 16.28 411.56 15.31 Q 431.90 7.40 456.50 2.00 Q 460.70 1.08 462.94 0.95 A 1.52 0.89 10.7 0 0 463.84 0.63 Q 464.42 0.05 462.51 0.31 Q 461.47 0.45 460.56 0.00 Z"/>
<ellipse fill="rgb(190,154,40)" fill-opacity="1.000" cx="0" cy="0" rx="7.22" ry="0.57" transform="translate(887.88,0.79) rotate(-0.6)"/>
<path fill="rgb(190,154,40)" fill-opacity="1.000" d="M 922.50 384.04 Q 778.75 384.37 635.00 385.06 Q 561.21 385.41 487.41 385.26 Q 484.45 385.25 478.09 385.41 Q 473.41 385.52 468.74 385.45 Q 455.73 385.26 454.76 385.27 Q 414.87 385.32 374.99 384.67 Q 364.77 384.51 355.00 384.50 Q 316.75 384.49 278.50 384.05 Q 227.63 383.46 176.75 383.28 Q 166.69 383.25 156.75 383.12 Q 98.13 382.37 39.50 382.08 Q 26.98 382.02 14.46 381.75 Q 16.29 379.07 19.45 379.59 Q 22.10 380.02 22.22 380.03 Q 25.84 380.25 29.47 380.37 Q 31.89 380.45 34.22 379.48 Q 41.23 376.56 44.00 375.75 Q 63.59 369.98 82.25 367.00 Q 113.91 361.94 148.49 358.93 Q 204.04 354.10 259.75 351.94 Q 307.23 350.10 354.75 349.23 Q 491.27 346.73 627.75 350.47 Q 638.33 350.76 647.74 351.13 Q 696.66 353.06 745.50 356.47 Q 792.98 359.78 840.10 366.34 Q 850.28 367.75 859.86 369.48 Q 875.33 372.26 885.19 374.56 Q 897.88 377.52 911.57 382.29 A 3.03 3.02 -41.5 0 0 913.24 382.39 Q 916.83 381.58 920.25 381.55 Q 921.42 381.55 921.96 382.07 Q 922.71 382.80 922.50 384.04 Z"/>
<path fill="rgb(111,87,15)" fill-opacity="1.000" d="M 14.46 381.75 Q 26.98 382.02 39.50 382.08 Q 98.13 382.37 156.75 383.12 Q 166.69 383.25 176.75 383.28 Q 227.63 383.46 278.50 384.05 Q 316.75 384.49 355.00 384.50 Q 364.77 384.51 374.99 384.67 Q 414.87 385.32 454.76 385.27 Q 455.73 385.26 468.74 385.45 Q 473.41 385.52 478.09 385.41 Q 484.45 385.25 487.41 385.26 Q 561.21 385.41 635.00 385.06 Q 778.75 384.37 922.50 384.04 L 906.77 392.97 A 1.71 1.63 -10.4 0 0 905.94 394.11 Q 896.56 443.12 872.42 484.42 Q 857.93 509.20 836.75 528.54 Q 794.90 565.08 738.75 564.88 Q 713.05 564.79 689.25 558.50 Q 649.42 547.97 619.30 519.19 Q 595.99 496.92 580.44 467.06 Q 562.09 431.85 554.91 392.27 A 0.61 0.61 84.5 0 0 554.30 391.76 L 523.50 391.96 L 388.68 393.43 A 0.62 0.62 -84.7 0 0 388.09 393.92 Q 377.53 446.04 347.94 489.44 Q 329.20 516.92 301.25 536.04 Q 271.03 556.23 235.00 561.50 Q 203.01 566.19 171.38 560.84 Q 161.00 559.09 151.92 556.29 Q 107.65 542.63 78.80 505.48 Q 64.51 487.09 55.36 465.67 Q 40.44 430.79 36.68 392.30 A 1.89 1.89 7.8 0 0 35.47 390.71 L 18.29 384.25 Q 16.45 383.37 14.50 382.74 Q 12.68 382.15 14.46 381.75 Z M 359.56 392.77 Q 306.53 392.08 252.56 391.24 A 0.76 0.75 -87.7 0 0 251.79 391.96 Q 251.25 404.79 246.51 415.74 Q 242.13 425.85 235.24 432.06 Q 227.14 439.35 215.74 441.71 Q 207.19 443.48 198.50 442.72 Q 174.44 440.64 162.00 420.25 Q 154.02 407.17 152.24 389.81 A 0.56 0.56 -2.8 0 0 151.68 389.31 L 49.75 389.50 A 0.51 0.51 -89.4 0 0 49.24 390.00 Q 48.96 404.88 51.74 419.50 Q 60.20 463.86 89.69 496.92 Q 96.27 504.30 103.96 510.92 Q 147.26 548.15 205.01 549.53 Q 215.10 549.77 224.96 548.63 Q 274.19 542.96 311.32 510.71 Q 318.88 504.14 325.54 496.66 Q 363.55 453.91 366.05 394.15 A 1.38 1.37 0.6 0 0 364.64 392.72 Q 361.53 392.80 359.56 392.77 Z M 853.90 491.78 Q 889.23 448.95 890.53 390.86 A 0.60 0.60 -89.5 0 0 889.93 390.25 L 776.81 390.56 A 0.51 0.51 -89.4 0 0 776.30 391.06 Q 776.07 403.56 771.44 414.76 Q 767.21 425.00 760.48 431.30 Q 751.58 439.61 738.66 441.77 Q 729.91 443.24 723.75 442.75 Q 698.29 440.71 685.87 418.71 Q 678.63 405.89 676.71 390.90 A 0.99 0.99 -4.3 0 0 675.72 390.05 L 574.44 391.52 A 0.88 0.88 -0.8 0 0 573.57 392.41 Q 573.97 427.24 589.06 459.19 Q 608.88 501.13 649.81 526.44 Q 685.77 548.67 729.00 549.37 Q 738.94 549.53 748.97 548.43 Q 801.86 542.59 840.24 506.38 Q 847.55 499.48 853.90 491.78 Z"/>
<path fill="rgb(248,203,44)" fill-opacity="1.000" d="M 18.29 384.25 L 35.47 390.71 A 1.89 1.89 7.8 0 1 36.68 392.30 Q 40.44 430.79 55.36 465.67 Q 64.51 487.09 78.80 505.48 Q 107.65 542.63 151.92 556.29 Q 161.00 559.09 171.38 560.84 Q 203.01 566.19 235.00 561.50 Q 271.03 556.23 301.25 536.04 Q 302.29 537.30 300.81 538.31 Q 295.56 541.92 292.44 543.44 Q 289.20 545.01 286.91 546.36 Q 283.81 548.18 281.72 549.05 Q 279.01 550.17 276.33 551.35 Q 265.65 556.03 249.25 560.00 Q 244.69 561.10 241.78 561.67 Q 240.69 561.88 234.24 562.91 Q 227.27 564.02 220.21 564.33 Q 220.13 564.34 212.94 564.79 Q 209.09 565.04 203.25 565.00 Q 189.06 564.91 178.91 563.59 Q 177.68 563.43 174.10 563.58 Q 171.82 563.68 169.62 562.92 Q 166.36 561.81 166.31 561.80 Q 155.94 559.01 145.50 556.50 Q 144.11 556.17 141.72 554.85 Q 139.82 553.80 137.99 553.13 Q 130.56 550.44 121.94 545.56 Q 106.06 536.58 90.94 521.81 Q 83.05 514.10 78.89 508.57 Q 67.09 492.88 58.12 475.41 Q 47.95 455.61 42.69 433.31 Q 42.16 431.09 41.22 428.52 Q 40.31 426.01 39.97 423.71 Q 39.02 417.18 37.62 410.72 Q 36.40 405.16 35.80 399.49 Q 35.46 396.34 34.58 393.30 A 1.10 1.05 -86.8 0 0 33.99 392.61 Q 24.36 388.16 21.25 387.50 Q 18.29 386.87 18.29 384.25 Z"/>
<path fill="rgb(255,255,255)" fill-opacity="1.000" d="M 359.56 392.77 Q 361.53 392.80 364.64 392.72 A 1.38 1.37 0.6 0 1 366.05 394.15 Q 363.55 453.91 325.54 496.66 Q 318.88 504.14 311.32 510.71 Q 274.19 542.96 224.96 548.63 Q 215.10 549.77 205.01 549.53 Q 147.26 548.15 103.96 510.92 Q 96.27 504.30 89.69 496.92 Q 60.20 463.86 51.74 419.50 Q 48.96 404.88 49.24 390.00 A 0.51 0.51 -89.4 0 1 49.75 389.50 L 151.68 389.31 A 0.56 0.56 -2.8 0 1 152.24 389.81 Q 154.02 407.17 162.00 420.25 Q 174.44 440.64 198.50 442.72 Q 207.19 443.48 215.74 441.71 Q 227.14 439.35 235.24 432.06 Q 242.13 425.85 246.51 415.74 Q 251.25 404.79 251.79 391.96 A 0.76 0.75 -87.7 0 1 252.56 391.24 Q 306.53 392.08 359.56 392.77 Z"/>
<path fill="rgb(255,255,255)" fill-opacity="1.000" d="M 840.24 506.38 Q 801.86 542.59 748.97 548.43 Q 738.94 549.53 729.00 549.37 Q 685.77 548.67 649.81 526.44 Q 608.88 501.13 589.06 459.19 Q 573.97 427.24 573.57 392.41 A 0.88 0.88 -0.5 0 1 574.44 391.52 L 675.72 390.05 A 0.99 0.99 -4.3 0 1 676.71 390.90 Q 678.63 405.89 685.87 418.71 Q 698.29 440.71 723.75 442.75 Q 729.91 443.24 738.66 441.77 Q 751.58 439.61 760.48 431.30 Q 767.21 425.00 771.44 414.76 Q 776.07 403.56 776.30 391.06 A 0.51 0.51 -89.4 0 1 776.81 390.56 L 889.93 390.25 A 0.60 0.60 -89.5 0 1 890.53 390.86 Q 889.23 448.95 853.90 491.78 Q 847.55 499.48 840.24 506.38 Z"/>
<path fill="rgb(248,203,44)" fill-opacity="1.000" d="M 836.75 528.54 Q 835.78 532.44 832.62 534.35 Q 829.37 536.33 828.82 536.78 Q 814.98 548.19 798.17 554.64 Q 789.29 558.05 780.25 561.00 Q 777.53 561.89 775.64 562.15 Q 771.97 562.66 771.90 562.68 Q 754.46 566.58 732.75 566.00 Q 707.35 565.32 687.23 559.88 A 1.46 1.41 78.7 0 1 686.45 559.34 L 686.22 559.05 A 0.88 0.87 -14.2 0 0 685.63 558.70 Q 677.68 557.57 674.00 555.75 Q 667.70 552.64 664.81 551.69 Q 658.35 549.55 652.57 546.09 Q 644.77 541.42 644.63 541.34 Q 639.00 538.16 635.94 535.81 Q 626.79 528.80 615.06 517.44 Q 609.30 511.86 604.95 506.65 Q 601.54 502.57 595.91 494.98 Q 587.01 483.01 579.56 468.69 Q 572.63 455.36 567.78 442.44 Q 564.52 433.75 561.17 423.57 Q 556.57 409.58 553.56 394.56 A 1.97 1.96 -6.2 0 0 551.58 392.98 Q 541.13 393.21 531.75 393.50 Q 529.98 393.55 529.24 392.45 A 1.04 0.80 69.2 0 0 528.51 392.00 L 523.50 391.96 L 554.30 391.76 A 0.61 0.61 84.5 0 1 554.91 392.27 Q 562.09 431.85 580.44 467.06 Q 595.99 496.92 619.30 519.19 Q 649.42 547.97 689.25 558.50 Q 713.05 564.79 738.75 564.88 Q 794.90 565.08 836.75 528.54 Z"/>
<path fill="rgb(237,203,79)" fill-opacity="1.000" d="M 478.25 468.79 Q 477.52 470.19 475.75 469.79 Q 431.73 466.37 401.06 496.81 Q 386.59 511.18 378.21 530.25 Q 376.14 532.78 379.50 532.21 Q 389.75 532.77 400.00 532.29 L 401.00 532.79 Q 411.69 560.26 437.54 574.25 L 436.54 576.00 Q 420.99 567.57 411.06 553.69 Q 409.99 552.19 408.94 551.15 Q 407.53 549.75 406.94 548.60 Q 403.70 542.31 399.58 534.61 A 1.07 1.07 -15.5 0 0 398.57 534.04 Q 388.37 534.66 377.50 533.75 Q 375.24 533.56 376.06 531.31 Q 378.95 523.39 383.38 516.32 Q 387.70 509.41 391.44 504.52 Q 394.36 500.69 397.86 497.35 Q 399.75 495.55 404.90 490.87 Q 418.96 478.13 437.31 472.32 Q 455.03 466.72 473.60 468.11 Q 473.73 468.12 475.52 468.08 Q 476.94 468.05 478.25 468.79 Z"/>
<path fill="rgb(248,203,44)" fill-opacity="1.000" d="M 478.25 468.79 Q 481.27 468.53 484.12 469.34 Q 486.36 469.98 488.00 470.08 Q 490.99 470.26 491.94 470.81 Q 494.05 472.05 496.50 472.02 Q 499.19 471.99 501.65 472.96 Q 514.30 477.99 525.93 485.08 Q 528.37 486.56 530.33 488.66 Q 533.14 491.67 536.50 494.02 Q 541.26 497.35 544.74 501.99 Q 550.61 509.81 556.37 517.72 Q 558.79 521.04 559.86 523.78 Q 561.01 526.74 562.00 530.50 Q 562.42 532.10 561.29 533.00 L 560.79 532.25 Q 554.95 518.67 545.54 507.25 Q 529.24 487.06 505.25 477.21 Q 491.05 471.37 475.75 469.79 Q 477.52 470.19 478.25 468.79 Z"/>
<path fill="rgb(54,72,118)" fill-opacity="1.000" d="M 475.75 469.79 Q 491.05 471.37 505.25 477.21 Q 503.79 477.48 501.56 476.69 Q 478.84 468.60 454.32 471.74 Q 447.75 472.58 444.21 473.45 Q 439.74 474.55 434.44 476.69 Q 421.57 481.88 411.87 489.16 Q 409.25 491.14 405.87 494.63 Q 403.04 497.55 400.16 500.41 Q 395.81 504.73 392.32 509.70 Q 391.22 511.28 385.69 519.85 Q 382.26 525.18 379.21 530.75 L 379.04 530.75 L 378.21 530.25 Q 386.59 511.18 401.06 496.81 Q 431.73 466.37 475.75 469.79 Z"/>
<path fill="rgb(44,82,172)" fill-opacity="1.000" d="M 505.25 477.21 Q 529.24 487.06 545.54 507.25 Q 545.26 508.52 545.69 509.06 Q 552.82 518.14 557.73 528.58 Q 558.37 529.95 558.05 530.62 Q 557.54 531.68 555.25 530.96 Q 556.81 530.31 555.31 529.44 Q 554.04 528.70 551.92 525.27 Q 539.47 505.10 519.96 492.48 Q 511.56 487.05 502.13 483.50 Q 479.62 475.04 455.26 477.30 Q 451.61 477.65 447.33 478.78 Q 443.43 479.82 439.54 480.89 Q 425.52 484.75 413.79 493.33 Q 394.52 507.42 383.03 528.31 Q 382.73 528.86 382.11 529.34 Q 380.33 530.72 383.00 531.04 Q 381.00 531.78 379.21 530.75 Q 382.26 525.18 385.69 519.85 Q 391.22 511.28 392.32 509.70 Q 395.81 504.73 400.16 500.41 Q 403.04 497.55 405.87 494.63 Q 409.25 491.14 411.87 489.16 Q 421.57 481.88 434.44 476.69 Q 439.74 474.55 444.21 473.45 Q 447.75 472.58 454.32 471.74 Q 478.84 468.60 501.56 476.69 Q 503.79 477.48 505.25 477.21 Z"/>
<path fill="rgb(52,96,208)" fill-opacity="1.000" d="M 555.25 530.96 L 532.44 530.70 A 0.67 0.67 -80.7 0 0 531.79 531.17 Q 526.52 548.59 513.40 561.04 Q 513.10 561.32 511.31 562.60 Q 510.23 563.37 509.46 564.51 Q 509.18 564.91 508.76 565.18 Q 506.59 566.55 506.75 569.21 Q 505.66 569.91 506.25 570.96 Q 496.42 575.84 492.44 577.19 Q 465.99 586.16 440.25 575.50 Q 439.43 575.16 438.25 574.21 Q 436.52 572.03 434.07 570.67 Q 427.06 566.79 421.33 561.17 Q 412.18 552.19 406.32 540.82 Q 405.44 539.12 404.42 537.36 Q 402.94 534.81 402.69 533.81 Q 402.31 532.33 401.00 532.79 L 400.00 532.29 Q 400.64 530.87 399.23 530.94 Q 398.41 530.99 398.26 530.98 Q 390.63 530.67 383.00 531.04 Q 380.33 530.72 382.11 529.34 Q 382.73 528.86 383.03 528.31 Q 394.52 507.42 413.79 493.33 Q 425.52 484.75 439.54 480.89 Q 443.43 479.82 447.33 478.78 Q 451.61 477.65 455.26 477.30 Q 479.62 475.04 502.13 483.50 Q 511.56 487.05 519.96 492.48 Q 539.47 505.10 551.92 525.27 Q 554.04 528.70 555.31 529.44 Q 556.81 530.31 555.25 530.96 Z M 429.06 531.44 Q 417.60 531.32 414.13 531.48 Q 413.74 531.50 413.40 531.64 Q 411.27 532.51 414.00 532.58 Q 434.97 533.06 455.94 533.88 Q 476.11 534.67 496.25 533.62 Q 502.99 533.27 508.74 533.15 Q 518.99 532.93 521.25 532.50 Q 521.87 532.38 521.74 532.06 A 0.88 0.47 2.6 0 0 521.10 531.68 Q 517.30 531.06 513.46 531.19 Q 506.98 531.41 506.90 531.41 Q 500.07 531.36 493.25 531.43 Q 461.16 531.77 429.06 531.44 Z"/>
<path fill="rgb(69,90,137)" fill-opacity="1.000" d="M 545.54 507.25 Q 554.95 518.67 560.79 532.25 L 533.76 532.50 A 1.05 1.04 8.7 0 0 532.76 533.23 Q 526.02 554.19 508.96 568.00 L 506.75 569.21 Q 506.59 566.55 508.76 565.18 Q 509.18 564.91 509.46 564.51 Q 510.23 563.37 511.31 562.60 Q 513.10 561.32 513.40 561.04 Q 526.52 548.59 531.79 531.17 A 0.67 0.67 -80.7 0 1 532.44 530.70 L 555.25 530.96 Q 557.54 531.68 558.05 530.62 Q 558.37 529.95 557.73 528.58 Q 552.82 518.14 545.69 509.06 Q 545.26 508.52 545.54 507.25 Z"/>
<path fill="rgb(111,87,15)" fill-opacity="1.000" d="M 378.21 530.25 L 379.04 530.75 Q 378.70 531.74 379.50 532.21 Q 376.14 532.78 378.21 530.25 Z"/>
<path fill="rgb(54,72,118)" fill-opacity="1.000" d="M 379.04 530.75 L 379.21 530.75 Q 381.00 531.78 383.00 531.04 Q 390.63 530.67 398.26 530.98 Q 398.41 530.99 399.23 530.94 Q 400.64 530.87 400.00 532.29 Q 389.75 532.77 379.50 532.21 Q 378.70 531.74 379.04 530.75 Z"/>
<path fill="rgb(47,88,186)" fill-opacity="1.000" d="M 429.06 531.44 Q 461.16 531.77 493.25 531.43 Q 500.07 531.36 506.90 531.41 Q 506.98 531.41 513.46 531.19 Q 517.30 531.06 521.10 531.68 A 0.88 0.47 2.6 0 1 521.74 532.06 Q 521.87 532.38 521.25 532.50 Q 518.99 532.93 508.74 533.15 Q 502.99 533.27 496.25 533.62 Q 476.11 534.67 455.94 533.88 Q 434.97 533.06 414.00 532.58 Q 411.27 532.51 413.40 531.64 Q 413.74 531.50 414.13 531.48 Q 417.60 531.32 429.06 531.44 Z"/>
<path fill="rgb(237,203,79)" fill-opacity="1.000" d="M 560.79 532.25 L 561.29 533.00 Q 560.20 534.21 558.59 534.13 Q 556.95 534.03 556.90 534.04 Q 545.88 534.49 535.35 534.08 A 1.40 1.39 11.1 0 0 534.00 534.98 Q 526.77 554.37 512.93 566.68 Q 511.49 567.96 510.21 569.50 Q 509.83 569.08 509.29 569.00 L 508.96 568.00 Q 526.02 554.19 532.76 533.23 A 1.05 1.04 8.7 0 1 533.76 532.50 L 560.79 532.25 Z"/>
<path fill="rgb(69,90,137)" fill-opacity="1.000" d="M 401.00 532.79 Q 402.31 532.33 402.69 533.81 Q 402.94 534.81 404.42 537.36 Q 405.44 539.12 406.32 540.82 Q 412.18 552.19 421.33 561.17 Q 427.06 566.79 434.07 570.67 Q 436.52 572.03 438.25 574.21 L 437.54 574.25 Q 411.69 560.26 401.00 532.79 Z"/>
<path fill="rgb(237,203,79)" fill-opacity="1.000" d="M 508.96 568.00 L 509.29 569.00 L 506.25 570.96 Q 505.66 569.91 506.75 569.21 L 508.96 568.00 Z"/>
<path fill="rgb(173,1,10)" fill-opacity="1.000" d="M 509.29 569.00 Q 509.83 569.08 510.21 569.50 Q 527.16 596.65 535.24 627.64 Q 541.16 650.33 539.25 674.50 Q 538.36 685.83 534.21 695.50 Q 533.75 694.46 534.19 693.19 Q 537.36 683.89 537.44 673.50 Q 537.48 668.11 537.50 662.73 Q 537.50 659.05 536.57 654.89 Q 535.43 649.79 534.72 644.62 Q 534.18 640.72 533.11 637.02 Q 532.27 634.12 531.00 629.50 Q 526.08 611.58 514.67 590.38 Q 512.29 585.97 509.05 581.59 A 0.80 0.79 56.5 0 0 508.00 581.37 Q 474.65 600.53 439.39 587.23 A 1.89 1.88 31.7 0 0 437.34 587.71 Q 434.43 590.85 433.64 593.67 Q 430.59 604.42 427.03 615.01 Q 423.08 626.74 420.66 638.86 Q 419.22 646.07 419.35 651.74 Q 419.49 658.28 420.84 664.71 A 1.54 0.99 -46.0 0 1 420.66 665.61 Q 420.21 666.46 420.46 667.50 Q 418.42 661.35 418.00 655.50 Q 417.23 644.60 419.06 633.76 Q 420.08 627.76 423.75 614.31 Q 429.06 594.81 436.54 576.00 L 437.54 574.25 L 438.25 574.21 Q 439.43 575.16 440.25 575.50 Q 465.99 586.16 492.44 577.19 Q 496.42 575.84 506.25 570.96 L 509.29 569.00 Z"/>
<path fill="rgb(206,0,13)" fill-opacity="1.000" d="M 534.21 695.50 Q 531.64 702.67 526.69 707.69 Q 519.78 714.69 509.50 714.91 Q 496.90 715.18 487.28 707.20 Q 477.50 699.09 472.56 686.99 Q 471.01 683.21 468.94 686.73 Q 465.56 692.47 456.30 693.50 Q 452.04 693.97 447.85 693.36 Q 443.87 692.78 439.84 690.96 Q 424.91 684.18 420.46 667.50 Q 420.21 666.46 420.66 665.61 A 1.54 0.99 -46.0 0 0 420.84 664.71 Q 419.49 658.28 419.35 651.74 Q 419.22 646.07 420.66 638.86 Q 423.08 626.74 427.03 615.01 Q 430.59 604.42 433.64 593.67 Q 434.43 590.85 437.34 587.71 A 1.89 1.88 31.7 0 1 439.39 587.23 Q 474.65 600.53 508.00 581.37 A 0.80 0.79 56.5 0 1 509.05 581.59 Q 512.29 585.97 514.67 590.38 Q 526.08 611.58 531.00 629.50 Q 532.27 634.12 533.11 637.02 Q 534.18 640.72 534.72 644.62 Q 535.43 649.79 536.57 654.89 Q 537.50 659.05 537.50 662.73 Q 537.48 668.11 537.44 673.50 Q 537.36 683.89 534.19 693.19 Q 533.75 694.46 534.21 695.50 Z"/>
<path fill="rgb(255,240,163)" fill-opacity="1.000" d="M 786.00 878.79 L 789.21 884.25 L 791.25 887.79 Q 792.07 891.21 792.21 887.75 Q 791.87 886.80 792.00 885.79 Q 792.67 883.69 792.50 879.75 Q 792.40 877.42 794.50 878.96 Q 793.74 888.42 794.25 890.75 Q 794.99 894.12 792.04 893.00 Q 789.79 888.20 786.29 884.25 Q 786.03 882.73 785.66 881.86 Q 785.00 880.27 785.00 881.99 Q 785.00 887.00 785.05 892.00 Q 785.07 893.14 784.00 893.54 Q 783.48 893.56 783.44 892.81 Q 782.98 885.10 783.23 879.25 A 1.23 0.96 76.3 0 1 783.61 878.40 Q 784.73 877.51 786.00 878.79 Z"/>
<path fill="rgb(255,240,163)" fill-opacity="1.000" d="M 817.79 879.00 Q 817.74 879.67 817.74 880.34 Q 817.74 880.76 817.52 881.62 Q 817.17 883.00 819.00 882.71 Q 821.85 882.71 824.21 884.25 Q 824.96 885.32 825.00 887.50 Q 825.11 893.39 819.50 892.95 Q 817.95 892.83 816.50 893.29 Q 815.51 892.27 815.75 890.25 Q 815.95 888.60 815.21 885.75 Q 815.68 884.54 815.46 883.25 L 816.06 879.07 A 1.32 0.59 89.7 0 1 816.43 878.23 Q 817.38 877.53 817.79 879.00 Z M 819.29 891.00 Q 823.62 890.77 822.54 886.25 Q 821.83 883.93 819.25 884.50 A 1.80 0.77 -10.5 0 0 817.75 885.50 Q 817.75 887.88 817.75 890.25 Q 817.75 891.59 819.29 891.00 Z"/>
<path fill="rgb(255,240,163)" fill-opacity="1.000" d="M 871.29 879.50 Q 868.34 880.33 864.63 879.93 Q 862.29 879.68 862.01 882.02 Q 861.66 884.96 865.00 884.21 L 869.25 884.71 L 871.54 886.25 Q 872.60 889.88 870.56 891.74 Q 869.23 892.95 865.98 893.03 Q 863.49 893.10 861.00 893.04 Q 859.78 891.64 861.04 891.17 Q 861.48 891.00 862.48 891.03 Q 865.13 891.11 867.74 890.70 Q 868.61 890.57 868.79 889.75 Q 870.67 885.99 866.50 886.47 Q 864.01 886.76 861.75 885.79 Q 859.19 882.59 861.00 880.17 Q 862.28 878.46 865.22 878.28 Q 867.71 878.13 870.50 878.50 Q 871.37 878.62 871.29 879.50 Z"/>
<path fill="rgb(255,240,163)" fill-opacity="1.000" d="M 876.00 878.79 Q 875.28 885.98 876.00 890.50 Q 876.41 893.06 874.25 893.54 Q 874.38 891.47 872.50 891.71 Q 873.15 889.27 872.71 886.75 Q 874.11 883.58 872.50 880.54 L 872.00 880.46 Q 873.61 880.07 872.50 879.21 Q 873.94 877.44 876.00 878.79 Z"/>
<path fill="rgb(255,255,255)" fill-opacity="1.000" d="M 898.79 879.00 Q 898.07 880.88 898.79 882.75 L 898.75 884.46 Q 898.37 884.73 898.46 885.25 Q 897.43 885.53 896.46 885.25 L 896.46 883.75 Q 896.63 881.63 896.92 879.52 Q 897.23 877.24 898.79 879.00 Z"/>
<path fill="rgb(111,87,15)" fill-opacity="1.000" d="M 786.00 878.79 Q 788.26 880.89 789.46 883.75 Q 789.16 883.90 789.21 884.25 L 786.00 878.79 Z"/>
<path fill="rgb(12,2,1)" fill-opacity="1.000" d="M 876.00 878.79 Q 876.71 878.99 876.73 879.75 Q 876.80 882.50 877.04 885.25 L 877.25 891.46 Q 876.93 894.68 874.25 893.54 Q 876.41 893.06 876.00 890.50 Q 875.28 885.98 876.00 878.79 Z"/>
<path fill="rgb(12,2,1)" fill-opacity="1.000" d="M 794.50 878.96 Q 795.43 879.02 795.36 879.94 Q 795.28 880.95 795.29 881.07 Q 795.68 887.01 795.23 892.93 A 1.24 1.02 76.7 0 1 794.82 893.76 Q 793.12 895.06 792.04 893.00 Q 794.99 894.12 794.25 890.75 Q 793.74 888.42 794.50 878.96 Z"/>
<path fill="rgb(111,87,15)" fill-opacity="1.000" d="M 817.79 879.00 Q 819.67 880.23 819.00 882.71 Q 817.17 883.00 817.52 881.62 Q 817.74 880.76 817.74 880.34 Q 817.74 879.67 817.79 879.00 Z"/>
<path fill="rgb(12,2,1)" fill-opacity="1.000" d="M 898.79 879.00 Q 899.92 879.37 899.50 880.75 Q 899.33 881.30 900.00 882.46 Q 899.48 882.88 898.79 882.75 Q 898.07 880.88 898.79 879.00 Z"/>
<path fill="rgb(12,2,1)" fill-opacity="1.000" d="M 872.50 879.21 Q 873.61 880.07 872.00 880.46 Q 869.57 881.26 864.88 881.24 A 1.67 1.66 8.5 0 0 863.29 882.41 Q 862.84 883.90 865.04 884.00 L 865.00 884.21 Q 861.66 884.96 862.01 882.02 Q 862.29 879.68 864.63 879.93 Q 868.34 880.33 871.29 879.50 L 872.50 879.21 Z"/>
<path fill="rgb(255,240,163)" fill-opacity="1.000" d="M 848.54 880.75 Q 847.06 883.36 849.75 882.46 Q 851.29 883.00 851.25 884.71 L 849.07 884.53 A 0.70 0.60 -78.5 0 0 848.41 885.05 Q 847.51 888.24 849.29 891.00 Q 848.96 892.02 849.21 893.00 Q 848.05 892.90 847.29 892.00 Q 846.05 888.63 846.21 885.00 Q 845.79 884.17 844.75 884.54 Q 841.62 883.55 840.29 886.00 L 838.04 885.25 Q 839.44 881.71 843.85 883.39 A 1.63 1.63 22.6 0 0 845.92 882.54 Q 847.25 879.58 848.54 880.75 Z"/>
<path fill="rgb(255,240,163)" fill-opacity="1.000" d="M 892.00 880.79 Q 890.81 884.05 893.75 882.46 Q 895.70 882.42 895.50 884.21 L 892.55 884.58 A 0.65 0.52 -2.6 0 0 892.00 885.06 Q 891.73 887.71 892.63 890.22 A 0.81 0.71 79.2 0 0 893.31 890.75 L 894.21 890.75 L 895.50 891.04 L 895.50 892.21 Q 893.10 894.27 891.04 892.00 L 888.96 889.25 L 889.00 886.29 Q 890.47 885.11 889.48 884.65 A 0.86 0.45 -46.8 0 0 888.73 884.91 Q 888.29 885.28 887.71 884.25 Q 887.45 883.50 888.81 883.07 A 1.80 1.77 1.6 0 0 889.92 882.04 Q 890.94 879.51 892.00 880.79 Z"/>
<path fill="rgb(255,195,13)" fill-opacity="1.000" d="M 872.00 880.46 L 872.50 880.54 Q 872.29 881.10 872.25 881.68 Q 872.22 882.09 872.51 882.77 Q 873.34 884.70 872.00 886.46 Q 871.74 886.41 871.54 886.25 L 869.25 884.71 Q 867.36 883.22 865.04 884.00 Q 862.84 883.90 863.29 882.41 A 1.67 1.66 8.5 0 1 864.88 881.24 Q 869.57 881.26 872.00 880.46 Z"/>
<path fill="rgb(190,154,40)" fill-opacity="1.000" d="M 872.50 880.54 Q 874.11 883.58 872.71 886.75 Q 872.40 886.50 872.00 886.46 Q 873.34 884.70 872.51 882.77 Q 872.22 882.09 872.25 881.68 Q 872.29 881.10 872.50 880.54 Z"/>
<path fill="rgb(111,87,15)" fill-opacity="1.000" d="M 848.54 880.75 Q 849.76 881.16 849.75 882.46 Q 847.06 883.36 848.54 880.75 Z"/>
<path fill="rgb(12,2,1)" fill-opacity="1.000" d="M 892.00 880.79 Q 893.19 881.32 893.75 882.46 Q 890.81 884.05 892.00 880.79 Z"/>
<path fill="rgb(12,2,1)" fill-opacity="1.000" d="M 786.29 884.25 Q 786.08 888.41 786.01 892.58 Q 786.00 893.39 785.60 893.79 Q 784.86 894.54 784.00 893.54 Q 785.07 893.14 785.05 892.00 Q 785.00 887.00 785.00 881.99 Q 785.00 880.27 785.66 881.86 Q 786.03 882.73 786.29 884.25 Z"/>
<path fill="rgb(255,240,163)" fill-opacity="1.000" d="M 900.00 882.46 Q 902.99 882.52 905.25 884.29 Q 906.28 889.00 905.81 892.56 Q 905.72 893.23 904.75 893.29 Q 903.22 892.71 903.44 890.99 Q 903.69 889.09 903.21 887.25 Q 903.65 885.85 903.03 885.07 Q 902.58 884.51 901.28 884.51 Q 900.01 884.51 898.75 884.46 L 898.79 882.75 Q 899.48 882.88 900.00 882.46 Z"/>
<path fill="rgb(255,240,163)" fill-opacity="1.000" d="M 806.00 884.54 Q 809.12 892.86 800.75 893.00 Q 800.04 893.01 798.04 892.00 Q 796.66 889.94 796.78 887.59 Q 796.90 885.28 798.71 883.84 Q 801.93 881.27 806.00 884.54 Z M 800.71 890.75 Q 805.34 891.50 804.46 886.75 Q 803.23 883.42 800.81 884.68 Q 799.20 885.53 798.89 887.29 Q 798.50 889.53 800.71 890.75 Z"/>
<path fill="rgb(255,240,163)" fill-opacity="1.000" d="M 814.54 883.75 Q 814.27 884.73 813.25 884.50 Q 810.74 883.94 810.50 885.75 Q 810.19 888.06 810.23 890.38 Q 810.23 890.44 810.37 891.60 Q 810.57 893.30 808.75 893.54 Q 807.80 893.25 807.25 892.21 Q 808.32 888.80 807.71 885.25 Q 810.50 881.76 814.54 883.75 Z"/>
<path fill="rgb(255,240,163)" fill-opacity="1.000" d="M 835.21 884.50 Q 836.38 886.41 835.93 888.57 A 0.71 0.69 2.2 0 1 835.32 889.12 Q 832.54 889.40 829.76 889.50 Q 827.97 889.56 829.20 890.33 Q 829.48 890.50 829.84 890.51 Q 832.80 890.57 835.75 890.29 L 835.79 891.75 Q 835.20 893.18 833.74 893.12 Q 832.39 893.05 832.25 893.06 Q 830.04 893.15 828.04 892.25 Q 826.32 891.24 826.21 889.25 Q 826.43 887.72 826.04 886.25 Q 829.55 880.43 835.21 884.50 Z M 829.63 886.83 Q 831.10 886.17 833.18 886.29 Q 834.17 886.34 833.50 885.62 Q 831.24 883.21 829.25 885.75 Q 828.80 886.32 828.88 886.68 A 0.59 0.37 -20.7 0 0 829.63 886.83 Z"/>
<path fill="rgb(255,255,255)" fill-opacity="1.000" d="M 886.79 884.25 Q 886.75 884.64 886.96 885.00 L 884.75 885.04 Q 883.13 884.15 881.25 884.54 L 879.50 883.54 Q 883.34 882.10 886.79 884.25 Z"/>
<path fill="rgb(12,2,1)" fill-opacity="1.000" d="M 815.46 883.25 Q 815.68 884.54 815.21 885.75 Q 810.80 884.41 811.71 890.35 Q 811.97 892.08 811.06 893.56 Q 810.28 894.83 808.75 893.54 Q 810.57 893.30 810.37 891.60 Q 810.23 890.44 810.23 890.38 Q 810.19 888.06 810.50 885.75 Q 810.74 883.94 813.25 884.50 Q 814.27 884.73 814.54 883.75 Q 814.92 883.33 815.46 883.25 Z"/>
<path fill="rgb(255,240,163)" fill-opacity="1.000" d="M 879.50 883.54 L 881.25 884.54 Q 880.26 885.16 879.94 887.19 Q 879.46 890.25 882.00 890.79 Q 883.22 891.41 884.25 890.54 Q 885.94 888.70 885.21 886.25 Q 885.17 885.57 884.75 885.04 L 886.96 885.00 L 887.46 885.75 Q 888.28 895.71 878.79 892.00 Q 878.17 891.38 877.25 891.46 L 877.04 885.25 Q 877.91 883.88 879.50 883.54 Z"/>
<path fill="rgb(111,87,15)" fill-opacity="1.000" d="M 789.46 883.75 Q 790.19 885.63 792.00 885.79 Q 791.87 886.80 792.21 887.75 L 791.25 887.79 L 789.21 884.25 Q 789.16 883.90 789.46 883.75 Z"/>
<path fill="rgb(190,154,40)" fill-opacity="1.000" d="M 869.25 884.71 L 865.00 884.21 L 865.04 884.00 Q 867.36 883.22 869.25 884.71 Z"/>
<path fill="rgb(12,2,1)" fill-opacity="1.000" d="M 896.46 883.75 L 896.46 885.25 Q 896.25 885.29 896.21 885.50 Q 892.87 884.84 893.09 887.37 Q 893.23 889.01 893.25 889.13 Q 893.40 890.08 894.21 890.75 L 893.31 890.75 A 0.81 0.71 79.2 0 1 892.63 890.22 Q 891.73 887.71 892.00 885.06 A 0.65 0.52 -2.6 0 1 892.55 884.58 L 895.50 884.21 Q 895.84 883.66 896.46 883.75 Z"/>
<path fill="rgb(12,2,1)" fill-opacity="1.000" d="M 826.04 886.25 Q 826.43 887.72 826.21 889.25 Q 825.60 893.77 820.31 894.06 Q 817.60 894.21 816.50 893.29 Q 817.95 892.83 819.50 892.95 Q 825.11 893.39 825.00 887.50 Q 824.96 885.32 824.21 884.25 Q 825.83 884.43 826.04 886.25 Z"/>
<path fill="rgb(12,2,1)" fill-opacity="1.000" d="M 849.29 891.00 Q 847.51 888.24 848.41 885.05 A 0.70 0.60 -78.5 0 1 849.07 884.53 L 851.25 884.71 Q 855.02 883.79 850.94 885.69 A 2.41 1.37 -17.7 0 0 849.50 887.25 Q 849.44 888.46 849.67 889.64 Q 849.71 889.85 849.94 890.31 Q 850.30 891.04 849.29 891.00 Z"/>
<path fill="rgb(12,2,1)" fill-opacity="1.000" d="M 822.54 886.25 Q 821.02 885.24 819.80 885.81 Q 818.72 886.30 818.63 887.80 Q 818.53 889.48 819.29 891.00 Q 817.75 891.59 817.75 890.25 Q 817.75 887.88 817.75 885.50 A 1.80 0.77 -10.5 0 1 819.25 884.50 Q 821.83 883.93 822.54 886.25 Z"/>
<path fill="rgb(12,2,1)" fill-opacity="1.000" d="M 836.96 886.00 Q 837.59 887.87 836.96 889.75 Q 836.48 890.28 835.75 890.29 Q 832.80 890.57 829.84 890.51 Q 829.48 890.50 829.20 890.33 Q 827.97 889.56 829.76 889.50 Q 832.54 889.40 835.32 889.12 A 0.71 0.69 2.2 0 0 835.93 888.57 Q 836.38 886.41 835.21 884.50 Q 836.38 884.83 836.96 886.00 Z"/>
<path fill="rgb(111,87,15)" fill-opacity="1.000" d="M 886.79 884.25 L 887.71 884.25 Q 888.29 885.28 888.73 884.91 A 0.86 0.45 -46.8 0 1 889.48 884.65 Q 890.47 885.11 889.00 886.29 Q 889.11 884.39 887.46 885.75 L 886.96 885.00 Q 886.75 884.64 886.79 884.25 Z"/>
<path fill="rgb(12,2,1)" fill-opacity="1.000" d="M 905.25 884.29 Q 906.19 884.67 906.39 885.67 Q 906.92 888.43 906.65 892.87 A 1.13 1.12 89.1 0 1 905.64 893.92 Q 904.43 894.03 904.75 893.29 Q 905.72 893.23 905.81 892.56 Q 906.28 889.00 905.25 884.29 Z"/>
<path fill="rgb(12,2,1)" fill-opacity="1.000" d="M 804.46 886.75 Q 800.28 883.71 800.07 888.62 Q 800.05 889.12 800.31 889.69 Q 800.55 890.20 800.71 890.75 Q 798.50 889.53 798.89 887.29 Q 799.20 885.53 800.81 884.68 Q 803.23 883.42 804.46 886.75 Z"/>
<path fill="rgb(12,2,1)" fill-opacity="1.000" d="M 806.00 884.54 L 807.71 885.25 Q 808.32 888.80 807.25 892.21 Q 802.45 896.04 798.04 892.00 Q 800.04 893.01 800.75 893.00 Q 809.12 892.86 806.00 884.54 Z"/>
<path fill="rgb(12,2,1)" fill-opacity="1.000" d="M 828.88 886.68 Q 828.80 886.32 829.25 885.75 Q 831.24 883.21 833.50 885.62 Q 834.17 886.34 833.18 886.29 Q 831.10 886.17 829.63 886.83 A 0.59 0.37 -20.7 0 1 828.88 886.68 Z"/>
<path fill="rgb(12,2,1)" fill-opacity="1.000" d="M 844.75 884.54 L 844.25 885.21 Q 840.38 885.23 841.50 890.39 Q 841.86 892.09 840.95 893.57 Q 840.21 894.78 838.71 893.50 Q 840.54 893.28 840.36 891.59 Q 840.24 890.47 840.24 890.41 Q 840.23 888.21 840.29 886.00 Q 841.62 883.55 844.75 884.54 Z"/>
<path fill="rgb(111,87,15)" fill-opacity="1.000" d="M 844.75 884.54 Q 845.79 884.17 846.21 885.00 Q 845.27 885.38 844.25 885.21 L 844.75 884.54 Z"/>
<path fill="rgb(12,2,1)" fill-opacity="1.000" d="M 881.25 884.54 Q 883.13 884.15 884.75 885.04 Q 885.17 885.57 885.21 886.25 L 884.79 886.50 Q 883.84 885.34 882.66 885.56 Q 881.65 885.74 881.23 886.88 Q 880.46 888.96 882.00 890.79 Q 879.46 890.25 879.94 887.19 Q 880.26 885.16 881.25 884.54 Z"/>
<path fill="rgb(12,2,1)" fill-opacity="1.000" d="M 898.75 884.46 Q 900.01 884.51 901.28 884.51 Q 902.58 884.51 903.03 885.07 Q 903.65 885.85 903.21 887.25 Q 902.58 884.88 900.16 885.54 A 0.73 0.66 85.3 0 0 899.66 886.19 Q 899.50 889.34 899.65 892.48 Q 899.70 893.41 899.32 893.76 Q 898.78 894.27 897.75 893.96 L 897.75 893.54 Q 898.78 893.26 898.75 891.75 Q 898.69 888.50 898.46 885.25 Q 898.37 884.73 898.75 884.46 Z"/>
<path fill="rgb(255,240,163)" fill-opacity="1.000" d="M 838.04 885.25 L 840.29 886.00 Q 840.23 888.21 840.24 890.41 Q 840.24 890.47 840.36 891.59 Q 840.54 893.28 838.71 893.50 L 836.96 889.75 Q 837.59 887.87 836.96 886.00 Q 837.19 885.38 838.04 885.25 Z"/>
<path fill="rgb(12,2,1)" fill-opacity="1.000" d="M 889.00 886.29 L 888.96 889.25 Q 886.72 896.28 879.69 893.05 Q 878.98 892.73 878.79 892.00 Q 888.28 895.71 887.46 885.75 Q 889.11 884.39 889.00 886.29 Z"/>
<path fill="rgb(255,240,163)" fill-opacity="1.000" d="M 896.46 885.25 Q 897.43 885.53 898.46 885.25 Q 898.69 888.50 898.75 891.75 Q 898.78 893.26 897.75 893.54 Q 896.36 893.52 895.96 892.25 L 896.21 887.75 L 896.21 885.50 Q 896.25 885.29 896.46 885.25 Z"/>
<path fill="rgb(248,203,44)" fill-opacity="1.000" d="M 804.46 886.75 Q 805.34 891.50 800.71 890.75 Q 800.55 890.20 800.31 889.69 Q 800.05 889.12 800.07 888.62 Q 800.28 883.71 804.46 886.75 Z"/>
<path fill="rgb(248,203,44)" fill-opacity="1.000" d="M 822.54 886.25 Q 823.62 890.77 819.29 891.00 Q 818.53 889.48 818.63 887.80 Q 818.72 886.30 819.80 885.81 Q 821.02 885.24 822.54 886.25 Z"/>
<path fill="rgb(255,240,163)" fill-opacity="1.000" d="M 858.54 886.50 Q 856.81 888.22 854.25 887.46 Q 855.61 883.87 858.54 886.50 Z"/>
<path fill="rgb(248,203,44)" fill-opacity="1.000" d="M 884.79 886.50 Q 884.95 888.60 884.25 890.54 Q 883.22 891.41 882.00 890.79 Q 880.46 888.96 881.23 886.88 Q 881.65 885.74 882.66 885.56 Q 883.84 885.34 884.79 886.50 Z"/>
<path fill="rgb(255,195,13)" fill-opacity="1.000" d="M 896.21 885.50 L 896.21 887.75 L 895.50 891.04 L 894.21 890.75 Q 893.40 890.08 893.25 889.13 Q 893.23 889.01 893.09 887.37 Q 892.87 884.84 896.21 885.50 Z"/>
<path fill="rgb(12,2,1)" fill-opacity="1.000" d="M 861.75 885.79 Q 864.01 886.76 866.50 886.47 Q 870.67 885.99 868.79 889.75 Q 869.04 888.68 868.54 888.05 Q 868.18 887.58 867.15 887.57 Q 864.77 887.54 862.44 887.03 Q 861.50 886.82 861.75 885.79 Z"/>
<path fill="rgb(12,2,1)" fill-opacity="1.000" d="M 871.54 886.25 Q 871.74 886.41 872.00 886.46 Q 872.40 886.50 872.71 886.75 Q 873.15 889.27 872.50 891.71 Q 871.27 893.49 869.33 893.90 Q 868.64 894.05 865.68 894.17 Q 863.75 894.25 861.82 893.89 Q 861.10 893.75 861.00 893.04 Q 863.49 893.10 865.98 893.03 Q 869.23 892.95 870.56 891.74 Q 872.60 889.88 871.54 886.25 Z"/>
<path fill="rgb(190,154,40)" fill-opacity="1.000" d="M 885.21 886.25 Q 885.94 888.70 884.25 890.54 Q 884.95 888.60 884.79 886.50 L 885.21 886.25 Z"/>
<path fill="rgb(12,2,1)" fill-opacity="1.000" d="M 858.54 886.50 Q 860.30 886.72 858.81 888.06 Q 856.91 889.78 854.06 887.94 Q 853.46 887.55 854.25 887.46 Q 856.81 888.22 858.54 886.50 Z"/>
<path fill="rgb(111,87,15)" fill-opacity="1.000" d="M 791.25 887.79 L 792.21 887.75 Q 792.07 891.21 791.25 887.79 Z"/>
<path fill="rgb(190,154,40)" fill-opacity="1.000" d="M 896.21 887.75 L 895.96 892.25 L 895.50 892.21 L 895.50 891.04 L 896.21 887.75 Z"/>
<path fill="rgb(12,2,1)" fill-opacity="1.000" d="M 835.79 891.75 Q 837.09 893.21 835.13 893.73 Q 831.76 894.63 828.59 893.14 Q 828.01 892.86 828.04 892.25 Q 830.04 893.15 832.25 893.06 Q 832.39 893.05 833.74 893.12 Q 835.20 893.18 835.79 891.75 Z"/>
<path fill="rgb(12,2,1)" fill-opacity="1.000" d="M 847.29 892.00 Q 848.05 892.90 849.21 893.00 Q 850.45 893.68 851.47 892.72 Q 852.56 891.71 852.21 893.09 A 1.01 0.97 -3.2 0 1 851.59 893.76 Q 848.74 894.83 847.29 892.00 Z"/>
<path fill="rgb(12,2,1)" fill-opacity="1.000" d="M 891.04 892.00 Q 893.10 894.27 895.50 892.21 L 895.96 892.25 Q 896.36 893.52 897.75 893.54 L 897.75 893.96 Q 895.28 893.63 894.75 893.75 Q 891.80 894.41 891.04 892.00 Z"/>
</svg>