<?xml version="1.0" encoding="UTF-8" standalone="no"?>
<!DOCTYPE svg PUBLIC "-//W3C//DTD SVG 1.1//EN" "http://www.w3.org/Graphics/SVG/1.1/DTD/svg11.dtd">
<svg xmlns="http://www.w3.org/2000/svg" version="1.1" viewBox="0 0 1000 1000">
<path fill="rgb(200,39,45)" fill-opacity="1.000" d="M 0.00 0.00 Q 500.00 0.00 1000.00 0.00 Q 1000.00 500.00 1000.00 1000.00 Q 500.00 1000.00 0.00 1000.00 Q 0.00 500.00 0.00 0.00 Z M 135.71 340.75 Q 136.72 354.55 136.25 363.00 Q 135.98 367.89 137.54 371.00 Q 137.09 373.17 137.66 375.21 A 1.31 1.24 8.3 0 0 138.24 375.94 Q 148.40 382.05 159.49 386.28 Q 188.50 397.34 219.00 403.25 Q 241.55 407.62 261.56 409.79 Q 274.34 411.18 281.47 411.67 Q 300.10 412.96 317.00 410.75 Q 351.18 406.29 384.58 391.17 Q 388.38 389.45 392.18 387.73 Q 395.87 386.06 399.97 384.69 Q 422.87 377.05 442.69 368.44 Q 472.35 355.54 492.81 347.31 Q 496.56 345.80 504.50 346.54 Q 504.56 361.90 503.98 377.25 Q 502.75 409.99 502.12 442.75 Q 501.62 468.87 501.00 495.00 Q 500.97 496.08 500.25 497.46 Q 498.20 497.55 492.94 496.31 Q 441.83 484.33 390.72 472.39 Q 388.91 471.97 385.69 472.94 Q 273.39 506.53 160.36 540.69 A 0.88 0.87 82.6 0 0 159.74 541.50 Q 159.65 545.63 159.88 550.01 Q 170.88 760.37 181.84 972.48 A 0.49 0.48 -0.6 0 0 182.32 972.94 L 186.69 973.05 A 0.53 0.53 89.4 0 1 187.21 973.56 Q 187.42 977.28 187.79 981.00 Q 187.87 981.82 188.50 982.21 Q 190.58 982.70 194.75 982.75 Q 235.39 983.23 266.34 982.42 Q 267.09 982.40 274.52 982.74 Q 278.45 982.91 282.75 982.25 Q 283.99 982.06 284.50 981.29 L 369.25 981.04 Q 380.09 981.96 393.00 982.00 Q 432.52 982.14 462.75 981.71 L 523.87 981.69 A 0.32 0.26 -88.9 0 0 524.13 981.38 Q 524.14 981.20 524.26 981.07 Q 524.49 980.81 524.18 980.81 L 513.00 980.71 L 649.25 980.04 Q 650.59 980.94 651.75 981.00 Q 663.41 981.58 677.75 981.00 Q 688.16 980.58 733.75 980.80 Q 780.87 981.03 827.18 980.75 Q 829.87 980.74 830.18 978.07 Q 830.94 971.52 831.04 965.50 Q 831.48 938.35 832.99 911.24 Q 833.13 908.56 833.35 899.87 Q 833.45 895.54 833.75 888.50 Q 834.94 860.25 836.27 832.00 Q 837.05 815.30 837.40 798.59 Q 837.60 789.05 838.13 780.05 Q 838.90 767.01 839.00 761.50 Q 839.43 738.29 840.50 722.50 Q 841.13 713.18 841.26 705.00 Q 841.45 693.06 841.77 687.51 Q 843.18 663.16 843.75 643.75 Q 844.01 634.84 844.44 627.57 Q 845.02 617.56 845.15 611.41 Q 845.58 590.26 846.48 569.12 A 0.84 0.70 -71.1 0 0 846.24 568.49 L 845.96 568.25 L 846.79 544.25 Q 847.34 541.51 846.79 538.80 A 0.85 0.79 4.1 0 0 846.21 538.18 L 840.25 536.46 L 840.04 531.04 A 1.97 1.66 -85.3 0 0 838.78 529.27 L 603.47 469.91 Q 602.26 469.61 601.07 469.94 Q 556.63 482.38 511.50 495.00 Q 509.66 495.51 508.50 495.46 L 508.04 433.50 Q 515.21 432.74 521.08 428.60 Q 526.40 424.84 530.80 420.05 Q 537.64 412.61 543.93 404.71 Q 551.57 395.13 560.44 386.69 Q 568.75 378.78 579.81 375.70 Q 583.21 374.75 586.94 374.75 A 3.27 3.24 -29.4 0 1 588.61 375.21 Q 619.98 394.10 653.79 404.03 Q 686.36 413.59 720.03 411.78 Q 727.25 411.39 739.96 410.04 Q 767.30 407.11 794.19 401.19 Q 819.64 395.59 843.92 386.13 Q 857.18 380.96 864.94 376.19 Q 866.30 375.35 865.71 373.00 L 866.46 368.50 Q 867.39 359.65 867.26 350.75 A 0.73 0.73 78.3 0 1 867.71 350.06 Q 889.91 340.65 911.47 330.11 Q 913.30 329.21 911.27 329.25 Q 874.65 329.94 838.05 330.92 Q 829.31 331.15 818.06 331.32 Q 791.62 331.71 732.00 333.00 Q 707.84 333.52 628.50 334.39 Q 619.76 334.49 608.50 334.71 Q 543.76 336.00 479.00 335.22 Q 339.28 333.56 199.56 331.44 Q 194.72 331.37 191.18 331.22 Q 186.21 331.02 182.81 331.08 Q 162.77 331.38 142.74 330.67 Q 131.82 330.28 122.74 330.17 Q 108.86 330.01 88.25 329.50 Q 87.83 329.49 87.63 329.63 Q 87.10 329.99 87.92 330.18 L 135.71 340.75 Z M 844.50 973.21 Q 843.82 974.14 846.49 974.39 A 0.95 0.95 1.6 0 0 847.52 973.42 Q 847.41 968.75 847.25 965.00 Q 847.22 964.33 848.21 964.00 Q 850.76 968.10 853.10 972.31 Q 853.33 972.72 853.69 972.89 Q 854.08 973.09 854.50 973.21 Q 852.52 973.52 856.28 974.43 A 0.73 0.72 8.3 0 0 857.18 973.77 Q 857.57 966.38 857.28 960.14 Q 857.27 959.99 857.34 958.86 Q 857.41 957.42 856.04 958.00 Q 855.45 956.44 854.52 957.31 A 1.32 1.10 72.6 0 0 854.16 958.19 L 854.00 968.34 Q 853.97 969.84 853.20 968.58 Q 850.28 963.82 847.52 958.98 Q 847.48 958.91 847.09 957.97 Q 846.53 956.60 844.63 957.03 A 0.80 0.80 -6.3 0 0 844.00 957.81 L 844.00 972.06 A 1.43 1.00 -71.8 0 0 844.24 972.86 L 844.50 973.21 Z M 880.00 973.29 L 879.99 973.62 A 0.49 0.37 7.2 0 0 880.39 974.01 Q 883.97 974.79 887.80 973.57 A 2.44 2.43 84.4 0 0 889.47 971.53 Q 889.64 969.99 890.79 969.50 Q 891.53 971.83 893.75 972.79 Q 893.31 973.53 895.89 974.07 Q 896.83 974.26 897.80 974.26 Q 902.34 974.22 900.60 971.17 A 0.24 0.16 57.9 0 0 900.33 971.05 Q 900.24 971.11 900.21 971.25 L 899.75 970.71 Q 902.68 968.36 902.08 971.62 A 0.64 0.36 -77.0 0 0 902.27 972.27 Q 902.47 972.33 902.75 972.21 Q 902.99 972.99 903.75 973.21 Q 903.12 973.96 904.06 974.19 Q 906.35 974.74 906.50 971.25 L 906.73 966.05 A 0.66 0.64 -3.3 0 1 907.29 965.44 L 912.04 964.75 Q 911.59 968.05 912.61 971.11 Q 912.80 971.70 913.27 972.07 Q 913.74 972.46 914.25 972.79 Q 914.18 972.93 914.06 973.00 A 0.16 0.13 -36.8 0 0 914.00 973.23 Q 915.73 974.71 917.85 973.99 A 1.07 0.94 -2.4 0 0 918.51 973.36 Q 918.85 972.33 917.79 972.00 Q 917.30 971.29 916.50 970.96 Q 915.23 968.71 915.60 966.19 A 1.04 0.76 87.8 0 1 916.12 965.42 L 917.70 964.79 A 1.22 0.29 -18.4 0 0 918.49 964.30 Q 918.77 963.76 918.00 963.46 Q 918.34 961.76 916.75 962.02 Q 913.38 962.59 914.26 960.02 A 0.57 0.52 -69.3 0 0 913.99 959.34 Q 911.51 958.25 911.92 961.26 A 0.69 0.65 74.5 0 1 911.54 961.97 Q 909.88 962.72 909.06 962.44 Q 904.02 960.72 902.71 965.75 Q 901.79 964.86 900.71 965.25 Q 900.12 962.81 897.76 962.21 Q 892.74 960.95 890.71 965.50 L 887.79 963.00 Q 885.59 961.67 882.47 962.07 A 1.11 0.99 -2.3 0 1 881.22 961.04 L 881.41 957.99 A 0.77 0.62 -77.9 0 0 881.05 957.27 Q 878.71 956.20 878.90 958.71 Q 879.00 960.19 879.00 960.31 Q 879.03 965.65 879.00 971.00 Q 878.99 972.95 880.00 973.29 Z M 928.79 965.50 Q 928.24 966.17 929.25 966.50 Q 932.17 967.46 934.50 967.23 Q 935.90 967.10 936.96 968.00 Q 937.09 969.31 936.33 970.13 Q 935.78 970.73 934.46 970.82 Q 931.48 971.03 928.50 971.29 Q 925.60 971.54 928.00 973.29 Q 927.97 973.58 928.13 973.78 Q 928.25 973.93 928.55 973.98 Q 933.61 974.93 938.46 973.35 A 1.12 1.00 -86.4 0 0 939.10 972.72 Q 939.62 971.42 940.71 970.50 Q 940.69 972.29 942.00 973.29 Q 941.51 974.44 944.56 973.67 A 0.77 0.76 76.8 0 0 945.12 972.76 Q 944.57 970.37 945.71 969.00 Q 945.62 969.91 946.00 970.71 Q 945.46 971.02 945.81 971.44 Q 948.94 975.14 954.00 973.75 Q 956.93 972.95 957.49 969.80 A 1.44 1.14 -19.5 0 1 957.97 969.03 Q 958.61 968.51 958.79 967.75 Q 958.82 970.08 960.04 972.00 Q 959.82 972.22 959.77 972.46 A 0.73 0.51 19.4 0 0 960.25 973.13 Q 964.43 974.93 968.84 973.70 A 0.68 0.67 83.2 0 0 969.34 973.06 L 969.56 965.56 A 0.61 0.56 87.9 0 1 970.05 964.98 Q 972.01 964.71 973.46 966.00 Q 973.11 969.74 974.29 973.25 Q 975.06 974.90 976.28 974.04 Q 976.94 973.58 977.10 972.57 Q 977.73 968.57 976.31 964.44 Q 976.01 963.56 975.25 963.54 Q 973.07 961.51 970.00 961.96 Q 968.86 960.52 969.25 959.25 Q 969.63 958.04 968.79 957.50 Q 967.48 956.48 966.36 957.40 A 0.91 0.74 67.4 0 0 966.11 958.23 Q 966.45 959.99 966.04 961.75 Q 965.88 962.32 965.21 962.50 L 961.57 961.91 A 0.69 0.45 5.8 0 1 960.98 961.44 L 960.95 960.00 A 0.97 0.66 -82.4 0 0 960.57 959.24 Q 958.94 958.39 959.27 960.92 A 0.96 0.95 -4.6 0 1 958.35 962.00 Q 957.14 962.03 956.71 963.00 L 954.75 963.04 Q 949.46 960.48 945.75 964.79 Q 944.36 964.59 944.75 963.25 Q 945.72 959.90 943.79 957.50 Q 942.54 956.76 941.20 957.29 A 0.67 0.58 75.7 0 0 940.84 958.00 Q 941.52 962.02 940.54 966.00 Q 939.83 964.84 939.04 966.00 Q 937.65 964.00 935.50 964.00 Q 932.40 964.00 931.00 963.71 Q 929.55 960.67 932.29 960.44 Q 933.91 960.31 934.08 960.28 Q 935.49 960.09 936.50 960.25 Q 938.56 960.58 939.82 959.54 A 0.85 0.59 -34.6 0 0 940.14 958.70 Q 939.93 958.23 939.00 958.46 Q 939.07 958.00 938.84 957.69 Q 938.66 957.45 938.20 957.39 Q 935.95 957.08 933.68 957.17 Q 933.56 957.18 931.33 957.17 Q 926.77 957.16 927.19 962.31 Q 927.37 964.57 928.79 965.50 Z M 862.25 972.79 Q 862.03 973.71 862.82 973.91 Q 865.98 974.67 868.69 972.94 A 2.17 1.12 35.0 0 1 870.56 973.19 Q 874.96 975.58 874.56 971.70 Q 874.37 969.90 874.45 968.91 Q 874.57 967.49 874.57 966.07 A 0.65 0.63 -7.9 0 1 875.05 965.46 L 878.21 964.60 A 0.83 0.75 -5.5 0 0 878.80 963.95 Q 878.90 962.92 877.54 963.25 L 877.50 962.78 A 0.68 0.64 5.6 0 0 876.99 962.19 Q 872.88 961.13 870.75 964.79 Q 869.93 965.12 869.04 965.00 Q 867.68 961.91 864.25 961.93 Q 860.39 961.96 859.37 964.82 Q 858.59 967.00 858.97 969.21 Q 859.40 971.73 862.25 972.79 Z M 919.79 967.25 Q 922.57 969.31 925.63 967.80 A 1.19 1.03 -8.9 0 0 926.22 967.10 Q 926.56 965.78 925.04 965.75 Q 923.80 964.91 922.36 965.07 Q 921.34 965.18 920.64 965.10 Q 917.95 964.77 919.79 967.25 Z"/>
<path fill="rgb(141,0,6)" fill-opacity="1.000" d="M 866.46 368.50 Q 865.92 368.98 865.96 368.25 L 866.00 333.73 A 0.73 0.71 -1.5 0 0 865.23 333.02 L 848.00 333.79 Q 841.57 332.18 835.01 332.80 Q 833.23 332.96 831.53 332.61 Q 828.93 332.08 828.00 332.25 Q 814.73 334.70 801.25 334.25 Q 796.82 334.10 785.18 335.14 A 1.41 0.98 -64.3 0 0 784.38 335.59 Q 783.66 336.37 782.50 336.46 Q 780.94 336.96 779.29 336.75 Q 726.77 339.07 674.25 341.25 Q 672.25 341.33 671.04 341.00 Q 666.24 339.86 661.43 340.36 Q 656.43 340.88 654.40 340.85 Q 643.58 340.68 632.83 341.82 Q 627.72 342.36 621.63 342.40 Q 614.97 342.44 608.36 343.24 Q 608.25 343.25 608.14 343.25 Q 591.80 343.38 608.50 343.50 Q 609.30 343.51 609.25 343.96 L 589.75 344.79 Q 588.63 344.80 588.56 345.81 Q 587.96 354.29 588.00 366.25 Q 588.01 368.47 588.50 369.29 Q 627.39 393.37 672.11 402.76 Q 675.17 403.41 679.43 404.02 Q 683.10 404.54 686.76 405.11 Q 692.95 406.08 697.80 406.24 Q 719.28 406.96 740.60 404.12 Q 741.92 403.94 745.93 403.65 Q 748.31 403.47 751.25 403.00 Q 775.32 399.13 789.61 396.56 Q 789.71 396.55 793.79 396.05 Q 796.13 395.77 798.31 394.89 Q 799.60 394.38 801.32 394.14 Q 802.90 393.93 804.36 393.26 Q 805.59 392.69 806.65 392.49 Q 807.79 392.27 809.03 391.92 Q 809.69 391.74 810.27 391.40 Q 812.80 389.97 814.50 389.99 Q 816.91 390.01 819.01 389.06 Q 821.65 387.88 822.09 387.72 Q 823.68 387.15 825.22 386.44 Q 827.79 385.25 830.57 385.17 Q 833.23 385.09 835.53 383.80 Q 838.12 382.33 840.96 381.68 Q 844.61 380.85 846.32 380.09 Q 849.89 378.50 853.50 377.00 Q 854.27 376.68 855.69 375.69 Q 859.35 373.12 863.59 371.71 Q 864.44 371.43 864.92 371.70 Q 865.52 372.06 865.71 373.00 Q 866.30 375.35 864.94 376.19 Q 857.18 380.96 843.92 386.13 Q 819.64 395.59 794.19 401.19 Q 767.30 407.11 739.96 410.04 Q 727.25 411.39 720.03 411.78 Q 686.36 413.59 653.79 404.03 Q 619.98 394.10 588.61 375.21 A 3.27 3.24 -29.4 0 0 586.94 374.75 Q 583.21 374.75 579.81 375.70 Q 568.75 378.78 560.44 386.69 Q 551.57 395.13 543.93 404.71 Q 537.64 412.61 530.80 420.05 Q 526.40 424.84 521.08 428.60 Q 515.21 432.74 508.04 433.50 Q 507.66 405.36 507.50 348.00 Q 507.49 345.33 504.50 346.54 Q 496.56 345.80 492.81 347.31 Q 472.35 355.54 442.69 368.44 Q 422.87 377.05 399.97 384.69 Q 395.87 386.06 392.18 387.73 Q 388.38 389.45 384.58 391.17 Q 351.18 406.29 317.00 410.75 Q 300.10 412.96 281.47 411.67 Q 274.34 411.18 261.56 409.79 Q 241.55 407.62 219.00 403.25 Q 188.50 397.34 159.49 386.28 Q 148.40 382.05 138.24 375.94 A 1.31 1.24 8.3 0 1 137.66 375.21 Q 137.09 373.17 137.54 371.00 Q 144.31 373.78 150.96 376.83 Q 159.23 380.62 164.41 382.50 Q 199.44 395.23 236.36 400.52 Q 236.47 400.53 251.11 402.74 Q 258.64 403.88 266.23 404.47 Q 268.15 404.62 274.18 405.61 Q 277.85 406.21 282.25 406.25 Q 294.65 406.37 298.00 406.37 Q 313.62 406.37 328.81 402.91 Q 330.57 402.51 333.87 402.00 Q 336.42 401.61 338.91 400.90 Q 339.74 400.67 341.65 400.48 Q 343.09 400.34 344.35 399.68 Q 346.89 398.36 347.37 398.27 Q 348.73 398.02 350.75 398.00 Q 353.85 397.96 358.19 395.18 Q 359.75 394.18 361.52 394.00 Q 364.28 393.70 364.92 393.51 Q 369.25 392.23 370.19 391.69 Q 372.86 390.15 374.38 389.65 Q 375.91 389.14 375.96 389.12 Q 381.28 386.94 386.72 385.09 A 1.70 1.51 -77.6 0 0 387.48 384.54 Q 388.55 383.19 390.01 382.35 Q 390.48 382.08 392.63 381.67 Q 394.05 381.40 395.16 380.35 Q 395.53 380.00 395.98 379.88 Q 398.12 379.32 399.99 378.21 Q 403.35 376.22 403.68 376.06 Q 409.20 373.26 414.28 369.73 A 0.89 0.85 70.6 0 0 414.63 368.95 Q 414.50 367.05 415.53 364.33 A 2.71 2.66 49.1 0 0 415.63 362.73 Q 414.59 358.38 415.57 352.24 A 1.99 1.97 25.6 0 0 414.92 350.43 Q 414.50 350.06 413.79 350.25 L 413.70 345.57 A 0.55 0.54 -88.9 0 0 413.19 345.03 L 380.75 343.46 Q 379.97 342.66 378.25 342.50 Q 368.36 341.59 362.56 341.56 A 1.32 0.38 -42.7 0 0 361.75 341.97 L 361.00 342.54 L 334.75 341.46 Q 332.62 340.16 330.20 340.15 Q 327.36 340.13 327.32 340.13 Q 323.57 339.85 319.81 340.02 Q 310.98 340.42 302.16 339.95 Q 289.42 339.28 289.31 339.28 Q 250.70 337.90 212.11 335.83 Q 211.95 335.82 211.57 335.98 Q 211.43 336.05 211.25 336.04 Q 174.36 334.84 137.50 333.02 Q 137.26 333.01 137.21 333.25 Q 135.69 333.15 136.00 335.00 Q 136.35 337.09 135.71 340.75 L 87.92 330.18 Q 87.10 329.99 87.63 329.63 Q 87.83 329.49 88.25 329.50 Q 108.86 330.01 122.74 330.17 Q 131.82 330.28 142.74 330.67 Q 162.77 331.38 182.81 331.08 Q 186.21 331.02 191.18 331.22 Q 194.72 331.37 199.56 331.44 Q 339.28 333.56 479.00 335.22 Q 543.76 336.00 608.50 334.71 Q 619.76 334.49 628.50 334.39 Q 707.84 333.52 732.00 333.00 Q 791.62 331.71 818.06 331.32 Q 829.31 331.15 838.05 330.92 Q 874.65 329.94 911.27 329.25 Q 913.30 329.21 911.47 330.11 Q 889.91 340.65 867.71 350.06 A 0.73 0.73 78.3 0 0 867.26 350.75 Q 867.39 359.65 866.46 368.50 Z"/>
<path fill="rgb(104,2,3)" fill-opacity="1.000" d="M 848.00 333.79 L 782.50 336.46 Q 783.66 336.37 784.38 335.59 A 1.41 0.98 -64.3 0 1 785.18 335.14 Q 796.82 334.10 801.25 334.25 Q 814.73 334.70 828.00 332.25 Q 828.93 332.08 831.53 332.61 Q 833.23 332.96 835.01 332.80 Q 841.57 332.18 848.00 333.79 Z"/>
<path fill="rgb(255,255,255)" fill-opacity="1.000" d="M 211.25 336.04 Q 216.34 347.85 223.31 355.69 Q 237.35 371.46 259.49 373.58 Q 266.72 374.27 274.25 372.50 Q 286.57 369.60 296.64 362.67 Q 309.52 353.80 319.40 341.74 A 2.09 2.04 -69.2 0 1 321.06 340.97 L 334.75 341.46 L 361.00 342.54 L 380.75 343.46 L 413.19 345.03 A 0.55 0.54 -88.9 0 1 413.70 345.57 L 413.79 350.25 L 413.95 367.94 A 0.90 0.86 -16.0 0 1 413.51 368.69 Q 376.54 391.12 334.54 400.50 Q 323.86 402.89 314.84 403.86 Q 297.24 405.76 278.00 404.25 Q 231.29 400.58 189.25 389.00 Q 160.70 381.14 137.75 368.92 A 0.83 0.82 -76.3 0 1 137.31 368.19 L 137.21 333.25 Q 137.26 333.01 137.50 333.02 Q 174.36 334.84 211.25 336.04 Z"/>
<path fill="rgb(255,255,255)" fill-opacity="1.000" d="M 865.96 368.25 Q 865.61 368.90 864.97 369.24 Q 854.51 374.88 843.44 379.18 Q 822.55 387.29 800.74 392.46 Q 760.15 402.09 718.49 404.58 Q 695.72 405.93 675.50 402.00 Q 630.21 393.19 589.29 368.75 Q 588.84 356.76 589.75 344.79 L 609.25 343.96 L 670.25 341.46 Q 673.67 345.18 677.11 348.88 Q 690.47 363.28 708.65 370.72 Q 719.96 375.35 731.50 374.25 Q 756.89 371.83 771.69 350.94 Q 776.67 343.91 779.29 336.75 Q 780.94 336.96 782.50 336.46 L 848.00 333.79 L 865.23 333.02 A 0.73 0.71 -1.5 0 1 866.00 333.73 L 865.96 368.25 Z"/>
<path fill="rgb(104,2,3)" fill-opacity="1.000" d="M 137.21 333.25 L 137.31 368.19 A 0.83 0.82 -76.3 0 0 137.75 368.92 Q 160.70 381.14 189.25 389.00 Q 231.29 400.58 278.00 404.25 Q 297.24 405.76 314.84 403.86 Q 323.86 402.89 334.54 400.50 Q 376.54 391.12 413.51 368.69 A 0.90 0.86 -16.0 0 0 413.95 367.94 L 413.79 350.25 Q 414.50 350.06 414.92 350.43 A 1.99 1.97 25.6 0 1 415.57 352.24 Q 414.59 358.38 415.63 362.73 A 2.71 2.66 49.1 0 1 415.53 364.33 Q 414.50 367.05 414.63 368.95 A 0.89 0.85 70.6 0 1 414.28 369.73 Q 409.20 373.26 403.68 376.06 Q 403.35 376.22 399.99 378.21 Q 398.12 379.32 395.98 379.88 Q 395.53 380.00 395.16 380.35 Q 394.05 381.40 392.63 381.67 Q 390.48 382.08 390.01 382.35 Q 388.55 383.19 387.48 384.54 A 1.70 1.51 -77.6 0 1 386.72 385.09 Q 381.28 386.94 375.96 389.12 Q 375.91 389.14 374.38 389.65 Q 372.86 390.15 370.19 391.69 Q 369.25 392.23 364.92 393.51 Q 364.28 393.70 361.52 394.00 Q 359.75 394.18 358.19 395.18 Q 353.85 397.96 350.75 398.00 Q 348.73 398.02 347.37 398.27 Q 346.89 398.36 344.35 399.68 Q 343.09 400.34 341.65 400.48 Q 339.74 400.67 338.91 400.90 Q 336.42 401.61 333.87 402.00 Q 330.57 402.51 328.81 402.91 Q 313.62 406.37 298.00 406.37 Q 294.65 406.37 282.25 406.25 Q 277.85 406.21 274.18 405.61 Q 268.15 404.62 266.23 404.47 Q 258.64 403.88 251.11 402.74 Q 236.47 400.53 236.36 400.52 Q 199.44 395.23 164.41 382.50 Q 159.23 380.62 150.96 376.83 Q 144.31 373.78 137.54 371.00 Q 135.98 367.89 136.25 363.00 Q 136.72 354.55 135.71 340.75 Q 136.35 337.09 136.00 335.00 Q 135.69 333.15 137.21 333.25 Z"/>
<path fill="rgb(0,0,0)" fill-opacity="1.000" d="M 334.75 341.46 L 321.06 340.97 A 2.09 2.04 -69.2 0 0 319.40 341.74 Q 309.52 353.80 296.64 362.67 Q 286.57 369.60 274.25 372.50 Q 266.72 374.27 259.49 373.58 Q 237.35 371.46 223.31 355.69 Q 216.34 347.85 211.25 336.04 Q 211.43 336.05 211.57 335.98 Q 211.95 335.82 212.11 335.83 Q 250.70 337.90 289.31 339.28 Q 289.42 339.28 302.16 339.95 Q 310.98 340.42 319.81 340.02 Q 323.57 339.85 327.32 340.13 Q 327.36 340.13 330.20 340.15 Q 332.62 340.16 334.75 341.46 Z"/>
<path fill="rgb(0,0,0)" fill-opacity="1.000" d="M 779.29 336.75 Q 776.67 343.91 771.69 350.94 Q 756.89 371.83 731.50 374.25 Q 719.96 375.35 708.65 370.72 Q 690.47 363.28 677.11 348.88 Q 673.67 345.18 670.25 341.46 L 671.04 341.00 Q 672.25 341.33 674.25 341.25 Q 726.77 339.07 779.29 336.75 Z"/>
<path fill="rgb(104,2,3)" fill-opacity="1.000" d="M 671.04 341.00 L 670.25 341.46 L 609.25 343.96 Q 609.30 343.51 608.50 343.50 Q 591.80 343.38 608.14 343.25 Q 608.25 343.25 608.36 343.24 Q 614.97 342.44 621.63 342.40 Q 627.72 342.36 632.83 341.82 Q 643.58 340.68 654.40 340.85 Q 656.43 340.88 661.43 340.36 Q 666.24 339.86 671.04 341.00 Z"/>
<path fill="rgb(32,0,0)" fill-opacity="1.000" d="M 380.75 343.46 L 361.00 342.54 L 361.75 341.97 A 1.32 0.38 -42.7 0 1 362.56 341.56 Q 368.36 341.59 378.25 342.50 Q 379.97 342.66 380.75 343.46 Z"/>
<path fill="rgb(32,0,0)" fill-opacity="1.000" d="M 589.75 344.79 Q 588.84 356.76 589.29 368.75 Q 589.05 369.28 588.50 369.29 Q 588.01 368.47 588.00 366.25 Q 587.96 354.29 588.56 345.81 Q 588.63 344.80 589.75 344.79 Z"/>
<path fill="rgb(236,94,60)" fill-opacity="1.000" d="M 508.04 433.50 L 508.50 495.46 Q 504.60 497.39 500.25 497.46 Q 500.97 496.08 501.00 495.00 Q 501.62 468.87 502.12 442.75 Q 502.75 409.99 503.98 377.25 Q 504.56 361.90 504.50 346.54 Q 507.49 345.33 507.50 348.00 Q 507.66 405.36 508.04 433.50 Z"/>
<path fill="rgb(104,2,3)" fill-opacity="1.000" d="M 865.96 368.25 Q 865.92 368.98 866.46 368.50 L 865.71 373.00 Q 865.52 372.06 864.92 371.70 Q 864.44 371.43 863.59 371.71 Q 859.35 373.12 855.69 375.69 Q 854.27 376.68 853.50 377.00 Q 849.89 378.50 846.32 380.09 Q 844.61 380.85 840.96 381.68 Q 838.12 382.33 835.53 383.80 Q 833.23 385.09 830.57 385.17 Q 827.79 385.25 825.22 386.44 Q 823.68 387.15 822.09 387.72 Q 821.65 387.88 819.01 389.06 Q 816.91 390.01 814.50 389.99 Q 812.80 389.97 810.27 391.40 Q 809.69 391.74 809.03 391.92 Q 807.79 392.27 806.65 392.49 Q 805.59 392.69 804.36 393.26 Q 802.90 393.93 801.32 394.14 Q 799.60 394.38 798.31 394.89 Q 796.13 395.77 793.79 396.05 Q 789.71 396.55 789.61 396.56 Q 775.32 399.13 751.25 403.00 Q 748.31 403.47 745.93 403.65 Q 741.92 403.94 740.60 404.12 Q 719.28 406.96 697.80 406.24 Q 692.95 406.08 686.76 405.11 Q 683.10 404.54 679.43 404.02 Q 675.17 403.41 672.11 402.76 Q 627.39 393.37 588.50 369.29 Q 589.05 369.28 589.29 368.75 Q 630.21 393.19 675.50 402.00 Q 695.72 405.93 718.49 404.58 Q 760.15 402.09 800.74 392.46 Q 822.55 387.29 843.44 379.18 Q 854.51 374.88 864.97 369.24 Q 865.61 368.90 865.96 368.25 Z"/>
<path fill="rgb(139,1,4)" fill-opacity="1.000" d="M 840.25 536.46 L 810.21 529.00 Q 808.06 526.14 804.68 525.62 Q 801.90 525.19 801.85 525.17 Q 780.30 520.13 765.25 516.00 Q 763.54 515.53 762.75 517.04 L 744.75 512.54 Q 745.32 511.79 744.69 511.31 Q 742.97 510.01 740.66 509.64 Q 736.99 509.06 736.89 509.03 Q 725.89 506.27 714.93 503.36 Q 714.87 503.35 708.90 502.00 Q 705.68 501.27 702.06 499.94 Q 700.37 499.32 699.75 501.21 L 678.75 495.96 L 609.72 478.43 Q 609.32 478.33 608.93 478.44 Q 559.14 492.42 509.29 506.19 Q 507.25 506.75 505.18 506.27 Q 468.74 497.74 432.29 489.25 Q 416.84 485.42 401.31 481.94 Q 398.80 481.37 397.28 481.08 Q 395.39 480.71 393.29 481.35 Q 387.40 483.16 381.50 484.96 Q 382.20 483.19 380.06 483.56 Q 375.22 484.40 372.44 485.94 Q 370.63 486.93 366.16 487.85 Q 363.25 488.44 359.93 489.72 Q 355.61 491.39 351.03 492.15 Q 348.53 492.57 346.20 493.60 Q 343.85 494.64 341.40 495.41 Q 340.69 495.63 339.06 495.75 Q 337.82 495.83 336.71 496.31 Q 333.92 497.51 333.48 497.63 Q 329.81 498.65 326.28 500.12 A 1.06 0.85 89.5 0 0 325.74 500.80 L 325.50 501.71 L 223.25 532.46 Q 218.95 531.43 213.94 533.44 Q 208.62 535.57 188.66 541.18 Q 188.12 541.33 186.32 541.41 Q 185.04 541.47 184.00 542.25 Q 183.43 542.67 180.17 543.78 A 1.15 0.98 -1.6 0 0 179.48 544.40 L 179.00 545.71 L 167.05 549.42 A 0.67 0.63 -11.2 0 0 166.59 550.07 L 168.29 584.25 L 175.04 712.75 L 175.79 730.75 Q 175.61 731.34 175.16 731.72 A 1.07 0.81 -26.9 0 0 174.78 732.50 Q 175.95 749.22 176.06 763.19 Q 176.08 764.77 177.46 764.75 L 179.21 795.25 L 180.04 813.25 Q 179.25 817.32 179.49 821.39 Q 179.73 825.64 179.74 825.76 Q 179.90 832.76 180.07 839.76 Q 180.21 845.30 180.83 853.72 Q 181.37 861.01 181.75 869.75 Q 181.93 873.85 183.46 878.25 L 188.54 981.75 L 188.50 982.21 Q 187.87 981.82 187.79 981.00 Q 187.42 977.28 187.21 973.56 A 0.53 0.53 89.4 0 0 186.69 973.05 L 182.32 972.94 A 0.49 0.48 -0.6 0 1 181.84 972.48 Q 170.88 760.37 159.88 550.01 Q 159.65 545.63 159.74 541.50 A 0.88 0.87 82.6 0 1 160.36 540.69 Q 273.39 506.53 385.69 472.94 Q 388.91 471.97 390.72 472.39 Q 441.83 484.33 492.94 496.31 Q 498.20 497.55 500.25 497.46 Q 504.60 497.39 508.50 495.46 Q 509.66 495.51 511.50 495.00 Q 556.63 482.38 601.07 469.94 Q 602.26 469.61 603.47 469.91 L 838.78 529.27 A 1.97 1.66 -85.3 0 1 840.04 531.04 L 840.25 536.46 Z"/>
<path fill="rgb(254,219,124)" fill-opacity="1.000" d="M 678.75 495.96 Q 678.13 496.05 677.71 496.50 Q 645.23 488.75 612.90 480.43 Q 609.90 479.66 607.53 480.06 Q 604.83 480.51 602.25 481.54 L 508.65 507.78 Q 507.65 508.06 506.68 507.83 L 431.75 490.04 L 432.29 489.25 Q 468.74 497.74 505.18 506.27 Q 507.25 506.75 509.29 506.19 Q 559.14 492.42 608.93 478.44 Q 609.32 478.33 609.72 478.43 L 678.75 495.96 Z"/>
<path fill="rgb(226,190,80)" fill-opacity="1.000" d="M 677.71 496.50 Q 711.81 505.50 746.03 514.07 Q 792.15 525.62 838.25 537.25 Q 839.92 537.67 844.96 539.17 A 1.02 0.77 84.5 0 1 845.54 539.80 Q 845.74 540.41 846.25 540.51 A 0.60 0.48 6.3 0 1 846.74 541.00 L 846.79 544.25 L 845.96 568.25 L 845.29 581.00 Q 845.42 577.06 844.45 579.26 Q 844.25 579.71 844.22 580.30 Q 843.47 594.76 843.01 608.86 A 0.97 0.97 7.8 0 1 841.81 609.77 Q 769.99 591.92 698.22 574.13 Q 697.12 573.85 697.86 574.32 Q 714.25 584.47 729.82 595.84 Q 729.88 595.89 732.85 597.96 Q 737.58 601.26 741.14 605.76 A 2.83 2.83 -57.9 0 1 741.69 608.17 Q 740.96 611.40 739.56 614.38 Q 730.20 634.29 718.75 652.14 Q 717.36 654.29 717.75 651.76 Q 721.00 630.33 723.26 608.78 Q 723.55 606.08 722.66 604.36 Q 721.65 602.39 719.81 600.69 Q 702.85 584.97 688.56 572.91 Q 686.23 570.95 683.26 570.21 Q 604.66 550.73 526.00 531.50 Q 525.74 531.44 525.00 530.96 Q 526.32 529.58 529.25 527.75 Q 555.27 511.47 581.45 495.45 Q 588.85 490.93 595.92 485.92 Q 598.73 483.93 601.82 482.43 Q 602.12 482.28 602.21 482.10 Q 602.32 481.85 602.25 481.54 Q 604.83 480.51 607.53 480.06 Q 609.90 479.66 612.90 480.43 Q 645.23 488.75 677.71 496.50 Z"/>
<path fill="rgb(254,219,124)" fill-opacity="1.000" d="M 432.29 489.25 L 431.75 490.04 L 403.00 483.46 Q 400.72 482.69 398.36 482.29 Q 396.22 481.94 393.70 482.64 Q 373.41 488.34 365.00 491.00 Q 346.23 496.95 327.25 502.21 Q 326.73 501.70 326.00 501.71 L 381.50 484.96 Q 387.40 483.16 393.29 481.35 Q 395.39 480.71 397.28 481.08 Q 398.80 481.37 401.31 481.94 Q 416.84 485.42 432.29 489.25 Z"/>
<path fill="rgb(207,173,73)" fill-opacity="1.000" d="M 602.25 481.54 Q 602.32 481.85 602.21 482.10 Q 602.12 482.28 601.82 482.43 Q 598.73 483.93 595.92 485.92 Q 588.85 490.93 581.45 495.45 Q 555.27 511.47 529.25 527.75 Q 526.32 529.58 525.00 530.96 Q 523.43 531.23 522.07 532.07 Q 515.90 535.90 509.71 539.77 A 1.61 1.60 42.7 0 1 508.11 539.83 L 464.71 517.00 Q 464.54 516.56 463.50 516.00 Q 433.43 499.88 403.30 483.87 Q 403.20 483.82 403.05 483.79 Q 402.57 483.71 403.00 483.46 L 431.75 490.04 L 506.68 507.83 Q 507.65 508.06 508.65 507.78 L 602.25 481.54 Z"/>
<path fill="rgb(226,190,80)" fill-opacity="1.000" d="M 403.00 483.46 Q 402.57 483.71 403.05 483.79 Q 403.20 483.82 403.30 483.87 Q 433.43 499.88 463.50 516.00 Q 464.54 516.56 464.71 517.00 Q 453.78 513.91 443.00 515.50 Q 419.83 518.93 391.78 524.40 Q 280.83 546.07 170.29 570.47 A 1.24 1.23 -7.5 0 1 168.79 569.33 L 167.95 551.24 A 1.06 1.05 -9.9 0 1 168.70 550.18 Q 246.12 526.92 323.50 503.50 Q 326.20 502.68 327.25 502.21 Q 346.23 496.95 365.00 491.00 Q 373.41 488.34 393.70 482.64 Q 396.22 481.94 398.36 482.29 Q 400.72 482.69 403.00 483.46 Z"/>
<path fill="rgb(104,2,3)" fill-opacity="1.000" d="M 381.50 484.96 L 326.00 501.71 Q 325.75 501.79 325.50 501.71 L 325.74 500.80 A 1.06 0.85 89.5 0 1 326.28 500.12 Q 329.81 498.65 333.48 497.63 Q 333.92 497.51 336.71 496.31 Q 337.82 495.83 339.06 495.75 Q 340.69 495.63 341.40 495.41 Q 343.85 494.64 346.20 493.60 Q 348.53 492.57 351.03 492.15 Q 355.61 491.39 359.93 489.72 Q 363.25 488.44 366.16 487.85 Q 370.63 486.93 372.44 485.94 Q 375.22 484.40 380.06 483.56 Q 382.20 483.19 381.50 484.96 Z"/>
<path fill="rgb(253,239,146)" fill-opacity="1.000" d="M 678.75 495.96 L 699.75 501.21 L 744.75 512.54 L 762.75 517.04 L 810.21 529.00 L 840.25 536.46 L 846.21 538.18 A 0.85 0.79 4.1 0 1 846.79 538.80 Q 847.34 541.51 846.79 544.25 L 846.74 541.00 A 0.60 0.48 6.3 0 0 846.25 540.51 Q 845.74 540.41 845.54 539.80 A 1.02 0.77 84.5 0 0 844.96 539.17 Q 839.92 537.67 838.25 537.25 Q 792.15 525.62 746.03 514.07 Q 711.81 505.50 677.71 496.50 Q 678.13 496.05 678.75 495.96 Z"/>
<path fill="rgb(104,2,3)" fill-opacity="1.000" d="M 744.75 512.54 L 699.75 501.21 Q 700.37 499.32 702.06 499.94 Q 705.68 501.27 708.90 502.00 Q 714.87 503.35 714.93 503.36 Q 725.89 506.27 736.89 509.03 Q 736.99 509.06 740.66 509.64 Q 742.97 510.01 744.69 511.31 Q 745.32 511.79 744.75 512.54 Z"/>
<path fill="rgb(254,214,90)" fill-opacity="1.000" d="M 325.50 501.71 Q 325.75 501.79 326.00 501.71 Q 326.73 501.70 327.25 502.21 Q 326.20 502.68 323.50 503.50 Q 246.12 526.92 168.70 550.18 A 1.06 1.05 -9.9 0 0 167.95 551.24 L 168.79 569.33 A 1.24 1.23 -7.5 0 0 170.29 570.47 Q 280.83 546.07 391.78 524.40 Q 419.83 518.93 443.00 515.50 Q 453.78 513.91 464.71 517.00 L 508.11 539.83 A 1.61 1.60 42.7 0 0 509.71 539.77 Q 515.90 535.90 522.07 532.07 Q 523.43 531.23 525.00 530.96 Q 525.74 531.44 526.00 531.50 Q 604.66 550.73 683.26 570.21 Q 686.23 570.95 688.56 572.91 Q 702.85 584.97 719.81 600.69 Q 721.65 602.39 722.66 604.36 Q 723.55 606.08 723.26 608.78 Q 721.00 630.33 717.75 651.76 Q 717.36 654.29 718.75 652.14 Q 730.20 634.29 739.56 614.38 Q 740.96 611.40 741.69 608.17 A 2.83 2.83 -57.9 0 0 741.14 605.76 Q 737.58 601.26 732.85 597.96 Q 729.88 595.89 729.82 595.84 Q 714.25 584.47 697.86 574.32 Q 697.12 573.85 698.22 574.13 Q 769.99 591.92 841.81 609.77 A 0.97 0.97 7.8 0 0 843.01 608.86 Q 843.47 594.76 844.22 580.30 Q 844.25 579.71 844.45 579.26 Q 845.42 577.06 845.29 581.00 Q 840.69 702.14 835.70 823.26 Q 832.49 901.26 829.02 978.82 A 0.72 0.71 0.8 0 1 828.31 979.50 L 649.25 980.04 L 513.00 980.71 L 449.25 980.79 L 369.25 981.04 L 284.50 981.29 L 284.25 981.21 Q 282.48 980.27 280.75 980.25 Q 250.95 979.96 203.94 979.94 Q 202.78 979.94 198.91 980.19 Q 198.82 980.20 197.09 980.40 Q 193.48 980.83 190.86 978.35 A 1.35 1.26 -73.1 0 1 190.45 977.51 Q 189.61 969.27 189.25 961.01 Q 188.61 946.53 188.48 944.50 Q 187.08 921.49 186.07 898.45 Q 186.07 898.42 186.03 895.03 Q 186.00 892.32 185.50 888.50 Q 184.73 882.65 185.00 871.75 Q 185.04 870.31 184.62 869.58 Q 184.31 869.02 184.29 868.68 Q 183.74 854.59 183.00 840.50 Q 182.78 836.33 182.59 833.82 Q 182.20 828.62 182.16 827.16 Q 182.01 821.39 181.87 815.61 Q 181.86 815.34 181.22 805.93 Q 180.88 801.07 181.37 796.19 Q 181.51 794.76 180.56 794.50 A 1.88 1.41 -6.6 0 1 179.77 794.04 Q 179.16 793.39 179.21 795.25 L 177.46 764.75 L 175.79 730.75 L 175.04 712.75 Q 176.31 712.61 176.24 711.18 Q 173.53 660.82 171.29 610.43 Q 171.24 609.30 171.31 605.70 Q 171.35 603.33 171.08 600.98 Q 170.39 595.00 170.33 593.97 Q 170.11 589.61 169.79 585.25 Q 169.74 584.61 169.45 584.33 Q 168.98 583.89 168.29 584.25 L 166.59 550.07 A 0.67 0.63 -11.2 0 1 167.05 549.42 L 179.00 545.71 L 223.25 532.46 L 325.50 501.71 Z M 279.18 605.93 A 3.68 3.65 -34.5 0 0 278.64 608.77 Q 279.25 611.54 280.61 614.42 Q 290.13 634.55 301.92 652.59 Q 303.11 654.40 302.75 652.27 Q 299.17 630.72 296.76 609.03 Q 296.36 605.36 298.06 603.31 Q 301.93 598.68 309.81 591.79 Q 327.85 576.04 346.34 560.81 Q 348.38 559.13 346.47 560.25 Q 329.29 570.33 312.39 580.85 Q 296.74 590.60 282.34 602.10 Q 281.09 603.11 279.18 605.93 Z M 374.79 590.25 Q 375.51 595.58 376.59 600.84 Q 376.60 600.88 376.64 601.80 Q 376.67 602.53 377.50 602.54 Q 378.00 604.36 379.77 603.82 Q 384.67 602.33 389.74 601.75 Q 395.20 601.12 395.24 601.12 Q 432.40 595.99 469.85 594.17 Q 477.90 593.78 489.66 593.95 Q 499.58 594.09 509.50 594.00 Q 515.06 593.95 524.39 594.73 Q 526.79 594.93 530.62 594.88 Q 533.76 594.84 536.87 595.13 Q 545.51 595.94 546.17 595.97 Q 553.89 596.35 561.62 596.77 Q 561.69 596.77 569.86 597.51 Q 573.36 597.82 578.50 598.00 Q 588.98 598.37 636.57 603.76 A 1.00 0.76 -61.6 0 0 637.34 603.41 L 638.59 602.05 A 1.44 0.91 -33.6 0 0 638.98 601.18 L 638.78 590.76 A 2.20 2.07 4.9 0 0 636.97 588.74 Q 593.77 581.04 550.00 577.50 Q 532.78 576.11 523.18 575.68 Q 522.86 575.66 512.35 575.10 Q 504.24 574.66 496.15 575.23 Q 490.13 575.65 484.83 575.83 Q 479.83 576.00 473.50 576.50 Q 429.75 579.95 390.02 586.18 Q 389.96 586.18 385.13 587.06 Q 381.36 587.75 376.00 588.25 Q 373.98 588.44 374.79 590.25 Z"/>
<path fill="rgb(104,2,3)" fill-opacity="1.000" d="M 810.21 529.00 L 762.75 517.04 Q 763.54 515.53 765.25 516.00 Q 780.30 520.13 801.85 525.17 Q 801.90 525.19 804.68 525.62 Q 808.06 526.14 810.21 529.00 Z"/>
<path fill="rgb(104,2,3)" fill-opacity="1.000" d="M 223.25 532.46 L 179.00 545.71 L 179.48 544.40 A 1.15 0.98 -1.6 0 1 180.17 543.78 Q 183.43 542.67 184.00 542.25 Q 185.04 541.47 186.32 541.41 Q 188.12 541.33 188.66 541.18 Q 208.62 535.57 213.94 533.44 Q 218.95 531.43 223.25 532.46 Z"/>
<path fill="rgb(226,190,80)" fill-opacity="1.000" d="M 279.18 605.93 Q 281.09 603.11 282.34 602.10 Q 296.74 590.60 312.39 580.85 Q 329.29 570.33 346.47 560.25 Q 348.38 559.13 346.34 560.81 Q 327.85 576.04 309.81 591.79 Q 301.93 598.68 298.06 603.31 Q 296.36 605.36 296.76 609.03 Q 299.17 630.72 302.75 652.27 Q 303.11 654.40 301.92 652.59 Q 290.13 634.55 280.61 614.42 Q 279.25 611.54 278.64 608.77 A 3.68 3.65 -34.5 0 1 279.18 605.93 Z"/>
<path fill="rgb(140,22,9)" fill-opacity="1.000" d="M 845.96 568.25 L 846.24 568.49 A 0.84 0.70 -71.1 0 1 846.48 569.12 Q 845.58 590.26 845.15 611.41 Q 845.02 617.56 844.44 627.57 Q 844.01 634.84 843.75 643.75 Q 843.18 663.16 841.77 687.51 Q 841.45 693.06 841.26 705.00 Q 841.13 713.18 840.50 722.50 Q 839.43 738.29 839.00 761.50 Q 838.90 767.01 838.13 780.05 Q 837.60 789.05 837.40 798.59 Q 837.05 815.30 836.27 832.00 Q 834.94 860.25 833.75 888.50 Q 833.45 895.54 833.35 899.87 Q 833.13 908.56 832.99 911.24 Q 831.48 938.35 831.04 965.50 Q 830.94 971.52 830.18 978.07 Q 829.87 980.74 827.18 980.75 Q 780.87 981.03 733.75 980.80 Q 688.16 980.58 677.75 981.00 Q 663.41 981.58 651.75 981.00 Q 650.59 980.94 649.25 980.04 L 828.31 979.50 A 0.72 0.71 0.8 0 0 829.02 978.82 Q 832.49 901.26 835.70 823.26 Q 840.69 702.14 845.29 581.00 L 845.96 568.25 Z"/>
<path fill="rgb(253,239,146)" fill-opacity="1.000" d="M 377.50 602.54 Q 414.18 596.58 451.25 594.01 Q 491.51 591.21 531.76 593.58 Q 534.22 593.73 551.72 594.88 Q 594.46 597.69 637.08 602.51 A 0.60 0.58 3.1 0 0 637.74 601.93 L 637.70 590.81 A 0.60 0.58 4.6 0 0 637.19 590.23 Q 605.33 584.85 562.75 580.25 Q 527.39 576.43 495.25 576.97 Q 486.32 577.12 475.27 577.95 Q 424.75 581.74 374.79 590.25 Q 373.98 588.44 376.00 588.25 Q 381.36 587.75 385.13 587.06 Q 389.96 586.18 390.02 586.18 Q 429.75 579.95 473.50 576.50 Q 479.83 576.00 484.83 575.83 Q 490.13 575.65 496.15 575.23 Q 504.24 574.66 512.35 575.10 Q 522.86 575.66 523.18 575.68 Q 532.78 576.11 550.00 577.50 Q 593.77 581.04 636.97 588.74 A 2.20 2.07 4.9 0 1 638.78 590.76 L 638.98 601.18 A 1.44 0.91 -33.6 0 1 638.59 602.05 L 637.34 603.41 A 1.00 0.76 -61.6 0 1 636.57 603.76 Q 588.98 598.37 578.50 598.00 Q 573.36 597.82 569.86 597.51 Q 561.69 596.77 561.62 596.77 Q 553.89 596.35 546.17 595.97 Q 545.51 595.94 536.87 595.13 Q 533.76 594.84 530.62 594.88 Q 526.79 594.93 524.39 594.73 Q 515.06 593.95 509.50 594.00 Q 499.58 594.09 489.66 593.95 Q 477.90 593.78 469.85 594.17 Q 432.40 595.99 395.24 601.12 Q 395.20 601.12 389.74 601.75 Q 384.67 602.33 379.77 603.82 Q 378.00 604.36 377.50 602.54 Z"/>
<path fill="rgb(0,0,0)" fill-opacity="1.000" d="M 377.50 602.54 Q 376.67 602.53 376.64 601.80 Q 376.60 600.88 376.59 600.84 Q 375.51 595.58 374.79 590.25 Q 424.75 581.74 475.27 577.95 Q 486.32 577.12 495.25 576.97 Q 527.39 576.43 562.75 580.25 Q 605.33 584.85 637.19 590.23 A 0.60 0.58 4.6 0 1 637.70 590.81 L 637.74 601.93 A 0.60 0.58 3.1 0 1 637.08 602.51 Q 594.46 597.69 551.72 594.88 Q 534.22 593.73 531.76 593.58 Q 491.51 591.21 451.25 594.01 Q 414.18 596.58 377.50 602.54 Z M 585.08 583.81 Q 551.33 579.72 517.38 578.19 Q 513.23 578.00 508.60 578.00 Q 504.21 578.00 499.83 578.00 Q 492.94 578.00 486.68 578.41 Q 431.73 581.99 376.44 591.18 A 0.48 0.48 -9.9 0 0 376.04 591.74 L 377.59 600.31 A 0.92 0.91 -9.0 0 0 378.63 601.05 Q 391.61 599.14 404.24 597.40 Q 417.57 595.57 430.99 594.50 Q 435.87 594.12 444.98 593.26 Q 451.98 592.61 459.01 592.29 Q 467.61 591.89 477.98 591.32 Q 487.91 590.77 497.00 591.00 Q 551.45 592.36 607.83 598.28 Q 609.04 598.41 621.18 599.58 Q 627.69 600.21 634.51 601.10 A 1.28 1.28 12.0 0 0 635.90 600.20 Q 637.05 596.28 636.27 592.34 A 1.71 1.70 89.0 0 0 634.87 590.98 Q 610.12 586.85 585.08 583.81 Z"/>
<path fill="rgb(55,47,44)" fill-opacity="1.000" d="M 585.08 583.81 Q 610.12 586.85 634.87 590.98 A 1.71 1.70 89.0 0 1 636.27 592.34 Q 637.05 596.28 635.90 600.20 A 1.28 1.28 12.0 0 1 634.51 601.10 Q 627.69 600.21 621.18 599.58 Q 609.04 598.41 607.83 598.28 Q 551.45 592.36 497.00 591.00 Q 487.91 590.77 477.98 591.32 Q 467.61 591.89 459.01 592.29 Q 451.98 592.61 444.98 593.26 Q 435.87 594.12 430.99 594.50 Q 417.57 595.57 404.24 597.40 Q 391.61 599.14 378.63 601.05 A 0.92 0.91 -9.0 0 1 377.59 600.31 L 376.04 591.74 A 0.48 0.48 -9.9 0 1 376.44 591.18 Q 431.73 581.99 486.68 578.41 Q 492.94 578.00 499.83 578.00 Q 504.21 578.00 508.60 578.00 Q 513.23 578.00 517.38 578.19 Q 551.33 579.72 585.08 583.81 Z"/>
<path fill="rgb(254,219,124)" fill-opacity="1.000" d="M 175.04 712.75 L 168.29 584.25 Q 168.98 583.89 169.45 584.33 Q 169.74 584.61 169.79 585.25 Q 170.11 589.61 170.33 593.97 Q 170.39 595.00 171.08 600.98 Q 171.35 603.33 171.31 605.70 Q 171.24 609.30 171.29 610.43 Q 173.53 660.82 176.24 711.18 Q 176.31 712.61 175.04 712.75 Z"/>
<path fill="rgb(104,2,3)" fill-opacity="1.000" d="M 175.79 730.75 L 177.46 764.75 Q 176.08 764.77 176.06 763.19 Q 175.95 749.22 174.78 732.50 A 1.07 0.81 -26.9 0 1 175.16 731.72 Q 175.61 731.34 175.79 730.75 Z"/>
<path fill="rgb(254,219,124)" fill-opacity="1.000" d="M 284.25 981.21 L 188.54 981.75 L 183.46 878.25 L 180.04 813.25 L 179.21 795.25 Q 179.16 793.39 179.77 794.04 A 1.88 1.41 -6.6 0 0 180.56 794.50 Q 181.51 794.76 181.37 796.19 Q 180.88 801.07 181.22 805.93 Q 181.86 815.34 181.87 815.61 Q 182.01 821.39 182.16 827.16 Q 182.20 828.62 182.59 833.82 Q 182.78 836.33 183.00 840.50 Q 183.74 854.59 184.29 868.68 Q 184.31 869.02 184.62 869.58 Q 185.04 870.31 185.00 871.75 Q 184.73 882.65 185.50 888.50 Q 186.00 892.32 186.03 895.03 Q 186.07 898.42 186.07 898.45 Q 187.08 921.49 188.48 944.50 Q 188.61 946.53 189.25 961.01 Q 189.61 969.27 190.45 977.51 A 1.35 1.26 -73.1 0 0 190.86 978.35 Q 193.48 980.83 197.09 980.40 Q 198.82 980.20 198.91 980.19 Q 202.78 979.94 203.94 979.94 Q 250.95 979.96 280.75 980.25 Q 282.48 980.27 284.25 981.21 Z"/>
<path fill="rgb(104,2,3)" fill-opacity="1.000" d="M 180.04 813.25 L 183.46 878.25 Q 181.93 873.85 181.75 869.75 Q 181.37 861.01 180.83 853.72 Q 180.21 845.30 180.07 839.76 Q 179.90 832.76 179.74 825.76 Q 179.73 825.64 179.49 821.39 Q 179.25 817.32 180.04 813.25 Z"/>
<path fill="rgb(247,181,180)" fill-opacity="1.000" d="M 856.04 958.00 Q 855.97 965.00 855.93 972.00 Q 855.92 973.41 854.50 973.21 Q 854.08 973.09 853.69 972.89 Q 853.33 972.72 853.10 972.31 Q 850.76 968.10 848.21 964.00 L 846.55 960.89 Q 845.99 959.84 846.00 960.99 Q 846.05 966.72 845.94 972.44 Q 845.92 973.61 844.50 973.21 L 844.24 972.86 A 1.43 1.00 -71.8 0 1 844.00 972.06 L 844.00 957.81 A 0.80 0.80 -6.3 0 1 844.63 957.03 Q 846.53 956.60 847.09 957.97 Q 847.48 958.91 847.52 958.98 Q 850.28 963.82 853.20 968.58 Q 853.97 969.84 854.00 968.34 L 854.16 958.19 A 1.32 1.10 72.6 0 1 854.52 957.31 Q 855.45 956.44 856.04 958.00 Z"/>
<path fill="rgb(247,181,180)" fill-opacity="1.000" d="M 887.79 963.00 Q 890.49 967.26 887.98 971.29 Q 886.96 972.93 884.37 973.06 L 880.00 973.29 Q 878.99 972.95 879.00 971.00 Q 879.03 965.65 879.00 960.31 Q 879.00 960.19 878.90 958.71 Q 878.71 956.20 881.05 957.27 A 0.77 0.62 -77.9 0 1 881.41 957.99 L 881.22 961.04 A 1.11 0.99 -2.3 0 0 882.47 962.07 Q 885.59 961.67 887.79 963.00 Z M 883.50 970.96 Q 887.81 970.56 886.71 966.00 Q 885.25 962.76 881.78 963.89 A 0.71 0.63 81.1 0 0 881.35 964.56 L 881.52 970.50 A 0.59 0.44 87.7 0 0 882.00 971.09 L 883.50 970.96 Z"/>
<path fill="rgb(247,181,180)" fill-opacity="1.000" d="M 939.00 958.46 Q 935.42 959.22 930.76 958.94 A 1.55 1.54 0.3 0 0 929.12 960.55 Q 929.26 963.78 931.00 963.71 Q 932.40 964.00 935.50 964.00 Q 937.65 964.00 939.04 966.00 Q 940.82 973.36 933.25 972.94 Q 930.60 972.79 928.00 973.29 Q 925.60 971.54 928.50 971.29 Q 931.48 971.03 934.46 970.82 Q 935.78 970.73 936.33 970.13 Q 937.09 969.31 936.96 968.00 Q 936.68 965.66 934.24 965.93 Q 931.47 966.24 928.79 965.50 Q 927.37 964.57 927.19 962.31 Q 926.77 957.16 931.33 957.17 Q 933.56 957.18 933.68 957.17 Q 935.95 957.08 938.20 957.39 Q 938.66 957.45 938.84 957.69 Q 939.07 958.00 939.00 958.46 Z"/>
<path fill="rgb(247,181,180)" fill-opacity="1.000" d="M 943.79 957.50 L 943.75 972.24 A 1.01 0.76 79.0 0 1 943.35 973.06 Q 942.76 973.40 942.00 973.29 Q 940.69 972.29 940.71 970.50 L 940.54 966.00 Q 941.52 962.02 940.84 958.00 A 0.67 0.58 75.7 0 1 941.20 957.29 Q 942.54 956.76 943.79 957.50 Z"/>
<path fill="rgb(247,181,180)" fill-opacity="1.000" d="M 968.79 957.50 L 968.32 960.94 A 0.94 0.88 -68.7 0 0 968.66 961.79 Q 969.21 962.20 970.00 961.96 Q 973.07 961.51 975.25 963.54 Q 976.36 967.88 975.87 972.32 A 1.14 0.79 83.8 0 1 975.43 973.13 Q 974.95 973.41 974.29 973.25 Q 973.11 969.74 973.46 966.00 Q 973.45 963.80 969.84 963.72 A 1.34 1.34 89.8 0 0 968.47 965.10 Q 968.53 966.93 968.51 969.62 Q 968.51 969.76 968.61 971.35 Q 968.78 974.08 966.03 973.12 A 0.74 0.53 -82.7 0 1 965.67 972.45 L 965.71 970.00 L 965.96 965.00 L 966.04 961.75 Q 966.45 959.99 966.11 958.23 A 0.91 0.74 67.4 0 1 966.36 957.40 Q 967.48 956.48 968.79 957.50 Z"/>
<path fill="rgb(32,0,0)" fill-opacity="1.000" d="M 943.79 957.50 Q 945.72 959.90 944.75 963.25 Q 944.36 964.59 945.75 964.79 L 945.71 969.00 Q 944.57 970.37 945.12 972.76 A 0.77 0.76 76.8 0 1 944.56 973.67 Q 941.51 974.44 942.00 973.29 Q 942.76 973.40 943.35 973.06 A 1.01 0.76 79.0 0 0 943.75 972.24 L 943.79 957.50 Z"/>
<path fill="rgb(32,0,0)" fill-opacity="1.000" d="M 968.79 957.50 Q 969.63 958.04 969.25 959.25 Q 968.86 960.52 970.00 961.96 Q 969.21 962.20 968.66 961.79 A 0.94 0.88 -68.7 0 1 968.32 960.94 L 968.79 957.50 Z"/>
<path fill="rgb(32,0,0)" fill-opacity="1.000" d="M 854.50 973.21 Q 855.92 973.41 855.93 972.00 Q 855.97 965.00 856.04 958.00 Q 857.41 957.42 857.34 958.86 Q 857.27 959.99 857.28 960.14 Q 857.57 966.38 857.18 973.77 A 0.73 0.72 8.3 0 1 856.28 974.43 Q 852.52 973.52 854.50 973.21 Z"/>
<path fill="rgb(32,0,0)" fill-opacity="1.000" d="M 939.00 958.46 Q 939.93 958.23 940.14 958.70 A 0.85 0.59 -34.6 0 1 939.82 959.54 Q 938.56 960.58 936.50 960.25 Q 935.49 960.09 934.08 960.28 Q 933.91 960.31 932.29 960.44 Q 929.55 960.67 931.00 963.71 Q 929.26 963.78 929.12 960.55 A 1.55 1.54 0.3 0 1 930.76 958.94 Q 935.42 959.22 939.00 958.46 Z"/>
<path fill="rgb(247,181,180)" fill-opacity="1.000" d="M 918.00 963.46 Q 916.55 964.17 915.06 963.77 A 0.53 0.52 6.4 0 0 914.39 964.30 Q 914.55 967.03 914.39 968.99 Q 914.22 971.27 916.50 970.96 Q 917.30 971.29 917.79 972.00 Q 916.47 973.80 914.25 972.79 Q 913.74 972.46 913.27 972.07 Q 912.80 971.70 912.61 971.11 Q 911.59 968.05 912.04 964.75 Q 912.43 963.92 911.50 963.75 Q 909.01 963.29 906.28 964.16 A 0.85 0.81 88.0 0 0 905.71 964.80 Q 904.90 968.96 905.31 971.69 Q 905.57 973.40 903.75 973.21 Q 902.99 972.99 902.75 972.21 L 902.71 965.75 Q 904.02 960.72 909.06 962.44 Q 909.88 962.72 911.54 961.97 A 0.69 0.65 74.5 0 0 911.92 961.26 Q 911.51 958.25 913.99 959.34 A 0.57 0.52 -69.3 0 1 914.26 960.02 Q 913.38 962.59 916.75 962.02 Q 918.34 961.76 918.00 963.46 Z"/>
<path fill="rgb(247,181,180)" fill-opacity="1.000" d="M 965.21 962.50 Q 964.99 964.29 962.71 963.67 A 1.28 1.27 -83.9 0 0 961.11 964.97 Q 961.22 967.04 961.50 970.00 Q 961.68 971.88 963.50 970.71 Q 964.17 970.65 964.71 971.00 Q 965.19 972.97 963.56 973.19 Q 961.88 973.41 960.04 972.00 Q 958.82 970.08 958.79 967.75 Q 958.53 966.16 959.25 964.75 Q 960.36 962.59 958.00 963.75 Q 957.00 964.24 956.71 963.00 Q 957.14 962.03 958.35 962.00 A 0.96 0.95 -4.6 0 0 959.27 960.92 Q 958.94 958.39 960.57 959.24 A 0.97 0.66 -82.4 0 1 960.95 960.00 L 960.98 961.44 A 0.69 0.45 5.8 0 0 961.57 961.91 L 965.21 962.50 Z"/>
<path fill="rgb(32,0,0)" fill-opacity="1.000" d="M 848.21 964.00 Q 847.22 964.33 847.25 965.00 Q 847.41 968.75 847.52 973.42 A 0.95 0.95 1.6 0 1 846.49 974.39 Q 843.82 974.14 844.50 973.21 Q 845.92 973.61 845.94 972.44 Q 846.05 966.72 846.00 960.99 Q 845.99 959.84 846.55 960.89 L 848.21 964.00 Z"/>
<path fill="rgb(32,0,0)" fill-opacity="1.000" d="M 966.04 961.75 L 965.96 965.00 Q 965.13 965.32 963.83 965.22 A 1.18 1.03 -2.7 0 0 962.55 966.45 L 963.50 970.71 Q 961.68 971.88 961.50 970.00 Q 961.22 967.04 961.11 964.97 A 1.28 1.27 -83.9 0 1 962.71 963.67 Q 964.99 964.29 965.21 962.50 Q 965.88 962.32 966.04 961.75 Z"/>
<path fill="rgb(247,181,180)" fill-opacity="1.000" d="M 869.04 965.00 Q 871.18 973.85 862.25 972.79 Q 859.40 971.73 858.97 969.21 Q 858.59 967.00 859.37 964.82 Q 860.39 961.96 864.25 961.93 Q 867.68 961.91 869.04 965.00 Z M 863.75 970.96 Q 865.96 971.44 866.81 969.81 Q 868.04 967.47 866.50 964.96 Q 864.56 962.61 862.50 964.25 Q 859.81 966.39 861.67 970.07 Q 862.31 971.32 863.75 970.96 Z"/>
<path fill="rgb(247,181,180)" fill-opacity="1.000" d="M 877.54 963.25 Q 877.21 963.80 876.25 963.75 Q 873.35 963.59 873.36 966.08 Q 873.38 968.27 873.36 968.43 Q 873.20 970.16 873.26 972.09 A 0.82 0.81 -15.1 0 1 872.82 972.84 Q 871.13 973.70 870.98 972.25 Q 870.61 968.53 870.75 964.79 Q 872.88 961.13 876.99 962.19 A 0.68 0.64 5.6 0 1 877.50 962.78 L 877.54 963.25 Z"/>
<path fill="rgb(247,181,180)" fill-opacity="1.000" d="M 900.71 965.25 L 901.00 968.23 A 0.53 0.47 -2.5 0 1 900.47 968.75 L 893.61 968.75 A 0.39 0.38 81.5 0 0 893.25 969.25 Q 893.81 971.06 895.76 970.92 Q 897.75 970.78 899.75 970.71 L 900.21 971.25 Q 900.35 971.90 900.15 972.49 A 0.73 0.71 10.3 0 1 899.44 972.97 L 893.75 972.79 Q 891.53 971.83 890.79 969.50 L 890.71 965.50 Q 892.74 960.95 897.76 962.21 Q 900.12 962.81 900.71 965.25 Z M 897.02 964.31 Q 894.22 963.31 893.25 966.01 A 0.81 0.72 7.4 0 0 894.09 966.98 L 898.23 966.77 A 0.39 0.34 -9.4 0 0 898.60 966.32 Q 898.08 964.68 897.02 964.31 Z"/>
<path fill="rgb(247,181,180)" fill-opacity="1.000" d="M 954.75 963.04 Q 956.45 964.57 956.50 967.25 Q 956.60 972.81 951.31 973.06 Q 948.36 973.21 946.00 970.71 Q 945.62 969.91 945.71 969.00 L 945.75 964.79 Q 949.46 960.48 954.75 963.04 Z M 950.00 970.96 Q 955.69 971.56 953.96 965.50 Q 953.42 963.75 951.75 963.75 Q 948.01 963.75 948.13 967.18 Q 948.19 968.80 948.33 969.33 Q 948.64 970.50 950.00 970.96 Z"/>
<path fill="rgb(32,0,0)" fill-opacity="1.000" d="M 887.79 963.00 L 890.71 965.50 L 890.79 969.50 Q 889.64 969.99 889.47 971.53 A 2.44 2.43 84.4 0 1 887.80 973.57 Q 883.97 974.79 880.39 974.01 A 0.49 0.37 7.2 0 1 879.99 973.62 L 880.00 973.29 L 884.37 973.06 Q 886.96 972.93 887.98 971.29 Q 890.49 967.26 887.79 963.00 Z"/>
<path fill="rgb(32,0,0)" fill-opacity="1.000" d="M 954.75 963.04 L 956.71 963.00 Q 957.00 964.24 958.00 963.75 Q 960.36 962.59 959.25 964.75 Q 958.53 966.16 958.79 967.75 Q 958.61 968.51 957.97 969.03 A 1.44 1.14 -19.5 0 0 957.49 969.80 Q 956.93 972.95 954.00 973.75 Q 948.94 975.14 945.81 971.44 Q 945.46 971.02 946.00 970.71 Q 948.36 973.21 951.31 973.06 Q 956.60 972.81 956.50 967.25 Q 956.45 964.57 954.75 963.04 Z"/>
<path fill="rgb(32,0,0)" fill-opacity="1.000" d="M 877.54 963.25 Q 878.90 962.92 878.80 963.95 A 0.83 0.75 -5.5 0 1 878.21 964.60 L 875.05 965.46 A 0.65 0.63 -7.9 0 0 874.57 966.07 Q 874.57 967.49 874.45 968.91 Q 874.37 969.90 874.56 971.70 Q 874.96 975.58 870.56 973.19 A 2.17 1.12 35.0 0 0 868.69 972.94 Q 865.98 974.67 862.82 973.91 Q 862.03 973.71 862.25 972.79 Q 871.18 973.85 869.04 965.00 Q 869.93 965.12 870.75 964.79 Q 870.61 968.53 870.98 972.25 Q 871.13 973.70 872.82 972.84 A 0.82 0.81 -15.1 0 0 873.26 972.09 Q 873.20 970.16 873.36 968.43 Q 873.38 968.27 873.36 966.08 Q 873.35 963.59 876.25 963.75 Q 877.21 963.80 877.54 963.25 Z"/>
<path fill="rgb(32,0,0)" fill-opacity="1.000" d="M 912.04 964.75 L 907.29 965.44 A 0.66 0.64 -3.3 0 0 906.73 966.05 L 906.50 971.25 Q 906.35 974.74 904.06 974.19 Q 903.12 973.96 903.75 973.21 Q 905.57 973.40 905.31 971.69 Q 904.90 968.96 905.71 964.80 A 0.85 0.81 88.0 0 1 906.28 964.16 Q 909.01 963.29 911.50 963.75 Q 912.43 963.92 912.04 964.75 Z"/>
<path fill="rgb(32,0,0)" fill-opacity="1.000" d="M 918.00 963.46 Q 918.77 963.76 918.49 964.30 A 1.22 0.29 -18.4 0 1 917.70 964.79 L 916.12 965.42 A 1.04 0.76 87.8 0 0 915.60 966.19 Q 915.23 968.71 916.50 970.96 Q 914.22 971.27 914.39 968.99 Q 914.55 967.03 914.39 964.30 A 0.53 0.52 6.4 0 1 915.06 963.77 Q 916.55 964.17 918.00 963.46 Z"/>
<path fill="rgb(32,0,0)" fill-opacity="1.000" d="M 975.25 963.54 Q 976.01 963.56 976.31 964.44 Q 977.73 968.57 977.10 972.57 Q 976.94 973.58 976.28 974.04 Q 975.06 974.90 974.29 973.25 Q 974.95 973.41 975.43 973.13 A 1.14 0.79 83.8 0 0 975.87 972.32 Q 976.36 967.88 975.25 963.54 Z"/>
<path fill="rgb(32,0,0)" fill-opacity="1.000" d="M 866.50 964.96 Q 865.74 965.45 864.96 965.21 Q 864.30 965.00 864.00 965.06 Q 862.47 965.40 862.31 967.31 Q 862.12 969.65 863.75 970.96 Q 862.31 971.32 861.67 970.07 Q 859.81 966.39 862.50 964.25 Q 864.56 962.61 866.50 964.96 Z"/>
<path fill="rgb(32,0,0)" fill-opacity="1.000" d="M 886.71 966.00 Q 881.68 963.02 882.75 968.75 Q 883.08 970.51 883.50 970.96 L 882.00 971.09 A 0.59 0.44 87.7 0 1 881.52 970.50 L 881.35 964.56 A 0.71 0.63 81.1 0 1 881.78 963.89 Q 885.25 962.76 886.71 966.00 Z"/>
<path fill="rgb(32,0,0)" fill-opacity="1.000" d="M 953.96 965.50 Q 953.35 965.81 952.88 965.56 Q 952.18 965.19 952.00 965.17 Q 948.43 964.76 949.22 969.01 Q 949.41 970.04 950.00 970.96 Q 948.64 970.50 948.33 969.33 Q 948.19 968.80 948.13 967.18 Q 948.01 963.75 951.75 963.75 Q 953.42 963.75 953.96 965.50 Z"/>
<path fill="rgb(32,0,0)" fill-opacity="1.000" d="M 973.46 966.00 Q 972.01 964.71 970.05 964.98 A 0.61 0.56 87.9 0 0 969.56 965.56 L 969.34 973.06 A 0.68 0.67 83.2 0 1 968.84 973.70 Q 964.43 974.93 960.25 973.13 A 0.73 0.51 19.4 0 1 959.77 972.46 Q 959.82 972.22 960.04 972.00 Q 961.88 973.41 963.56 973.19 Q 965.19 972.97 964.71 971.00 Q 965.11 970.40 965.71 970.00 L 965.67 972.45 A 0.74 0.53 -82.7 0 0 966.03 973.12 Q 968.78 974.08 968.61 971.35 Q 968.51 969.76 968.51 969.62 Q 968.53 966.93 968.47 965.10 A 1.34 1.34 89.8 0 1 969.84 963.72 Q 973.45 963.80 973.46 966.00 Z"/>
<path fill="rgb(32,0,0)" fill-opacity="1.000" d="M 897.02 964.31 Q 898.08 964.68 898.60 966.32 A 0.39 0.34 -9.4 0 1 898.23 966.77 L 894.09 966.98 A 0.81 0.72 7.4 0 1 893.25 966.01 Q 894.22 963.31 897.02 964.31 Z M 895.61 965.81 Q 895.75 966.14 896.26 966.10 A 0.68 0.59 -2.2 0 0 896.88 965.52 Q 896.88 965.02 896.04 965.19 A 0.53 0.44 -15.6 0 0 895.61 965.81 Z"/>
<path fill="rgb(200,39,45)" fill-opacity="1.000" d="M 866.50 964.96 Q 868.04 967.47 866.81 969.81 Q 865.96 971.44 863.75 970.96 Q 862.12 969.65 862.31 967.31 Q 862.47 965.40 864.00 965.06 Q 864.30 965.00 864.96 965.21 Q 865.74 965.45 866.50 964.96 Z"/>
<path fill="rgb(200,39,45)" fill-opacity="1.000" d="M 886.71 966.00 Q 887.81 970.56 883.50 970.96 Q 883.08 970.51 882.75 968.75 Q 881.68 963.02 886.71 966.00 Z"/>
<path fill="rgb(32,0,0)" fill-opacity="1.000" d="M 902.71 965.75 L 902.75 972.21 Q 902.47 972.33 902.27 972.27 A 0.64 0.36 -77.0 0 1 902.08 971.62 Q 902.68 968.36 899.75 970.71 Q 897.75 970.78 895.76 970.92 Q 893.81 971.06 893.25 969.25 A 0.39 0.38 81.5 0 1 893.61 968.75 L 900.47 968.75 A 0.53 0.47 -2.5 0 0 901.00 968.23 L 900.71 965.25 Q 901.79 964.86 902.71 965.75 Z"/>
<path fill="rgb(247,181,180)" fill-opacity="1.000" d="M 925.04 965.75 Q 925.32 966.25 925.09 966.64 A 1.11 0.52 2.8 0 1 924.24 966.99 L 919.79 967.25 Q 917.95 964.77 920.64 965.10 Q 921.34 965.18 922.36 965.07 Q 923.80 964.91 925.04 965.75 Z"/>
<path fill="rgb(200,39,45)" fill-opacity="1.000" d="M 953.96 965.50 Q 955.69 971.56 950.00 970.96 Q 949.41 970.04 949.22 969.01 Q 948.43 964.76 952.00 965.17 Q 952.18 965.19 952.88 965.56 Q 953.35 965.81 953.96 965.50 Z"/>
<path fill="rgb(200,39,45)" fill-opacity="1.000" d="M 965.96 965.00 L 965.71 970.00 Q 965.11 970.40 964.71 971.00 Q 964.17 970.65 963.50 970.71 L 962.55 966.45 A 1.18 1.03 -2.7 0 1 963.83 965.22 Q 965.13 965.32 965.96 965.00 Z"/>
<path fill="rgb(140,22,9)" fill-opacity="1.000" d="M 896.04 965.19 Q 896.88 965.02 896.88 965.52 A 0.68 0.59 -2.2 0 1 896.26 966.10 Q 895.75 966.14 895.61 965.81 A 0.53 0.44 -15.6 0 1 896.04 965.19 Z"/>
<path fill="rgb(32,0,0)" fill-opacity="1.000" d="M 928.79 965.50 Q 931.47 966.24 934.24 965.93 Q 936.68 965.66 936.96 968.00 Q 935.90 967.10 934.50 967.23 Q 932.17 967.46 929.25 966.50 Q 928.24 966.17 928.79 965.50 Z"/>
<path fill="rgb(32,0,0)" fill-opacity="1.000" d="M 940.54 966.00 L 940.71 970.50 Q 939.62 971.42 939.10 972.72 A 1.12 1.00 -86.4 0 1 938.46 973.35 Q 933.61 974.93 928.55 973.98 Q 928.25 973.93 928.13 973.78 Q 927.97 973.58 928.00 973.29 Q 930.60 972.79 933.25 972.94 Q 940.82 973.36 939.04 966.00 Q 939.83 964.84 940.54 966.00 Z"/>
<path fill="rgb(32,0,0)" fill-opacity="1.000" d="M 925.04 965.75 Q 926.56 965.78 926.22 967.10 A 1.19 1.03 -8.9 0 1 925.63 967.80 Q 922.57 969.31 919.79 967.25 L 924.24 966.99 A 1.11 0.52 2.8 0 0 925.09 966.64 Q 925.32 966.25 925.04 965.75 Z"/>
<path fill="rgb(32,0,0)" fill-opacity="1.000" d="M 893.75 972.79 L 899.44 972.97 A 0.73 0.71 10.3 0 0 900.15 972.49 Q 900.35 971.90 900.21 971.25 Q 900.24 971.11 900.33 971.05 A 0.24 0.16 57.9 0 1 900.60 971.17 Q 902.34 974.22 897.80 974.26 Q 896.83 974.26 895.89 974.07 Q 893.31 973.53 893.75 972.79 Z"/>
<path fill="rgb(32,0,0)" fill-opacity="1.000" d="M 917.79 972.00 Q 918.85 972.33 918.51 973.36 A 1.07 0.94 -2.4 0 1 917.85 973.99 Q 915.73 974.71 914.00 973.23 A 0.16 0.13 -36.8 0 1 914.06 973.00 Q 914.18 972.93 914.25 972.79 Q 916.47 973.80 917.79 972.00 Z"/>
<path fill="rgb(141,0,6)" fill-opacity="1.000" d="M 449.25 980.79 Q 458.85 981.38 461.25 981.00 Q 462.72 980.77 462.75 981.71 Q 432.52 982.14 393.00 982.00 Q 380.09 981.96 369.25 981.04 L 449.25 980.79 Z"/>
<path fill="rgb(104,2,3)" fill-opacity="1.000" d="M 449.25 980.79 L 513.00 980.71 L 524.18 980.81 Q 524.49 980.81 524.26 981.07 Q 524.14 981.20 524.13 981.38 A 0.32 0.26 -88.9 0 1 523.87 981.69 L 462.75 981.71 Q 462.72 980.77 461.25 981.00 Q 458.85 981.38 449.25 980.79 Z"/>
<path fill="rgb(140,22,9)" fill-opacity="1.000" d="M 284.25 981.21 L 284.50 981.29 Q 283.99 982.06 282.75 982.25 Q 278.45 982.91 274.52 982.74 Q 267.09 982.40 266.34 982.42 Q 235.39 983.23 194.75 982.75 Q 190.58 982.70 188.50 982.21 L 188.54 981.75 L 284.25 981.21 Z"/>
</svg>