<?xml version="1.0" encoding="UTF-8" standalone="no"?>
<!DOCTYPE svg PUBLIC "-//W3C//DTD SVG 1.1//EN" "http://www.w3.org/Graphics/SVG/1.1/DTD/svg11.dtd">
<svg xmlns="http://www.w3.org/2000/svg" version="1.1" viewBox="0 0 1000 1000">
<path fill="rgb(255,173,0)" fill-opacity="1.000" d="M 0.00 0.00 Q 500.00 0.00 1000.00 0.00 Q 1000.00 500.00 1000.00 1000.00 Q 500.00 1000.00 0.00 1000.00 Q 0.00 500.00 0.00 0.00 Z M 277.42 403.04 A 56.20 56.20 0 0 0 221.22 346.84 A 56.20 56.20 0 0 0 165.02 403.04 A 56.20 56.20 0 0 0 221.22 459.24 A 56.20 56.20 0 0 0 277.42 403.04 Z M 879.96 403.03 A 56.20 56.20 0 0 0 823.76 346.83 A 56.20 56.20 0 0 0 767.56 403.03 A 56.20 56.20 0 0 0 823.76 459.23 A 56.20 56.20 0 0 0 879.96 403.03 Z M 428.92 703.33 Q 433.52 706.84 438.62 709.59 Q 511.98 749.00 594.77 756.25 Q 604.49 757.10 614.74 757.34 Q 686.59 759.08 757.25 739.50 Q 812.45 724.21 860.86 696.90 Q 873.42 689.81 876.79 685.34 Q 884.12 675.60 876.00 662.25 Q 870.51 653.23 860.18 651.18 Q 857.20 650.59 854.30 650.99 Q 851.21 651.42 848.56 652.56 Q 844.40 654.36 836.30 658.55 Q 778.98 688.23 715.95 702.27 Q 677.31 710.88 638.75 711.75 Q 595.10 712.73 551.99 703.47 Q 542.31 701.39 532.60 698.61 Q 511.03 692.42 494.31 684.94 Q 478.03 677.65 462.12 669.58 Q 456.54 666.75 450.56 664.94 Q 433.73 659.87 424.19 673.90 Q 421.67 677.62 420.40 681.92 Q 418.34 688.91 421.85 695.17 Q 424.54 699.97 428.92 703.33 Z M 928.04 964.75 Q 928.03 966.23 929.50 966.46 Q 931.76 967.44 933.75 967.25 Q 935.47 967.09 936.71 967.75 Q 937.25 970.40 935.39 970.90 Q 935.07 970.98 932.59 971.14 Q 931.17 971.22 928.75 971.25 Q 925.71 971.28 928.00 973.54 Q 928.90 974.44 930.14 974.39 Q 931.70 974.33 931.89 974.34 Q 935.47 974.60 938.75 973.21 Q 939.55 975.32 941.75 973.96 Q 945.42 974.95 945.21 971.00 Q 946.09 970.94 946.54 971.50 Q 951.11 976.42 955.76 972.75 Q 957.04 971.74 957.44 970.19 Q 957.85 968.64 957.79 967.00 Q 958.15 970.43 960.75 972.71 Q 961.70 974.54 964.80 973.84 A 3.12 3.10 -35.9 0 1 967.09 974.20 Q 968.02 974.76 969.13 973.84 A 1.13 1.13 70.9 0 0 969.54 972.99 L 969.74 965.76 A 0.83 0.81 88.5 0 1 970.48 964.96 Q 971.67 964.87 973.21 965.50 Q 973.56 967.69 973.32 969.94 Q 973.10 972.10 974.46 973.75 Q 975.62 974.63 976.46 973.92 Q 976.99 973.47 977.13 972.39 Q 977.54 969.12 976.75 965.50 Q 976.40 963.92 975.25 963.29 Q 972.71 961.80 969.75 961.71 Q 969.37 960.19 969.50 959.75 Q 969.92 958.37 968.79 958.00 Q 967.67 956.79 966.81 957.62 A 1.46 0.51 -89.2 0 0 966.49 958.50 L 965.96 962.50 Q 965.49 962.55 965.29 963.00 Q 964.55 961.76 963.04 961.50 Q 962.43 960.49 961.29 960.25 Q 959.39 958.54 959.05 961.00 A 1.38 1.02 -22.1 0 1 958.58 961.77 L 956.46 963.50 Q 955.92 963.08 955.25 963.04 Q 949.96 960.94 945.64 964.20 A 1.24 0.51 -89.1 0 0 945.29 965.01 L 945.04 966.75 L 944.71 958.00 Q 942.89 956.99 940.97 957.58 Q 940.45 957.74 940.01 957.67 Q 934.41 956.77 930.75 957.25 Q 927.48 957.68 927.41 960.89 Q 927.41 961.03 927.28 962.46 Q 927.16 963.70 928.04 964.75 Z M 845.04 973.25 Q 845.15 974.99 846.55 974.00 A 1.04 1.03 72.9 0 0 846.98 973.18 L 847.29 963.75 Q 847.91 963.56 848.31 964.19 Q 851.19 968.71 854.04 973.25 Q 855.13 975.10 856.69 973.89 A 1.18 1.01 75.6 0 0 857.09 973.07 Q 857.35 968.70 857.25 959.25 Q 857.23 957.77 856.29 958.00 Q 855.30 957.15 854.65 957.97 Q 854.32 958.39 854.35 959.24 Q 854.49 962.67 852.96 965.75 Q 850.44 962.58 848.40 959.08 Q 847.91 958.25 847.00 958.04 Q 846.18 957.20 845.18 957.32 A 0.67 0.60 89.2 0 0 844.65 957.93 Q 844.00 965.62 845.04 973.25 Z M 870.04 964.50 Q 869.72 963.79 869.00 963.79 Q 865.39 961.17 861.40 962.74 Q 861.10 962.86 860.67 963.35 L 858.14 966.18 A 1.05 0.67 -37.5 0 0 857.85 966.98 Q 858.49 969.79 860.29 972.00 Q 865.47 976.83 870.21 971.50 Q 870.20 973.16 871.75 973.54 Q 873.15 975.09 874.23 973.66 A 1.65 0.69 82.7 0 0 874.48 972.75 L 874.75 966.07 A 0.85 0.78 -11.3 0 1 875.27 965.36 Q 876.91 964.70 878.71 964.75 Q 879.84 968.24 879.25 971.25 Q 878.92 972.94 880.00 973.54 Q 886.51 976.38 889.96 970.75 Q 891.05 970.99 891.79 971.75 Q 895.34 975.46 900.34 973.97 A 1.14 0.85 -3.8 0 0 901.04 973.37 Q 901.22 972.85 901.04 972.25 Q 901.76 972.07 902.46 971.03 Q 902.75 970.60 902.62 971.10 Q 902.12 973.04 903.75 973.54 Q 904.81 974.90 905.91 973.87 A 1.26 1.16 -22.4 0 0 906.31 973.01 L 906.46 966.52 A 1.49 1.35 83.9 0 1 907.47 965.13 Q 909.98 964.49 911.96 965.00 Q 912.66 967.49 912.50 968.50 Q 912.16 970.58 913.29 972.25 Q 914.06 973.96 916.25 974.25 Q 918.33 974.52 918.49 972.85 A 0.58 0.37 -82.4 0 0 918.22 972.28 Q 918.01 972.23 917.79 972.50 Q 917.06 971.53 916.00 970.96 Q 915.48 969.52 915.47 968.01 Q 915.47 967.81 915.39 966.50 Q 915.27 964.70 917.15 964.90 Q 917.90 964.98 918.33 964.81 Q 920.08 964.14 918.29 963.25 Q 917.88 961.71 916.29 961.50 Q 915.62 960.21 914.29 960.50 Q 914.12 959.08 913.01 959.57 A 1.23 0.84 -86.3 0 0 912.44 960.30 Q 911.64 962.89 908.70 962.25 Q 904.95 961.45 903.40 964.48 A 1.40 0.75 -9.6 0 1 902.70 965.02 Q 902.16 965.23 902.21 966.00 Q 901.73 964.27 900.21 963.75 Q 895.43 959.87 891.56 964.56 Q 891.08 965.14 890.04 965.25 Q 889.56 963.88 888.21 963.50 Q 885.99 961.57 883.00 961.79 Q 882.51 960.66 882.75 958.75 Q 882.87 957.77 881.79 958.00 Q 880.21 956.36 879.88 958.27 Q 879.55 960.16 879.12 962.01 A 0.50 0.50 -76.5 0 1 878.52 962.38 Q 873.82 961.37 870.04 964.50 Z M 920.67 968.12 Q 923.35 968.80 925.74 967.67 A 0.73 0.67 -17.5 0 0 926.15 966.95 Q 925.99 965.64 925.12 966.66 A 1.46 1.08 -67.3 0 1 924.31 967.14 Q 922.68 967.35 921.04 967.27 Q 920.72 967.25 920.47 967.35 Q 919.36 967.79 920.67 968.12 Z"/>
<circle fill="rgb(255,255,255)" fill-opacity="1.000" cx="221.22" cy="403.04" r="56.20"/>
<circle fill="rgb(255,255,255)" fill-opacity="1.000" cx="823.76" cy="403.03" r="56.20"/>
<path fill="rgb(255,255,255)" fill-opacity="1.000" d="M 428.92 703.33 Q 424.54 699.97 421.85 695.17 Q 418.34 688.91 420.40 681.92 Q 421.67 677.62 424.19 673.90 Q 433.73 659.87 450.56 664.94 Q 456.54 666.75 462.12 669.58 Q 478.03 677.65 494.31 684.94 Q 511.03 692.42 532.60 698.61 Q 542.31 701.39 551.99 703.47 Q 595.10 712.73 638.75 711.75 Q 677.31 710.88 715.95 702.27 Q 778.98 688.23 836.30 658.55 Q 844.40 654.36 848.56 652.56 Q 851.21 651.42 854.30 650.99 Q 857.20 650.59 860.18 651.18 Q 870.51 653.23 876.00 662.25 Q 884.12 675.60 876.79 685.34 Q 873.42 689.81 860.86 696.90 Q 812.45 724.21 757.25 739.50 Q 686.59 759.08 614.74 757.34 Q 604.49 757.10 594.77 756.25 Q 511.98 749.00 438.62 709.59 Q 433.52 706.84 428.92 703.33 Z"/>
<path fill="rgb(255,208,85)" fill-opacity="1.000" d="M 944.71 958.00 Q 944.28 957.92 944.26 958.25 Q 943.87 963.86 943.98 969.48 Q 943.98 969.59 944.14 971.01 Q 944.41 973.52 941.75 973.96 Q 939.55 975.32 938.75 973.21 Q 941.59 970.47 940.21 966.50 Q 942.89 962.66 940.21 959.00 Q 940.13 957.91 939.42 958.47 A 1.69 1.04 -54.9 0 1 938.56 958.84 L 931.02 959.21 A 1.87 1.87 -1.8 0 0 929.24 961.10 Q 929.28 963.98 931.25 963.71 Q 931.79 964.14 932.51 964.04 Q 936.20 963.51 939.25 965.54 Q 941.29 972.08 934.97 972.76 Q 931.49 973.13 928.00 973.54 Q 925.71 971.28 928.75 971.25 Q 931.17 971.22 932.59 971.14 Q 935.07 970.98 935.39 970.90 Q 937.25 970.40 936.71 967.75 Q 936.34 965.83 934.25 966.25 Q 933.12 966.48 929.75 965.96 L 928.04 964.75 Q 927.16 963.70 927.28 962.46 Q 927.41 961.03 927.41 960.89 Q 927.48 957.68 930.75 957.25 Q 934.41 956.77 940.01 957.67 Q 940.45 957.74 940.97 957.58 Q 942.89 956.99 944.71 958.00 Z"/>
<path fill="rgb(255,208,85)" fill-opacity="1.000" d="M 847.00 958.04 Q 850.52 962.71 853.00 968.00 Q 854.28 970.73 853.75 967.75 Q 853.56 966.66 852.96 965.75 Q 854.49 962.67 854.35 959.24 Q 854.32 958.39 854.65 957.97 Q 855.30 957.15 856.29 958.00 Q 856.28 963.85 856.04 969.69 Q 856.03 969.96 856.29 971.77 Q 856.55 973.61 854.04 973.25 Q 851.19 968.71 848.31 964.19 Q 847.91 963.56 847.29 963.75 Q 847.32 962.11 846.39 960.94 Q 846.06 960.52 846.05 961.06 Q 845.94 965.04 846.19 972.44 Q 846.23 973.53 845.04 973.25 Q 844.00 965.62 844.65 957.93 A 0.67 0.60 89.2 0 1 845.18 957.32 Q 846.18 957.20 847.00 958.04 Z"/>
<path fill="rgb(255,208,85)" fill-opacity="1.000" d="M 881.79 958.00 Q 881.43 959.47 881.52 960.95 Q 881.56 961.55 881.89 961.81 Q 882.37 962.18 883.00 961.79 Q 885.99 961.57 888.21 963.50 Q 890.29 967.56 888.75 970.50 Q 887.11 973.63 883.50 973.00 Q 881.62 972.68 880.00 973.54 Q 878.92 972.94 879.25 971.25 Q 879.84 968.24 878.71 964.75 Q 878.96 962.12 877.35 963.64 A 1.08 1.07 25.1 0 1 876.51 963.94 Q 875.40 963.85 874.39 964.24 A 1.00 0.92 88.4 0 0 873.81 964.91 Q 872.59 969.47 873.25 971.00 Q 874.29 973.43 871.75 973.54 Q 870.20 973.16 870.21 971.50 Q 871.51 967.92 870.04 964.50 Q 873.82 961.37 878.52 962.38 A 0.50 0.50 -76.5 0 0 879.12 962.01 Q 879.55 960.16 879.88 958.27 Q 880.21 956.36 881.79 958.00 Z M 883.00 970.71 Q 885.67 972.09 886.32 969.27 Q 886.78 967.25 886.29 965.25 Q 884.40 963.38 881.81 963.94 A 0.52 0.49 78.1 0 0 881.43 964.55 Q 882.00 967.16 881.59 969.82 Q 881.24 972.07 883.00 970.71 Z"/>
<path fill="rgb(255,208,85)" fill-opacity="1.000" d="M 968.79 958.00 L 968.78 961.23 A 0.68 0.47 -88.7 0 0 969.22 961.90 Q 969.46 961.91 969.75 961.71 Q 972.71 961.80 975.25 963.29 Q 976.93 967.89 976.04 972.69 A 0.78 0.63 -2.3 0 1 975.44 973.22 Q 974.88 973.33 974.46 973.75 Q 973.10 972.10 973.32 969.94 Q 973.56 967.69 973.21 965.50 Q 972.46 963.23 968.78 964.27 A 0.41 0.36 81.8 0 0 968.52 964.67 L 968.69 972.55 A 0.99 0.91 -6.4 0 1 967.89 973.47 Q 965.50 973.94 965.42 972.06 Q 965.40 971.65 965.18 971.98 Q 963.62 974.29 960.75 972.71 Q 958.15 970.43 957.79 967.00 Q 957.48 965.11 956.46 963.50 L 958.58 961.77 A 1.38 1.02 -22.1 0 0 959.05 961.00 Q 959.39 958.54 961.29 960.25 Q 960.55 962.59 963.04 961.50 Q 964.55 961.76 965.29 963.00 Q 964.63 964.54 962.54 963.94 A 1.01 0.92 6.3 0 0 961.25 964.88 L 961.70 969.71 A 1.20 0.88 19.8 0 0 962.22 970.48 Q 963.49 971.33 962.84 970.09 Q 962.66 969.74 962.58 969.51 Q 961.02 964.79 965.19 964.91 A 0.60 0.51 2.6 0 0 965.79 964.44 L 965.96 962.50 L 966.49 958.50 A 1.46 0.51 -89.2 0 1 966.81 957.62 Q 967.67 956.79 968.79 958.00 Z M 957.76 964.55 Q 957.70 965.83 958.64 964.77 Q 958.85 964.53 958.87 964.29 Q 958.90 963.83 958.29 963.93 A 0.67 0.64 86.8 0 0 957.76 964.55 Z"/>
<path fill="rgb(20,1,0)" fill-opacity="1.000" d="M 854.04 973.25 Q 856.55 973.61 856.29 971.77 Q 856.03 969.96 856.04 969.69 Q 856.28 963.85 856.29 958.00 Q 857.23 957.77 857.25 959.25 Q 857.35 968.70 857.09 973.07 A 1.18 1.01 75.6 0 1 856.69 973.89 Q 855.13 975.10 854.04 973.25 Z"/>
<path fill="rgb(20,1,0)" fill-opacity="1.000" d="M 847.00 958.04 Q 847.91 958.25 848.40 959.08 Q 850.44 962.58 852.96 965.75 Q 853.56 966.66 853.75 967.75 Q 854.28 970.73 853.00 968.00 Q 850.52 962.71 847.00 958.04 Z"/>
<path fill="rgb(20,1,0)" fill-opacity="1.000" d="M 881.79 958.00 Q 882.87 957.77 882.75 958.75 Q 882.51 960.66 883.00 961.79 Q 882.37 962.18 881.89 961.81 Q 881.56 961.55 881.52 960.95 Q 881.43 959.47 881.79 958.00 Z"/>
<path fill="rgb(20,1,0)" fill-opacity="1.000" d="M 944.71 958.00 L 945.04 966.75 L 945.21 971.00 Q 945.42 974.95 941.75 973.96 Q 944.41 973.52 944.14 971.01 Q 943.98 969.59 943.98 969.48 Q 943.87 963.86 944.26 958.25 Q 944.28 957.92 944.71 958.00 Z"/>
<path fill="rgb(20,1,0)" fill-opacity="1.000" d="M 968.79 958.00 Q 969.92 958.37 969.50 959.75 Q 969.37 960.19 969.75 961.71 Q 969.46 961.91 969.22 961.90 A 0.68 0.47 -88.7 0 1 968.78 961.23 L 968.79 958.00 Z"/>
<path fill="rgb(20,1,0)" fill-opacity="1.000" d="M 940.21 959.00 Q 938.28 960.58 934.40 960.07 Q 932.58 959.84 930.94 960.65 Q 929.07 961.59 931.25 963.71 Q 929.28 963.98 929.24 961.10 A 1.87 1.87 -1.8 0 1 931.02 959.21 L 938.56 958.84 A 1.69 1.04 -54.9 0 0 939.42 958.47 Q 940.13 957.91 940.21 959.00 Z"/>
<path fill="rgb(255,173,0)" fill-opacity="1.000" d="M 940.21 959.00 Q 942.89 962.66 940.21 966.50 Q 939.88 965.85 939.25 965.54 Q 936.20 963.51 932.51 964.04 Q 931.79 964.14 931.25 963.71 Q 929.07 961.59 930.94 960.65 Q 932.58 959.84 934.40 960.07 Q 938.28 960.58 940.21 959.00 Z"/>
<path fill="rgb(255,208,85)" fill-opacity="1.000" d="M 914.29 960.50 Q 913.89 962.63 916.29 961.50 Q 917.88 961.71 918.29 963.25 Q 917.33 964.43 915.36 963.90 A 0.87 0.86 8.9 0 0 914.27 964.69 Q 914.16 967.26 914.49 969.25 Q 914.72 970.65 916.00 970.96 Q 917.06 971.53 917.79 972.50 Q 915.42 974.37 913.29 972.25 Q 912.16 970.58 912.50 968.50 Q 912.66 967.49 911.96 965.00 Q 910.98 963.23 909.04 963.74 Q 908.42 963.90 907.81 963.92 Q 907.15 963.93 906.54 964.13 A 0.91 0.85 88.2 0 0 905.95 964.80 Q 905.34 967.45 905.26 970.15 Q 905.26 970.30 905.48 971.81 Q 905.71 973.36 903.75 973.54 Q 902.12 973.04 902.62 971.10 Q 902.75 970.60 902.46 971.03 Q 901.76 972.07 901.04 972.25 Q 900.39 971.99 900.13 972.52 A 1.09 0.62 -73.9 0 1 899.52 973.11 Q 895.35 974.01 891.79 971.75 Q 891.05 970.99 889.96 970.75 Q 890.61 968.01 890.04 965.25 Q 891.08 965.14 891.56 964.56 Q 895.43 959.87 900.21 963.75 Q 901.75 965.94 901.08 968.49 A 0.99 0.88 -81.0 0 1 900.18 969.23 L 893.99 969.00 Q 892.51 968.94 893.47 969.99 Q 894.22 970.81 895.37 970.56 Q 896.85 970.25 897.18 970.25 Q 898.28 970.25 899.38 970.25 Q 900.72 970.25 901.39 969.60 Q 902.75 968.28 902.21 966.00 Q 902.16 965.23 902.70 965.02 A 1.40 0.75 -9.6 0 0 903.40 964.48 Q 904.95 961.45 908.70 962.25 Q 911.64 962.89 912.44 960.30 A 1.23 0.84 -86.3 0 1 913.01 959.57 Q 914.12 959.08 914.29 960.50 Z M 897.76 965.86 Q 897.84 966.03 897.97 966.11 Q 898.57 966.49 898.29 965.72 Q 897.28 962.87 894.58 964.47 Q 894.06 964.78 893.73 965.34 Q 892.40 967.57 894.49 966.65 A 1.51 0.98 -79.6 0 0 895.13 965.97 Q 895.88 964.46 897.43 965.39 A 0.96 0.33 73.6 0 1 897.76 965.86 Z"/>
<path fill="rgb(20,1,0)" fill-opacity="1.000" d="M 916.29 961.50 Q 913.89 962.63 914.29 960.50 Q 915.62 960.21 916.29 961.50 Z"/>
<path fill="rgb(20,1,0)" fill-opacity="1.000" d="M 961.29 960.25 Q 962.43 960.49 963.04 961.50 Q 960.55 962.59 961.29 960.25 Z"/>
<path fill="rgb(20,1,0)" fill-opacity="1.000" d="M 847.29 963.75 L 846.98 973.18 A 1.04 1.03 72.9 0 1 846.55 974.00 Q 845.15 974.99 845.04 973.25 Q 846.23 973.53 846.19 972.44 Q 845.94 965.04 846.05 961.06 Q 846.06 960.52 846.39 960.94 Q 847.32 962.11 847.29 963.75 Z"/>
<path fill="rgb(255,208,85)" fill-opacity="1.000" d="M 869.00 963.79 Q 869.95 966.02 869.69 968.29 Q 869.43 970.62 867.65 972.03 Q 864.50 974.52 860.29 972.00 Q 858.49 969.79 857.85 966.98 A 1.05 0.67 -37.5 0 1 858.14 966.18 L 860.67 963.35 Q 861.10 962.86 861.40 962.74 Q 865.39 961.17 869.00 963.79 Z M 863.25 971.04 Q 868.56 971.24 866.96 965.75 Q 865.41 963.23 863.24 964.09 Q 861.58 964.73 861.08 966.61 Q 860.31 969.45 863.25 971.04 Z"/>
<path fill="rgb(255,208,85)" fill-opacity="1.000" d="M 955.25 963.04 Q 957.12 965.41 956.84 968.06 Q 956.58 970.58 954.41 972.18 Q 950.87 974.79 946.54 971.50 Q 946.09 970.94 945.21 971.00 L 945.04 966.75 L 945.29 965.01 A 1.24 0.51 -89.1 0 1 945.64 964.20 Q 949.96 960.94 955.25 963.04 Z M 950.21 971.00 Q 955.95 971.39 953.75 965.71 Q 952.13 963.09 950.04 964.16 Q 948.51 964.94 948.07 966.76 Q 947.42 969.48 950.21 971.00 Z"/>
<path fill="rgb(20,1,0)" fill-opacity="1.000" d="M 965.96 962.50 L 965.79 964.44 A 0.60 0.51 2.6 0 1 965.19 964.91 Q 961.02 964.79 962.58 969.51 Q 962.66 969.74 962.84 970.09 Q 963.49 971.33 962.22 970.48 A 1.20 0.88 19.8 0 1 961.70 969.71 L 961.25 964.88 A 1.01 0.92 6.3 0 1 962.54 963.94 Q 964.63 964.54 965.29 963.00 Q 965.49 962.55 965.96 962.50 Z"/>
<path fill="rgb(20,1,0)" fill-opacity="1.000" d="M 878.71 964.75 Q 876.91 964.70 875.27 965.36 A 0.85 0.78 -11.3 0 0 874.75 966.07 L 874.48 972.75 A 1.65 0.69 82.7 0 1 874.23 973.66 Q 873.15 975.09 871.75 973.54 Q 874.29 973.43 873.25 971.00 Q 872.59 969.47 873.81 964.91 A 1.00 0.92 88.4 0 1 874.39 964.24 Q 875.40 963.85 876.51 963.94 A 1.08 1.07 25.1 0 0 877.35 963.64 Q 878.96 962.12 878.71 964.75 Z"/>
<path fill="rgb(20,1,0)" fill-opacity="1.000" d="M 955.25 963.04 Q 955.92 963.08 956.46 963.50 Q 957.48 965.11 957.79 967.00 Q 957.85 968.64 957.44 970.19 Q 957.04 971.74 955.76 972.75 Q 951.11 976.42 946.54 971.50 Q 950.87 974.79 954.41 972.18 Q 956.58 970.58 956.84 968.06 Q 957.12 965.41 955.25 963.04 Z"/>
<path fill="rgb(20,1,0)" fill-opacity="1.000" d="M 890.04 965.25 Q 890.61 968.01 889.96 970.75 Q 886.51 976.38 880.00 973.54 Q 881.62 972.68 883.50 973.00 Q 887.11 973.63 888.75 970.50 Q 890.29 967.56 888.21 963.50 Q 889.56 963.88 890.04 965.25 Z"/>
<path fill="rgb(20,1,0)" fill-opacity="1.000" d="M 918.29 963.25 Q 920.08 964.14 918.33 964.81 Q 917.90 964.98 917.15 964.90 Q 915.27 964.70 915.39 966.50 Q 915.47 967.81 915.47 968.01 Q 915.48 969.52 916.00 970.96 Q 914.72 970.65 914.49 969.25 Q 914.16 967.26 914.27 964.69 A 0.87 0.86 8.9 0 1 915.36 963.90 Q 917.33 964.43 918.29 963.25 Z"/>
<path fill="rgb(20,1,0)" fill-opacity="1.000" d="M 975.25 963.29 Q 976.40 963.92 976.75 965.50 Q 977.54 969.12 977.13 972.39 Q 976.99 973.47 976.46 973.92 Q 975.62 974.63 974.46 973.75 Q 974.88 973.33 975.44 973.22 A 0.78 0.63 -2.3 0 0 976.04 972.69 Q 976.93 967.89 975.25 963.29 Z"/>
<path fill="rgb(20,1,0)" fill-opacity="1.000" d="M 902.21 966.00 Q 902.75 968.28 901.39 969.60 Q 900.72 970.25 899.38 970.25 Q 898.28 970.25 897.18 970.25 Q 896.85 970.25 895.37 970.56 Q 894.22 970.81 893.47 969.99 Q 892.51 968.94 893.99 969.00 L 900.18 969.23 A 0.99 0.88 -81.0 0 0 901.08 968.49 Q 901.75 965.94 900.21 963.75 Q 901.73 964.27 902.21 966.00 Z"/>
<path fill="rgb(20,1,0)" fill-opacity="1.000" d="M 869.00 963.79 Q 869.72 963.79 870.04 964.50 Q 871.51 967.92 870.21 971.50 Q 865.47 976.83 860.29 972.00 Q 864.50 974.52 867.65 972.03 Q 869.43 970.62 869.69 968.29 Q 869.95 966.02 869.00 963.79 Z"/>
<path fill="rgb(20,1,0)" fill-opacity="1.000" d="M 886.29 965.25 Q 886.31 965.48 886.23 965.60 A 0.40 0.23 31.5 0 1 885.76 965.59 Q 884.59 964.86 883.29 965.16 A 0.69 0.60 -9.5 0 0 882.77 965.80 L 883.00 970.71 Q 881.24 972.07 881.59 969.82 Q 882.00 967.16 881.43 964.55 A 0.52 0.49 78.1 0 1 881.81 963.94 Q 884.40 963.38 886.29 965.25 Z"/>
<path fill="rgb(20,1,0)" fill-opacity="1.000" d="M 911.96 965.00 Q 909.98 964.49 907.47 965.13 A 1.49 1.35 83.9 0 0 906.46 966.52 L 906.31 973.01 A 1.26 1.16 -22.4 0 1 905.91 973.87 Q 904.81 974.90 903.75 973.54 Q 905.71 973.36 905.48 971.81 Q 905.26 970.30 905.26 970.15 Q 905.34 967.45 905.95 964.80 A 0.91 0.85 88.2 0 1 906.54 964.13 Q 907.15 963.93 907.81 963.92 Q 908.42 963.90 909.04 963.74 Q 910.98 963.23 911.96 965.00 Z"/>
<path fill="rgb(20,1,0)" fill-opacity="1.000" d="M 973.21 965.50 Q 971.67 964.87 970.48 964.96 A 0.83 0.81 88.5 0 0 969.74 965.76 L 969.54 972.99 A 1.13 1.13 70.9 0 1 969.13 973.84 Q 968.02 974.76 967.09 974.20 A 3.12 3.10 -35.9 0 0 964.80 973.84 Q 961.70 974.54 960.75 972.71 Q 963.62 974.29 965.18 971.98 Q 965.40 971.65 965.42 972.06 Q 965.50 973.94 967.89 973.47 A 0.99 0.91 -6.4 0 0 968.69 972.55 L 968.52 964.67 A 0.41 0.36 81.8 0 1 968.78 964.27 Q 972.46 963.23 973.21 965.50 Z"/>
<path fill="rgb(20,1,0)" fill-opacity="1.000" d="M 866.96 965.75 Q 865.55 964.84 864.17 965.16 Q 862.83 965.47 862.41 966.92 Q 861.78 969.06 863.25 971.04 Q 860.31 969.45 861.08 966.61 Q 861.58 964.73 863.24 964.09 Q 865.41 963.23 866.96 965.75 Z"/>
<path fill="rgb(20,1,0)" fill-opacity="1.000" d="M 897.43 965.39 Q 895.88 964.46 895.13 965.97 A 1.51 0.98 -79.6 0 1 894.49 966.65 Q 892.40 967.57 893.73 965.34 Q 894.06 964.78 894.58 964.47 Q 897.28 962.87 898.29 965.72 Q 898.57 966.49 897.97 966.11 Q 897.84 966.03 897.76 965.86 A 0.96 0.33 73.6 0 0 897.43 965.39 Z"/>
<path fill="rgb(20,1,0)" fill-opacity="1.000" d="M 953.75 965.71 Q 952.00 964.59 950.26 965.34 A 1.24 1.22 89.6 0 0 949.61 966.01 Q 948.54 968.64 950.21 971.00 Q 947.42 969.48 948.07 966.76 Q 948.51 964.94 950.04 964.16 Q 952.13 963.09 953.75 965.71 Z"/>
<path fill="rgb(20,1,0)" fill-opacity="1.000" d="M 958.29 963.93 Q 958.90 963.83 958.87 964.29 Q 958.85 964.53 958.64 964.77 Q 957.70 965.83 957.76 964.55 A 0.67 0.64 86.8 0 1 958.29 963.93 Z"/>
<path fill="rgb(20,1,0)" fill-opacity="1.000" d="M 928.04 964.75 L 929.75 965.96 Q 929.40 966.11 929.50 966.46 Q 928.03 966.23 928.04 964.75 Z"/>
<path fill="rgb(255,173,0)" fill-opacity="1.000" d="M 866.96 965.75 Q 868.56 971.24 863.25 971.04 Q 861.78 969.06 862.41 966.92 Q 862.83 965.47 864.17 965.16 Q 865.55 964.84 866.96 965.75 Z"/>
<path fill="rgb(255,173,0)" fill-opacity="1.000" d="M 886.29 965.25 Q 886.78 967.25 886.32 969.27 Q 885.67 972.09 883.00 970.71 L 882.77 965.80 A 0.69 0.60 -9.5 0 1 883.29 965.16 Q 884.59 964.86 885.76 965.59 A 0.40 0.23 31.5 0 0 886.23 965.60 Q 886.31 965.48 886.29 965.25 Z"/>
<path fill="rgb(255,173,0)" fill-opacity="1.000" d="M 953.75 965.71 Q 955.95 971.39 950.21 971.00 Q 948.54 968.64 949.61 966.01 A 1.24 1.22 89.6 0 1 950.26 965.34 Q 952.00 964.59 953.75 965.71 Z"/>
<path fill="rgb(20,1,0)" fill-opacity="1.000" d="M 939.25 965.54 Q 939.88 965.85 940.21 966.50 Q 941.59 970.47 938.75 973.21 Q 935.47 974.60 931.89 974.34 Q 931.70 974.33 930.14 974.39 Q 928.90 974.44 928.00 973.54 Q 931.49 973.13 934.97 972.76 Q 941.29 972.08 939.25 965.54 Z"/>
<path fill="rgb(20,1,0)" fill-opacity="1.000" d="M 929.75 965.96 Q 933.12 966.48 934.25 966.25 Q 936.34 965.83 936.71 967.75 Q 935.47 967.09 933.75 967.25 Q 931.76 967.44 929.50 966.46 Q 929.40 966.11 929.75 965.96 Z"/>
<path fill="rgb(20,1,0)" fill-opacity="1.000" d="M 920.67 968.12 Q 919.36 967.79 920.47 967.35 Q 920.72 967.25 921.04 967.27 Q 922.68 967.35 924.31 967.14 A 1.46 1.08 -67.3 0 0 925.12 966.66 Q 925.99 965.64 926.15 966.95 A 0.73 0.67 -17.5 0 1 925.74 967.67 Q 923.35 968.80 920.67 968.12 Z"/>
<path fill="rgb(20,1,0)" fill-opacity="1.000" d="M 891.79 971.75 Q 895.35 974.01 899.52 973.11 A 1.09 0.62 -73.9 0 0 900.13 972.52 Q 900.39 971.99 901.04 972.25 Q 901.22 972.85 901.04 973.37 A 1.14 0.85 -3.8 0 1 900.34 973.97 Q 895.34 975.46 891.79 971.75 Z"/>
<path fill="rgb(20,1,0)" fill-opacity="1.000" d="M 913.29 972.25 Q 915.42 974.37 917.79 972.50 Q 918.01 972.23 918.22 972.28 A 0.58 0.37 -82.4 0 1 918.49 972.85 Q 918.33 974.52 916.25 974.25 Q 914.06 973.96 913.29 972.25 Z"/>
</svg>